<svg width="20" height="22" viewBox="0 0 20 22" fill="none" xmlns="http://www.w3.org/2000/svg">
<path d="M17.3666 4.22586C16.941 3.75745 16.4356 3.38587 15.8794 3.13235C15.3232 2.87884 14.727 2.74835 14.1249 2.74835C13.5229 2.74835 12.9267 2.87884 12.3705 3.13235C11.8143 3.38587 11.3089 3.75745 10.8833 4.22586L9.99994 5.19753L9.1166 4.22586C8.25686 3.28014 7.0908 2.74884 5.87494 2.74884C4.65908 2.74884 3.49301 3.28014 2.63327 4.22586C1.77353 5.17158 1.29053 6.45424 1.29053 7.79169C1.29053 9.12914 1.77353 10.4118 2.63327 11.3575L9.99994 19.4609L17.3666 11.3575C17.7924 10.8893 18.1302 10.3334 18.3607 9.7216C18.5912 9.10976 18.7098 8.45397 18.7098 7.79169C18.7098 7.12941 18.5912 6.47362 18.3607 5.86178C18.1302 5.24995 17.7924 4.69405 17.3666 4.22586Z" stroke="#57AF31" stroke-width="2" stroke-linecap="round" stroke-linejoin="round"/>
</svg>
