<svg width="20" height="20" viewBox="0 0 20 20" fill="none" xmlns="http://www.w3.org/2000/svg">
<g clip-path="url(#clip0_195_1330)">
<path d="M14.5837 5.41663H14.592M5.83366 1.66663H14.167C16.4682 1.66663 18.3337 3.53211 18.3337 5.83329V14.1666C18.3337 16.4678 16.4682 18.3333 14.167 18.3333H5.83366C3.53247 18.3333 1.66699 16.4678 1.66699 14.1666V5.83329C1.66699 3.53211 3.53247 1.66663 5.83366 1.66663ZM13.3337 9.47496C13.4365 10.1685 13.318 10.8768 12.9951 11.4991C12.6722 12.1215 12.1613 12.6261 11.535 12.9414C10.9087 13.2566 10.199 13.3663 9.50681 13.2549C8.8146 13.1435 8.17513 12.8167 7.67936 12.3209C7.18359 11.8252 6.85677 11.1857 6.74538 10.4935C6.63399 9.80125 6.74371 9.09154 7.05893 8.46527C7.37415 7.839 7.87881 7.32808 8.50115 7.00516C9.12348 6.68224 9.83179 6.56378 10.5253 6.66663C11.2328 6.77153 11.8877 7.10118 12.3934 7.60688C12.8991 8.11258 13.2288 8.76752 13.3337 9.47496Z" stroke="#57AF31" stroke-width="2" stroke-linecap="round" stroke-linejoin="round"/>
</g>
<defs>
<clipPath id="clip0_195_1330">
<rect width="20" height="20" fill="white"/>
</clipPath>
</defs>
</svg>
