<svg width="20" height="20" viewBox="0 0 20 20" fill="none" xmlns="http://www.w3.org/2000/svg">
<g clip-path="url(#clip0_195_1024)">
<path d="M14.5832 5.41666H14.5915M5.83317 1.66666H14.1665C16.4677 1.66666 18.3332 3.53214 18.3332 5.83332V14.1667C18.3332 16.4678 16.4677 18.3333 14.1665 18.3333H5.83317C3.53198 18.3333 1.6665 16.4678 1.6665 14.1667V5.83332C1.6665 3.53214 3.53198 1.66666 5.83317 1.66666ZM13.3332 9.47499C13.436 10.1685 13.3176 10.8768 12.9946 11.4992C12.6717 12.1215 12.1608 12.6262 11.5345 12.9414C10.9083 13.2566 10.1985 13.3663 9.50633 13.2549C8.81411 13.1435 8.17464 12.8167 7.67887 12.321C7.1831 11.8252 6.85628 11.1857 6.74489 10.4935C6.63351 9.80128 6.74322 9.09157 7.05844 8.4653C7.37366 7.83903 7.87833 7.32811 8.50066 7.00519C9.12299 6.68228 9.8313 6.56381 10.5248 6.66666C11.2323 6.77156 11.8872 7.10121 12.3929 7.60691C12.8986 8.11261 13.2283 8.76755 13.3332 9.47499Z" stroke="#F5F5F5" stroke-width="2" stroke-linecap="round" stroke-linejoin="round"/>
</g>
<defs>
<clipPath id="clip0_195_1024">
<rect width="20" height="20" fill="white"/>
</clipPath>
</defs>
</svg>
