<svg width="25" height="24" viewBox="0 0 25 24" fill="none" xmlns="http://www.w3.org/2000/svg">
<g clip-path="url(#clip0_195_1279)">
<path d="M11.6882 3.25162L11.7285 5.13685M11.7285 5.13685L14.691 5.07918L14.7615 8.37832L11.799 8.43599M11.7285 5.13685L11.799 8.43599M11.8818 12.3101C12.3882 12.297 12.8923 12.3797 13.3652 12.5533C13.838 12.727 14.2701 12.9882 14.6368 13.3219C15.0034 13.6556 15.2973 14.0553 15.5014 14.4979C15.7056 14.9405 15.816 15.4172 15.8263 15.9007C15.8366 16.3842 15.7467 16.8648 15.5616 17.315C15.3765 17.7651 15.1 18.1759 14.7479 18.5236C14.3958 18.8713 13.9752 19.1492 13.5102 19.3411C13.0452 19.533 12.545 19.6352 12.0384 19.6418C11.0312 19.6447 10.0631 19.2698 9.34263 18.598C8.62214 17.9262 8.20691 17.0111 8.18638 16.0499C8.16584 15.0887 8.54164 14.1582 9.23283 13.4589C9.92402 12.7596 10.8753 12.3474 11.8818 12.3111L11.8818 12.3101ZM11.8818 12.3101L11.799 8.43599" stroke="#57AF31" stroke-width="1.6" stroke-linecap="round" stroke-linejoin="round"/>
</g>
<defs>
<clipPath id="clip0_195_1279">
<rect width="16.3698" height="16.4009" fill="white" transform="matrix(0.709129 -0.705079 0.737256 0.675614 0.523438 12.4275)"/>
</clipPath>
</defs>
</svg>
