<svg width="146" height="103" viewBox="0 0 146 103" fill="none" xmlns="http://www.w3.org/2000/svg">
<path d="M78.4476 1.82504C78.6107 1.96371 78.7632 2.11119 78.9138 2.26326C78.9424 2.29185 78.971 2.32043 79.0004 2.34989C79.7225 3.12068 79.9825 4.13383 79.9746 5.15745C79.9746 5.22864 79.9748 5.29983 79.975 5.37102C79.9754 5.56453 79.9747 5.75802 79.9739 5.95152C79.9731 6.16098 79.9734 6.37045 79.9735 6.57991C79.9736 6.94212 79.9731 7.30432 79.9722 7.66653C79.9708 8.1902 79.9704 8.71388 79.9702 9.23756C79.9698 10.0873 79.9687 10.9371 79.9671 11.7869C79.9656 12.612 79.9644 13.4372 79.9637 14.2623C79.9636 14.3132 79.9636 14.3641 79.9636 14.4166C79.9633 14.6721 79.9631 14.9276 79.9629 15.1831C79.9612 17.3001 79.9583 19.4172 79.9545 21.5342C79.9904 21.5342 80.0262 21.5341 80.0632 21.5341C82.1894 21.5313 84.3156 21.5292 86.4418 21.5279C86.6972 21.5277 86.9527 21.5275 87.2082 21.5274C87.2845 21.5273 87.2845 21.5273 87.3623 21.5273C88.1851 21.5267 89.0079 21.5258 89.8306 21.5246C90.6753 21.5234 91.52 21.5228 92.3646 21.5225C92.8855 21.5223 93.4064 21.5218 93.9274 21.5208C94.2849 21.5201 94.6425 21.5199 95 21.5201C95.2061 21.5202 95.4121 21.52 95.6182 21.5194C95.8073 21.5188 95.9964 21.5187 96.1855 21.5192C96.2535 21.5192 96.3215 21.5191 96.3895 21.5187C96.9834 21.5154 97.5733 21.5719 98.1317 21.7886C98.1644 21.8011 98.1972 21.8136 98.2309 21.8265C98.8053 22.0543 99.2563 22.3839 99.6876 22.8217C99.7193 22.8534 99.751 22.885 99.7836 22.9176C100.459 23.632 100.802 24.6196 100.787 25.5947C100.749 26.519 100.417 27.3513 99.8125 28.0548C99.7848 28.0915 99.7848 28.0915 99.7564 28.1289C99.1982 28.8493 98.2132 29.2936 97.3352 29.4487C97.0211 29.488 96.7041 29.4819 96.3881 29.4837C96.3041 29.4845 96.2202 29.4853 96.1362 29.4861C95.901 29.4882 95.6658 29.4898 95.4305 29.4912C95.2768 29.4922 95.1231 29.4933 94.9693 29.4945C91.8265 29.5179 88.6835 29.5176 85.5406 29.5183C85.3532 29.5183 85.1658 29.5184 84.9784 29.5184C84.9319 29.5184 84.8854 29.5184 84.8375 29.5184C84.0731 29.5186 83.3088 29.5193 82.5444 29.5203C81.7488 29.5213 80.9532 29.5218 80.1575 29.5218C79.715 29.5219 79.2725 29.5221 78.8299 29.5229C78.4566 29.5235 78.0833 29.5237 77.7099 29.5234C77.5204 29.5232 77.3308 29.5232 77.1412 29.5238C75.5932 29.5283 74.2331 29.3941 73.0594 28.2573C72.2697 27.4637 71.9401 26.4697 71.9404 25.368C71.941 25.2868 71.9415 25.2056 71.9421 25.1244C71.9421 25.0362 71.942 24.9481 71.9419 24.8599C71.9418 24.6196 71.9427 24.3794 71.9437 24.1391C71.9447 23.8792 71.9447 23.6193 71.9449 23.3594C71.9453 22.8804 71.9464 22.4014 71.948 21.9223C71.9494 21.4797 71.9505 21.0371 71.9512 20.5944C71.9513 20.565 71.9513 20.5355 71.9514 20.5052C71.9516 20.3857 71.9518 20.2662 71.952 20.1467C71.9539 19.0271 71.9567 17.9075 71.96 16.7879C71.963 15.7947 71.9651 14.8014 71.9667 13.8081C71.9671 13.5537 71.9674 13.2993 71.9678 13.0449C71.9679 13.0136 71.9679 12.9823 71.968 12.95C71.9693 12.1184 71.9712 11.2868 71.9733 10.4553C71.9735 10.3657 71.9737 10.2762 71.974 10.1866C71.9741 10.1272 71.9743 10.0678 71.9744 10.0084C71.9754 9.59546 71.9762 9.18248 71.9769 8.76951C71.9777 8.23713 71.9789 7.70476 71.9809 7.17239C71.9818 6.91591 71.9825 6.65944 71.9827 6.40296C71.9828 6.16778 71.9836 5.93261 71.9848 5.69743C71.9851 5.61275 71.9852 5.52808 71.9851 5.4434C71.9838 4.08566 72.3182 3.01265 73.2999 2.03093C74.6545 0.733213 76.9894 0.65624 78.4476 1.82504Z" fill="#50B948"/>
<path d="M67.4236 14.0999C67.4738 14.1218 67.4738 14.1218 67.5249 14.1441C68.0823 14.4216 68.5038 14.9342 68.7142 15.512C68.7992 15.7902 68.8093 16.0452 68.8083 16.335C68.8084 16.3838 68.8086 16.4325 68.8088 16.4828C68.8091 16.6175 68.8091 16.7521 68.8089 16.8868C68.8088 17.0323 68.8092 17.1778 68.8095 17.3234C68.81 17.6082 68.8101 17.8931 68.81 18.1779C68.81 18.4095 68.81 18.6412 68.8102 18.8728C68.8102 18.9058 68.8102 18.9388 68.8103 18.9729C68.8103 19.0399 68.8104 19.107 68.8104 19.174C68.8109 19.8026 68.8108 20.4312 68.8105 21.0598C68.8103 21.6342 68.8108 22.2086 68.8116 22.783C68.8124 23.3734 68.8127 23.9638 68.8126 24.5542C68.8125 24.8854 68.8126 25.2167 68.8132 25.5479C68.8137 25.8299 68.8137 26.1119 68.8132 26.3939C68.813 26.5377 68.8129 26.6814 68.8134 26.8251C68.8139 26.9814 68.8135 27.1376 68.813 27.2938C68.8133 27.3387 68.8136 27.3835 68.8139 27.4297C68.8093 28.0805 68.5914 28.6605 68.1377 29.1349C67.6049 29.6269 66.9818 29.8125 66.2704 29.81C66.1986 29.8102 66.1986 29.8102 66.1253 29.8104C65.9655 29.8109 65.8057 29.8107 65.6459 29.8105C65.531 29.8107 65.4162 29.8109 65.3014 29.8112C65.0221 29.8117 64.7429 29.8118 64.4637 29.8117C64.2366 29.8116 64.0095 29.8117 63.7824 29.8119C63.7339 29.8119 63.7339 29.8119 63.6843 29.8119C63.6185 29.812 63.5528 29.812 63.487 29.8121C62.8706 29.8125 62.2542 29.8125 61.6378 29.8122C61.0747 29.812 60.5117 29.8125 59.9486 29.8132C59.3696 29.814 58.7907 29.8144 58.2117 29.8142C57.887 29.8142 57.5622 29.8143 57.2375 29.8148C56.961 29.8153 56.6845 29.8154 56.408 29.8149C56.2672 29.8147 56.1263 29.8147 55.9854 29.8151C55.8322 29.8155 55.679 29.8152 55.5258 29.8147C55.482 29.815 55.4381 29.8153 55.393 29.8156C54.6819 29.8105 54.0948 29.5784 53.5816 29.0843C53.0928 28.5419 52.9361 27.9276 52.9619 27.2149C53.0006 26.6003 53.2996 26.0717 53.7434 25.6537C54.1481 25.3148 54.631 25.1024 55.1611 25.0994C55.2424 25.0988 55.2424 25.0988 55.3254 25.0982C55.3852 25.0979 55.445 25.0977 55.5048 25.0975C55.568 25.0971 55.6312 25.0966 55.6944 25.0962C55.8657 25.0951 56.0371 25.0942 56.2084 25.0934C56.3875 25.0925 56.5666 25.0913 56.7458 25.0902C57.0849 25.0882 57.424 25.0863 57.7631 25.0845C58.1492 25.0824 58.5353 25.0802 58.9214 25.0779C59.7156 25.0731 60.5097 25.0687 61.3039 25.0645C61.2378 25.0048 61.1718 24.9452 61.1057 24.8857C61.0689 24.8525 61.0321 24.8193 60.9942 24.7851C60.8592 24.6656 60.72 24.5542 60.5753 24.4467C60.5473 24.4258 60.5192 24.405 60.4903 24.3835C60.1643 24.1453 59.8227 23.9354 59.4721 23.7354C59.4404 23.7173 59.4087 23.6992 59.376 23.6806C58.2894 23.0684 57.0844 22.6988 55.8502 22.531C55.8043 22.5246 55.8043 22.5246 55.7576 22.518C54.8342 22.4069 53.8036 22.424 52.8944 22.6141C52.8527 22.6227 52.811 22.6314 52.7681 22.6404C51.3459 22.9455 49.9868 23.4863 48.8145 24.3584C48.7894 24.377 48.7643 24.3957 48.7384 24.4148C48.3677 24.6918 48.0245 24.994 47.6905 25.3136C47.6562 25.3461 47.6219 25.3786 47.5866 25.4121C47.351 25.6406 47.1445 25.8872 46.9412 26.1443C46.9081 26.1848 46.8751 26.2253 46.8411 26.2671C46.5478 26.6347 46.3022 27.0251 46.0669 27.4318C46.0502 27.4605 46.0335 27.4892 46.0163 27.5187C44.7089 29.7918 44.4972 32.486 45.1504 34.9907C45.5748 36.5336 46.4169 37.9514 47.524 39.1024C47.5483 39.128 47.5727 39.1537 47.5978 39.1801C48.0004 39.6023 48.4227 39.9683 48.8978 40.3068C48.9222 40.3246 48.9465 40.3425 48.9716 40.3608C50.6386 41.5786 52.5878 42.0052 54.6013 42.1757C54.5935 42.2042 54.5857 42.2326 54.5777 42.262C54.4855 42.6124 54.4229 42.965 54.3697 43.3231C54.3652 43.3531 54.3607 43.3832 54.3561 43.4141C54.1856 44.5677 54.1742 45.705 54.1849 46.8689C51.1377 46.7927 48.1406 45.7519 45.7339 43.8786C45.7 43.8524 45.6662 43.8262 45.6314 43.7992C45.5257 43.7162 45.4215 43.6315 45.3175 43.5463C45.2773 43.514 45.2371 43.4816 45.1957 43.4483C44.8602 43.1733 44.5505 42.873 44.2429 42.5677C44.2125 42.5376 44.2125 42.5376 44.1814 42.507C43.9024 42.231 43.6474 41.9424 43.4025 41.6358C43.3579 41.5826 43.3131 41.5294 43.268 41.4765C42.7053 40.8082 42.2428 40.0729 41.8205 39.31C41.7925 39.26 41.7925 39.26 41.7638 39.2089C40.8658 37.5995 40.3464 35.8153 40.1137 33.9939C40.1087 33.9556 40.1038 33.9173 40.0987 33.8778C39.6653 30.3382 40.6728 26.471 42.8561 23.6394C42.9402 23.5322 43.0254 23.426 43.1111 23.3201C43.1457 23.2767 43.1803 23.2334 43.2148 23.19C43.3938 22.9682 43.5805 22.7548 43.7728 22.5445C43.8496 22.4599 43.9242 22.3739 43.9984 22.287C44.3004 21.9415 44.6335 21.6219 44.9845 21.3266C45.0404 21.2777 45.0404 21.2777 45.0974 21.2279C47.4202 19.2095 50.3834 18.0353 53.4356 17.7548C53.4649 17.7518 53.4943 17.7489 53.5245 17.7459C56.8289 17.4194 60.375 18.4306 63.0524 20.3713C63.0867 20.3961 63.0867 20.3961 63.1217 20.4214C63.8167 20.9262 63.8167 20.9262 64.0515 21.1604C64.0517 21.121 64.0517 21.121 64.0518 21.0809C64.0543 20.4398 64.0574 19.7988 64.0613 19.1577C64.0632 18.8477 64.0648 18.5377 64.0659 18.2277C64.0669 17.9572 64.0683 17.6868 64.0702 17.4164C64.0712 17.2734 64.072 17.1304 64.0722 16.9874C64.0726 16.8272 64.0738 16.667 64.0751 16.5068C64.0751 16.4601 64.075 16.4135 64.075 16.3655C64.0832 15.663 64.2935 15.0763 64.7854 14.5657C65.4842 13.9145 66.5402 13.7145 67.4236 14.0999Z" fill="#FDB713"/>
<path d="M55.4531 32.3683C55.5014 32.3682 55.5497 32.3681 55.5995 32.3679C55.7332 32.3677 55.867 32.3675 56.0007 32.3675C56.1451 32.3674 56.2895 32.3671 56.4339 32.3668C56.7495 32.3663 57.0651 32.366 57.3807 32.3658C57.5779 32.3657 57.7751 32.3656 57.9723 32.3654C58.5187 32.3649 59.0651 32.3644 59.6115 32.3643C59.6465 32.3643 59.6814 32.3643 59.7174 32.3643C59.77 32.3642 59.77 32.3642 59.8236 32.3642C59.8946 32.3642 59.9656 32.3642 60.0366 32.3642C60.0718 32.3642 60.107 32.3642 60.1433 32.3642C60.7135 32.364 61.2837 32.3633 61.854 32.3623C62.4399 32.3613 63.0259 32.3608 63.6119 32.3607C63.9407 32.3607 64.2695 32.3605 64.5983 32.3597C64.8783 32.3591 65.1584 32.3589 65.4384 32.3592C65.5811 32.3594 65.7238 32.3593 65.8666 32.3587C66.0217 32.3582 66.1768 32.3585 66.332 32.3589C66.3765 32.3586 66.421 32.3582 66.4669 32.3579C67.1389 32.3622 67.7194 32.5991 68.2057 33.0646C68.752 33.649 68.8947 34.3298 68.8913 35.1086C68.8914 35.155 68.8915 35.2014 68.8917 35.2492C68.892 35.4029 68.8918 35.5567 68.8915 35.7104C68.8916 35.8214 68.8917 35.9323 68.8919 36.0432C68.8923 36.3122 68.8922 36.5811 68.892 36.8501C68.8918 37.0689 68.8918 37.2876 68.8919 37.5064C68.8919 37.5377 68.8919 37.5689 68.8919 37.6011C68.8919 37.6646 68.8919 37.728 68.892 37.7915C68.8922 38.3855 68.8919 38.9796 68.8915 39.5736C68.8911 40.0824 68.8912 40.5911 68.8916 41.0999C68.892 41.6919 68.8922 42.284 68.8919 42.876C68.8919 42.9392 68.8919 43.0025 68.8919 43.0657C68.8918 43.0968 68.8918 43.1279 68.8918 43.1599C68.8917 43.3782 68.8919 43.5965 68.8921 43.8148C68.8923 44.0811 68.8922 44.3475 68.8918 44.6138C68.8916 44.7495 68.8915 44.8851 68.8918 45.0208C68.892 45.1684 68.8917 45.3159 68.8913 45.4635C68.8915 45.5056 68.8917 45.5478 68.8918 45.5913C68.8877 46.3556 68.6902 46.9954 68.1626 47.562C67.6606 48.0349 67.0493 48.2138 66.3713 48.2067C65.6747 48.1673 65.144 47.8627 64.676 47.3673C64.1819 46.7766 64.1224 46.0745 64.1215 45.3383C64.1211 45.2686 64.1207 45.199 64.1202 45.1294C64.1191 44.9417 64.1185 44.754 64.1179 44.5662C64.1173 44.3696 64.1162 44.1729 64.1151 43.9762C64.1132 43.6044 64.1116 43.2326 64.1102 42.8608C64.1086 42.4372 64.1066 42.0136 64.1045 41.5901C64.1002 40.7193 64.0965 39.8485 64.0931 38.9778C64.0198 39.0571 63.9465 39.1366 63.8733 39.216C63.8423 39.2495 63.8423 39.2495 63.8108 39.2836C63.6545 39.4533 63.5065 39.6271 63.3672 39.811C63.3449 39.8404 63.3225 39.8698 63.2995 39.9001C61.7177 42.0153 61.0221 44.65 61.3857 47.2674C61.6107 48.7242 62.1301 50.1357 62.9691 51.3544C62.9939 51.3911 62.9939 51.3911 63.0193 51.4286C63.6222 52.3183 64.3838 53.1362 65.2588 53.7633C65.3238 53.8107 65.3238 53.8107 65.39 53.8592C67.0636 55.0499 69.0582 55.6956 71.1132 55.6867C71.1498 55.6867 71.1864 55.6866 71.2241 55.6865C71.7839 55.6846 72.3272 55.6602 72.8773 55.5492C72.9135 55.5423 72.9498 55.5353 72.9871 55.5282C75.2565 55.0894 77.4634 53.8308 78.8722 51.9774C78.892 51.9515 78.9119 51.9256 78.9324 51.899C80.1531 50.3013 80.7368 48.5112 80.9953 46.5367C81.2667 46.5615 81.5219 46.6097 81.7863 46.6742C82.2958 46.7937 82.8085 46.8793 83.3267 46.952C83.3588 46.9565 83.391 46.9611 83.4241 46.9657C84.1765 47.0678 84.9419 47.0821 85.6996 47.1181C85.349 50.8584 83.6173 54.4171 80.7456 56.8782C80.7193 56.9007 80.6931 56.9232 80.6661 56.9464C79.9772 57.533 79.2397 58.0458 78.4558 58.4979C78.4039 58.528 78.4039 58.528 78.3509 58.5586C75.0022 60.4756 71.016 60.9165 67.2923 59.9537C66.4781 59.7315 65.689 59.4391 64.9258 59.0794C64.8869 59.0611 64.8481 59.0429 64.8081 59.0241C63.0294 58.1799 61.243 56.8937 60.0222 55.3345C59.9523 55.2453 59.8812 55.1584 59.8079 55.072C58.8566 53.9436 58.0904 52.6033 57.5571 51.2298C57.5434 51.1948 57.5296 51.1598 57.5155 51.1237C56.8641 49.4458 56.5487 47.6895 56.5475 45.8929C56.5475 45.8535 56.5475 45.8142 56.5474 45.7736C56.5501 43.4533 57.1086 41.1939 58.184 39.1362C58.2224 39.0624 58.2599 38.9881 58.2973 38.9139C58.4636 38.5886 58.6516 38.2789 58.8476 37.9706C58.8713 37.9333 58.895 37.896 58.9195 37.8575C59.0457 37.6613 59.1769 37.4701 59.3148 37.2818C59.3444 37.2414 59.374 37.201 59.4045 37.1594C59.4379 37.1138 59.4379 37.1138 59.4721 37.0673C59.449 37.0675 59.4259 37.0676 59.4021 37.0678C58.8377 37.0714 58.2733 37.0742 57.7089 37.0759C57.4359 37.0768 57.163 37.0779 56.8901 37.0798C56.6263 37.0816 56.3626 37.0826 56.0989 37.0831C55.9986 37.0834 55.8983 37.084 55.798 37.0849C54.9544 37.0921 54.2698 37.02 53.6281 36.4106C53.1017 35.8542 52.9555 35.2473 52.9663 34.5054C52.9874 33.9118 53.2707 33.3642 53.7026 32.9598C54.252 32.5144 54.7602 32.3678 55.4531 32.3683Z" fill="#009FDA"/>
<path d="M100.062 30.962C99.9362 32.7856 99.4802 34.5462 98.6885 36.1951C98.6713 36.2315 98.654 36.268 98.6362 36.3055C98.0283 37.5824 97.223 38.745 96.2556 39.7774C96.1529 39.8873 96.0533 39.9994 95.9539 40.1121C95.8221 40.2584 95.6862 40.3899 95.5355 40.5164C95.4413 40.5975 95.3512 40.6823 95.2611 40.7679C94.9253 41.085 94.564 41.3621 94.1924 41.6358C94.1556 41.6633 94.1556 41.6633 94.1181 41.6913C91.1045 43.9389 87.1694 44.8844 83.4548 44.366C83.2309 44.3321 83.0081 44.2934 82.7855 44.2524C82.7201 44.2405 82.7201 44.2405 82.6534 44.2284C80.6365 43.8522 78.5507 42.9974 76.9294 41.7348C76.8956 41.7085 76.8618 41.6822 76.8271 41.6552C76.8013 41.6351 76.7755 41.615 76.749 41.5943C76.7489 41.6169 76.7488 41.6395 76.7487 41.6628C76.7462 42.2155 76.7431 42.7682 76.7392 43.3208C76.7373 43.5881 76.7357 43.8554 76.7346 44.1226C76.7335 44.3809 76.7318 44.6391 76.7297 44.8974C76.729 44.9956 76.7285 45.0938 76.7283 45.192C76.7257 46.0524 76.6802 46.7891 76.05 47.4429C76.0197 47.4728 75.9893 47.5026 75.958 47.5334C75.9345 47.5573 75.911 47.5812 75.8868 47.6058C75.4455 48.0203 74.84 48.1777 74.2483 48.171C73.6081 48.149 73.0657 47.8933 72.615 47.4473C72.2733 47.0777 72.0007 46.5733 71.9965 46.0594C71.9961 46.022 71.9956 45.9846 71.9952 45.9461C71.995 45.9052 71.9947 45.8642 71.9945 45.822C71.9941 45.7783 71.9937 45.7346 71.9932 45.6896C71.9919 45.5424 71.9909 45.3952 71.9899 45.248C71.989 45.1422 71.9881 45.0364 71.9872 44.9306C71.9846 44.611 71.9824 44.2915 71.9803 43.972C71.9794 43.8513 71.9786 43.7305 71.9777 43.6097C71.9635 41.6292 71.9559 39.6486 71.954 37.6679C71.9537 37.4271 71.9533 37.1862 71.9527 36.9453C71.9521 36.6503 71.9518 36.3553 71.9518 36.0603C71.9519 35.9093 71.9518 35.7582 71.9513 35.6072C71.9509 35.4424 71.9511 35.2777 71.9513 35.113C71.9511 35.0655 71.9508 35.018 71.9506 34.9691C71.9535 34.2151 72.1516 33.5756 72.6691 33.0153C73.1788 32.5274 73.7772 32.3531 74.4716 32.3599C74.5451 32.3599 74.5451 32.3599 74.6202 32.3598C74.7548 32.3599 74.8894 32.3605 75.024 32.3614C75.1698 32.3622 75.3155 32.3622 75.4613 32.3624C75.7462 32.3628 76.0312 32.3639 76.3161 32.3653C76.5478 32.3664 76.7795 32.3673 77.0112 32.3679C77.0443 32.368 77.0774 32.3681 77.1114 32.3682C77.1786 32.3684 77.2458 32.3686 77.313 32.3688C77.942 32.3706 78.5709 32.3732 79.1999 32.3761C79.7388 32.3786 80.2777 32.3804 80.8166 32.3817C81.4435 32.3832 82.0703 32.3851 82.6971 32.3877C82.764 32.388 82.831 32.3882 82.8979 32.3885C82.9308 32.3887 82.9637 32.3888 82.9977 32.3889C83.2289 32.3898 83.4602 32.3905 83.6914 32.391C83.9735 32.3916 84.2556 32.3927 84.5377 32.3944C84.6814 32.3952 84.8252 32.3958 84.9689 32.3959C85.1251 32.3961 85.2813 32.3971 85.4375 32.3983C85.4824 32.3982 85.5273 32.398 85.5735 32.3979C86.194 32.4048 86.7858 32.6021 87.2439 33.033C87.7203 33.5657 87.9743 34.1662 87.9607 34.8842C87.9048 35.52 87.6695 36.085 87.1984 36.5274C86.7604 36.888 86.251 37.1179 85.6792 37.1204C85.6497 37.1206 85.6201 37.1209 85.5897 37.1211C85.4918 37.1218 85.3939 37.1219 85.2959 37.1221C85.2253 37.1224 85.1548 37.1229 85.0842 37.1233C84.8932 37.1244 84.7023 37.1251 84.5114 37.1256C84.3116 37.1263 84.1118 37.1274 83.912 37.1284C83.534 37.1304 83.1559 37.1319 82.7779 37.1333C82.3474 37.1349 81.9169 37.1369 81.4864 37.139C80.6011 37.1433 79.7158 37.147 78.8305 37.1503C78.8965 37.21 78.9626 37.2696 79.0287 37.3291C79.0655 37.3623 79.1023 37.3955 79.1401 37.4297C79.2752 37.5492 79.4144 37.6606 79.5591 37.7681C79.5871 37.789 79.6151 37.8098 79.6439 37.8312C79.9699 38.0695 80.3122 38.2785 80.6623 38.4794C80.6909 38.4959 80.7195 38.5124 80.7489 38.5295C81.6408 39.0401 82.6242 39.3633 83.6285 39.5696C83.6589 39.5759 83.6893 39.5822 83.7207 39.5886C84.3032 39.7008 84.8837 39.7413 85.4759 39.7383C85.5247 39.7382 85.5247 39.7382 85.5744 39.738C88.2797 39.7262 90.7465 38.5746 92.652 36.6935C92.7556 36.587 92.8503 36.4768 92.9435 36.3612C92.9813 36.3157 93.0191 36.2701 93.057 36.2246C94.0818 34.9812 94.7502 33.558 95.1269 31.9972C95.1499 31.9173 95.1499 31.9173 95.1915 31.8757C95.2512 31.8713 95.3111 31.8697 95.371 31.8692C95.4092 31.8688 95.4475 31.8683 95.487 31.8679C95.5289 31.8676 95.5708 31.8673 95.614 31.867C95.7032 31.8658 95.7925 31.8646 95.8817 31.8634C96.022 31.8617 96.1622 31.8602 96.3025 31.8591C97.0391 31.8527 97.7524 31.809 98.4622 31.598C98.4979 31.5876 98.5337 31.5772 98.5706 31.5665C98.9991 31.4366 99.4197 31.2638 99.8051 31.035C99.9375 30.962 99.9375 30.962 100.062 30.962Z" fill="#ED1C24"/>
<path d="M44.9068 69.7426C44.9479 69.7426 44.989 69.7427 45.0313 69.7427C45.6984 69.7444 46.3397 69.7811 46.9935 69.9243C47.0347 69.9332 47.076 69.9421 47.1184 69.9513C49.5186 70.4868 51.65 72.0186 52.9867 74.0744C53.0736 74.2121 53.1567 74.3519 53.2382 74.4929C53.2554 74.5225 53.2726 74.5521 53.2903 74.5826C54.0717 75.9457 54.4129 77.4662 54.4143 79.0277C54.4143 79.0565 54.4143 79.0854 54.4143 79.1151C54.4108 81.4011 53.6048 83.5108 52.0725 85.2082C52.051 85.2322 52.0295 85.2562 52.0074 85.2809C51.7653 85.5507 51.5199 85.8076 51.2399 86.0388C51.2017 86.0723 51.1635 86.1057 51.1241 86.1402C49.9392 87.1747 48.5258 87.8616 46.9883 88.1881C46.9497 88.1964 46.911 88.2046 46.8712 88.2131C46.2309 88.3422 45.6 88.3804 44.9484 88.3776C44.8923 88.3775 44.8923 88.3775 44.835 88.3774C44.2561 88.3754 43.6913 88.3521 43.1218 88.24C43.0837 88.2327 43.0455 88.2253 43.0062 88.2178C41.3201 87.8846 39.7873 87.1135 38.5335 85.9391C38.4299 85.8427 38.3243 85.7497 38.2172 85.6572C38.0457 85.5054 37.8985 85.3417 37.7514 85.1666C37.7177 85.1283 37.6839 85.09 37.6491 85.0505C35.9955 83.1642 35.3188 80.7678 35.4708 78.2903C35.6384 76.2468 36.432 74.3754 37.8347 72.8731C37.8852 72.8153 37.9355 72.7573 37.9856 72.6992C38.2209 72.4305 38.4767 72.1885 38.7506 71.9594C38.7718 71.9416 38.7931 71.9237 38.815 71.9053C39.217 71.5699 39.6367 71.278 40.0828 71.0041C40.1517 70.9607 40.1517 70.9607 40.222 70.9164C41.0395 70.4225 41.9709 70.1164 42.9007 69.9139C42.9293 69.9076 42.9579 69.9014 42.9873 69.8949C43.6233 69.7654 44.2597 69.7413 44.9068 69.7426ZM40.4158 74.4929C40.3787 74.5277 40.3417 74.5626 40.3034 74.5985C39.1131 75.7463 38.4827 77.3243 38.4493 78.9683C38.4388 80.7452 39.1101 82.2769 40.3326 83.5469C40.3547 83.57 40.3769 83.5931 40.3997 83.6169C41.5396 84.7832 43.1398 85.3956 44.7565 85.4276C46.6454 85.4439 48.2214 84.8018 49.5746 83.5054C49.5978 83.4833 49.6209 83.4612 49.6447 83.4385C50.7912 82.3232 51.3856 80.7488 51.4161 79.1678C51.4278 77.4653 50.8228 75.9017 49.6343 74.6789C49.5788 74.6218 49.5241 74.5639 49.4694 74.506C48.3447 73.3403 46.7383 72.7124 45.1302 72.6656C43.3291 72.6465 41.7175 73.246 40.4158 74.4929Z" fill="#231F20"/>
<path d="M59.9407 69.7461C59.98 69.7458 60.0193 69.7456 60.0599 69.7453C60.1887 69.7445 60.3176 69.7443 60.4465 69.7442C60.5373 69.744 60.628 69.7437 60.7188 69.7434C60.9088 69.7429 61.0988 69.7427 61.2888 69.7428C61.53 69.7428 61.7712 69.7417 62.0124 69.7402C62.1999 69.7393 62.3874 69.7391 62.5749 69.7392C62.6637 69.7391 62.7525 69.7387 62.8413 69.7381C63.5565 69.7333 64.2594 69.7951 64.9313 70.0593C64.9636 70.0716 64.9958 70.0839 65.029 70.0966C66.3301 70.6104 67.3979 71.6991 67.9549 72.9709C68.0485 73.1983 68.1239 73.4238 68.1837 73.6622C68.2024 73.7334 68.2024 73.7334 68.2214 73.8061C68.4028 74.6313 68.394 75.6251 68.1837 76.4449C68.1768 76.4726 68.1699 76.5004 68.1627 76.5289C67.9631 77.3017 67.535 78.233 66.8515 78.6876C66.8979 78.8265 66.9337 78.8562 67.0441 78.9472C68.0089 79.7712 68.4747 80.9443 68.5919 82.1889C68.7049 83.7393 68.3483 85.1724 67.3342 86.3746C66.3473 87.4808 65.1005 88.2204 63.6043 88.3646C63.4716 88.3707 63.3392 88.3716 63.2064 88.372C63.168 88.3722 63.1296 88.3725 63.0901 88.3728C62.964 88.3736 62.8379 88.3741 62.7118 88.3745C62.6467 88.3748 62.6467 88.3748 62.5803 88.375C62.3503 88.3759 62.1204 88.3765 61.8905 88.3769C61.6547 88.3773 61.4189 88.3788 61.1831 88.3804C61.0003 88.3815 60.8175 88.3819 60.6347 88.382C60.5479 88.3822 60.461 88.3827 60.3742 88.3835C59.7327 88.3888 59.1262 88.3516 58.5487 88.0402C58.5212 88.0258 58.4936 88.0115 58.4652 87.9968C58.2437 87.8785 58.0484 87.7406 57.8592 87.5755C57.8187 87.544 57.8187 87.544 57.7774 87.5118C57.1344 86.9947 56.7737 86.2293 56.6608 85.4245C56.6415 85.2257 56.6459 85.0257 56.6461 84.8261C56.646 84.7751 56.6458 84.7241 56.6457 84.6716C56.6454 84.5305 56.6453 84.3894 56.6453 84.2484C56.6452 84.096 56.6449 83.9437 56.6446 83.7913C56.644 83.4584 56.6438 83.1254 56.6436 82.7924C56.6435 82.5843 56.6433 82.3762 56.6431 82.168C56.6426 81.5911 56.6422 81.0141 56.642 80.4372C56.642 80.4003 56.642 80.3634 56.642 80.3254C56.642 80.2884 56.642 80.2514 56.642 80.2133C56.642 80.1384 56.6419 80.0634 56.6419 79.9885C56.6419 79.9513 56.6419 79.9142 56.6419 79.8759C56.6417 79.2742 56.641 78.6725 56.64 78.0709C56.639 77.4523 56.6385 76.8337 56.6385 76.2151C56.6384 75.8682 56.6382 75.5212 56.6374 75.1743C56.6368 74.8787 56.6366 74.5831 56.6369 74.2875C56.6371 74.137 56.6371 73.9864 56.6365 73.8358C56.6316 72.5008 56.8177 71.5628 57.7794 70.5836C58.3654 70.0283 59.1394 69.7453 59.9407 69.7461ZM59.7612 72.829C59.6577 72.9552 59.6442 73.0591 59.6444 73.2166C59.6443 73.2528 59.6442 73.2889 59.6442 73.3262C59.6443 73.3658 59.6445 73.4053 59.6446 73.4461C59.6446 73.4878 59.6446 73.5295 59.6446 73.5726C59.6446 73.7108 59.645 73.849 59.6453 73.9872C59.6454 74.0829 59.6454 74.1786 59.6455 74.2744C59.6456 74.5265 59.646 74.7787 59.6465 75.0308C59.6469 75.288 59.6471 75.5453 59.6473 75.8025C59.6478 76.3073 59.6485 76.8122 59.6494 77.317C60.0851 77.319 60.5209 77.3205 60.9566 77.3213C61.159 77.3218 61.3614 77.3224 61.5638 77.3233C61.7595 77.3242 61.9552 77.3247 62.1509 77.3249C62.2251 77.3251 62.2994 77.3254 62.3737 77.3258C63.1685 77.3305 63.8957 77.2795 64.5202 76.7356C64.5541 76.7104 64.5879 76.6853 64.6228 76.6593C65.0121 76.3278 65.2445 75.8223 65.3112 75.3235C65.3485 74.6447 65.2333 74.0395 64.7787 73.5061C64.2829 72.9555 63.7047 72.7286 62.9798 72.6654C62.7529 72.6548 62.5264 72.6537 62.2993 72.6544C62.2364 72.6543 62.1734 72.6543 62.1105 72.6542C61.9801 72.654 61.8496 72.6542 61.7192 72.6546C61.5525 72.6551 61.3858 72.6548 61.2191 72.6543C61.0897 72.654 60.9604 72.6541 60.8311 72.6543C60.7696 72.6544 60.7081 72.6543 60.6466 72.6541C60.5609 72.6539 60.4752 72.6542 60.3894 72.6547C60.3165 72.6548 60.3165 72.6548 60.2422 72.6549C60.0527 72.6697 59.9079 72.7064 59.7612 72.829ZM59.6494 80.2658C59.6464 80.8904 59.6442 81.515 59.6429 82.1395C59.6422 82.4295 59.6414 82.7195 59.6399 83.0096C59.6386 83.2893 59.6378 83.5691 59.6375 83.8489C59.6373 83.9558 59.6368 84.0626 59.6362 84.1694C59.6352 84.3189 59.6351 84.4683 59.6352 84.6177C59.6347 84.6621 59.6343 84.7064 59.6338 84.752C59.6349 85.0179 59.6565 85.1685 59.8455 85.3655C59.9809 85.437 60.109 85.4336 60.2587 85.4326C60.3064 85.433 60.3064 85.433 60.3552 85.4335C60.4605 85.4342 60.5659 85.4341 60.6713 85.4338C60.745 85.434 60.8188 85.4343 60.8926 85.4345C61.0475 85.4349 61.2025 85.4348 61.3575 85.4344C61.5543 85.4339 61.751 85.4347 61.9478 85.4359C62.1005 85.4367 62.2531 85.4367 62.4058 85.4365C62.4782 85.4364 62.5506 85.4367 62.6231 85.4372C63.504 85.4426 64.2415 85.2545 64.8949 84.6267C65.4612 83.9925 65.6029 83.3169 65.5689 82.4937C65.5273 81.9197 65.2304 81.3636 64.8116 80.9719C64.096 80.3655 63.4038 80.2461 62.4952 80.2537C62.4129 80.2539 62.3305 80.2541 62.2482 80.2542C62.033 80.2547 61.8178 80.2559 61.6026 80.2573C61.3824 80.2586 61.1622 80.2591 60.942 80.2598C60.5111 80.2611 60.0802 80.2632 59.6494 80.2658Z" fill="#231F20"/>
<path d="M109.524 69.7497C109.57 69.7493 109.57 69.7493 109.618 69.7489C110.892 69.7395 110.892 69.7395 111.438 69.8828C111.471 69.8908 111.503 69.8988 111.536 69.9071C112.267 70.0925 112.954 70.3877 113.562 70.838C113.584 70.8542 113.606 70.8703 113.629 70.8869C114.953 71.8538 115.862 73.2232 116.153 74.8407C116.211 75.2489 116.232 75.6549 116.231 76.0669C116.232 76.114 116.232 76.1612 116.232 76.2097C116.232 76.3663 116.232 76.5229 116.232 76.6794C116.232 76.7922 116.232 76.905 116.232 77.0178C116.233 77.2916 116.233 77.5653 116.233 77.839C116.233 78.0616 116.233 78.2841 116.233 78.5066C116.233 79.1384 116.234 79.7702 116.234 80.402C116.234 80.453 116.234 80.453 116.234 80.505C116.234 80.539 116.234 80.573 116.234 80.6081C116.234 81.1601 116.234 81.7122 116.235 82.2642C116.235 82.8318 116.235 83.3995 116.235 83.9672C116.235 84.2855 116.236 84.6039 116.236 84.9223C116.236 85.1931 116.236 85.464 116.236 85.7349C116.236 85.873 116.236 86.011 116.236 86.1491C116.237 86.299 116.237 86.4489 116.236 86.5988C116.237 86.6638 116.237 86.6638 116.237 86.7301C116.235 87.2049 116.145 87.5935 115.814 87.9513C115.424 88.31 115.048 88.3857 114.53 88.3757C114.092 88.3562 113.815 88.1337 113.52 87.8247C113.314 87.5875 113.218 87.3546 113.218 87.0404C113.218 86.9687 113.218 86.9687 113.218 86.8956C113.219 86.8176 113.219 86.8176 113.219 86.738C113.219 86.6814 113.219 86.6248 113.219 86.5683C113.219 86.4172 113.219 86.2661 113.22 86.115C113.221 85.973 113.221 85.8311 113.221 85.6892C113.221 85.2744 113.222 84.8597 113.223 84.445C113.225 83.5182 113.227 82.5913 113.228 81.6364C111.058 81.6364 108.887 81.6364 106.651 81.6364C106.657 83.4629 106.657 83.4629 106.666 85.2894C106.667 85.6435 106.667 85.6435 106.667 85.8094C106.667 85.9249 106.667 86.0403 106.668 86.1557C106.67 86.3033 106.67 86.4509 106.67 86.5985C106.67 86.6777 106.671 86.7569 106.671 86.8361C106.669 87.2684 106.575 87.598 106.273 87.9154C105.904 88.2639 105.575 88.3859 105.067 88.3822C104.629 88.3665 104.288 88.177 103.989 87.8648C103.685 87.5057 103.635 87.1292 103.638 86.6704C103.638 86.6227 103.637 86.575 103.637 86.5259C103.637 86.367 103.637 86.208 103.638 86.0491C103.638 85.9348 103.638 85.8205 103.637 85.7062C103.637 85.4284 103.637 85.1506 103.638 84.8728C103.638 84.5487 103.638 84.2246 103.638 83.9004C103.638 83.3215 103.639 82.7426 103.639 82.1637C103.64 81.6033 103.64 81.0429 103.64 80.4825C103.64 79.8712 103.64 79.2599 103.64 78.6486C103.64 78.5832 103.641 78.5179 103.641 78.4525C103.641 78.4203 103.641 78.3882 103.641 78.3551C103.641 78.1297 103.641 77.9044 103.641 77.6791C103.641 77.4038 103.641 77.1286 103.641 76.8533C103.642 76.7132 103.642 76.573 103.642 76.4329C103.641 75.7239 103.645 75.023 103.825 74.3319C103.834 74.2976 103.843 74.2632 103.852 74.2279C104.096 73.3289 104.555 72.5127 105.194 71.8348C105.218 71.8083 105.243 71.7819 105.269 71.7547C106.375 70.5831 107.88 69.7602 109.524 69.7497ZM107.55 73.6763C106.245 75.0492 106.651 76.8766 106.651 78.6876C108.821 78.6876 110.992 78.6876 113.228 78.6876C113.413 75.8981 113.413 75.8981 112.229 73.5792C110.873 72.3216 108.853 72.4106 107.55 73.6763Z" fill="#231F20"/>
<path d="M87.2935 69.7515C87.335 69.7511 87.335 69.7511 87.3773 69.7508C87.4681 69.7502 87.5588 69.7499 87.6496 69.7497C87.6967 69.7495 87.6967 69.7495 87.7448 69.7494C87.9114 69.7487 88.078 69.7484 88.2446 69.7482C88.3809 69.748 88.5171 69.7474 88.6534 69.7465C90.1059 69.7366 90.1059 69.7366 90.7061 69.8827C90.7355 69.8898 90.765 69.8969 90.7953 69.9041C91.8065 70.1492 92.6947 70.6768 93.4333 71.4005C93.4929 71.4586 93.5537 71.5154 93.6146 71.5721C94.5912 72.5023 95.2386 73.8554 95.2907 75.209C95.3181 76.4896 95.3181 76.4896 95.1606 77.1094C95.1523 77.1425 95.1441 77.1757 95.1355 77.2099C94.8556 78.2997 94.2813 79.2283 93.4615 79.9996C93.3714 80.0986 93.3425 80.1365 93.3288 80.2658C93.4069 80.3561 93.483 80.4327 93.5708 80.5124C94.6055 81.4983 95.2528 82.8926 95.3005 84.3243C95.3036 84.484 95.3039 84.6435 95.3036 84.8032C95.3037 84.8728 95.304 84.9425 95.3042 85.0121C95.3046 85.1565 95.3045 85.3008 95.3041 85.4452C95.3036 85.6291 95.3044 85.813 95.3057 85.997C95.3064 86.1401 95.3064 86.2833 95.3062 86.4265C95.3062 86.4943 95.3064 86.5621 95.3069 86.6299C95.3102 87.1323 95.2686 87.5357 94.9072 87.9154C94.5425 88.2607 94.2115 88.3874 93.7074 88.385C93.3166 88.37 92.9762 88.2206 92.694 87.9496C92.3107 87.5109 92.2761 87.0593 92.2766 86.4954C92.2767 86.406 92.2761 86.3167 92.2754 86.2273C92.2735 85.9735 92.2725 85.7198 92.2722 85.466C92.272 85.3098 92.271 85.1537 92.2695 84.9976C92.2691 84.9389 92.269 84.8801 92.2692 84.8214C92.2725 83.9179 91.9647 83.2035 91.3462 82.5475C90.7186 81.9357 89.9421 81.7173 89.0898 81.7109C89.0552 81.7105 89.0206 81.7101 88.985 81.7097C88.8722 81.7084 88.7593 81.7073 88.6465 81.7063C88.5677 81.7054 88.4889 81.7046 88.4101 81.7037C88.2037 81.7014 87.9974 81.6993 87.7911 81.6973C87.5801 81.6952 87.3691 81.6929 87.1581 81.6906C86.7449 81.6862 86.3317 81.682 85.9185 81.6779C85.9186 81.7058 85.9188 81.7336 85.9189 81.7624C85.9216 82.4418 85.9237 83.1213 85.925 83.8008C85.9256 84.1294 85.9265 84.458 85.9279 84.7866C85.9292 85.0731 85.93 85.3596 85.9303 85.6462C85.9304 85.7978 85.9308 85.9494 85.9317 86.101C85.9327 86.2706 85.9328 86.4402 85.9327 86.6098C85.9332 86.6595 85.9336 86.7093 85.9341 86.7606C85.9322 87.2715 85.8183 87.6141 85.4697 87.9871C85.1444 88.3003 84.7774 88.3911 84.3331 88.384C83.8503 88.3616 83.5356 88.1773 83.2125 87.8247C82.9275 87.4629 82.9088 87.1138 82.9102 86.6669C82.9101 86.6129 82.9099 86.5589 82.9098 86.5032C82.9093 86.3537 82.9094 86.2042 82.9096 86.0547C82.9097 85.8933 82.9093 85.7318 82.909 85.5704C82.9085 85.2542 82.9084 84.938 82.9085 84.6218C82.9086 84.3645 82.9085 84.1073 82.9083 83.85C82.9083 83.8134 82.9083 83.7767 82.9083 83.739C82.9082 83.6645 82.9081 83.5901 82.9081 83.5156C82.9076 82.8174 82.9077 82.1192 82.908 81.4209C82.9082 80.7833 82.9077 80.1457 82.9069 79.5081C82.9061 78.8525 82.9058 78.197 82.906 77.5415C82.906 77.1738 82.9059 76.8061 82.9053 76.4385C82.9048 76.1252 82.9048 75.8119 82.9053 75.4987C82.9055 75.3391 82.9056 75.1795 82.9051 75.02C82.9012 73.7118 83.0525 72.4756 83.9619 71.461C83.9899 71.4276 84.018 71.3942 84.0469 71.3597C84.8468 70.4295 86.0456 69.7586 87.2935 69.7515ZM86.3218 73.304C85.9936 73.692 85.9055 74.0773 85.9091 74.5752C85.9091 74.6202 85.909 74.6652 85.909 74.7116C85.9091 74.8597 85.9097 75.0078 85.9104 75.1559C85.9105 75.2588 85.9107 75.3618 85.9107 75.4647C85.9111 75.7352 85.9119 76.0056 85.9128 76.2761C85.9137 76.5522 85.914 76.8284 85.9145 77.1046C85.9153 77.6461 85.9168 78.1876 85.9185 78.7291C86.3955 78.733 86.8725 78.7359 87.3496 78.7377C87.5711 78.7386 87.7927 78.7398 88.0143 78.7416C88.2286 78.7435 88.4429 78.7445 88.6572 78.7449C88.7385 78.7452 88.8197 78.7458 88.901 78.7467C89.8275 78.7566 90.622 78.579 91.3306 77.94C91.36 77.914 91.3895 77.888 91.4198 77.8612C91.9351 77.3795 92.2674 76.6757 92.3014 75.9735C92.3263 75.1137 92.1404 74.3554 91.5491 73.7089C90.9244 73.0562 90.1754 72.7129 89.2707 72.6869C89.0752 72.6841 88.8798 72.6839 88.6843 72.6853C88.5333 72.6862 88.3824 72.6853 88.2314 72.6842C87.4816 72.6833 86.861 72.7295 86.3218 73.304Z" fill="#231F20"/>
<path d="M75.0462 69.7461C75.0975 69.7458 75.1489 69.7455 75.2018 69.7453C75.3414 69.7446 75.4809 69.7443 75.6204 69.7443C75.7078 69.7442 75.7952 69.744 75.8827 69.7438C76.1884 69.743 76.4942 69.7427 76.8 69.7428C77.0839 69.7428 77.3678 69.7419 77.6517 69.7406C77.8965 69.7395 78.1414 69.7391 78.3862 69.7392C78.532 69.7392 78.6777 69.7389 78.8235 69.7381C78.9861 69.7371 79.1486 69.7375 79.3112 69.738C79.3588 69.7375 79.4065 69.7371 79.4555 69.7366C79.9255 69.7402 80.243 69.8764 80.5815 70.1998C80.9013 70.5432 80.9857 70.8895 80.9773 71.3544C80.9404 71.7794 80.7425 72.1298 80.4205 72.4073C80.0495 72.6767 79.6372 72.7257 79.1897 72.7223C79.1436 72.7224 79.0976 72.7226 79.0502 72.7228C78.9511 72.723 78.8519 72.723 78.7528 72.7227C78.5956 72.7224 78.4384 72.7228 78.2812 72.7234C77.8909 72.7249 77.5007 72.7252 77.1104 72.7251C76.78 72.725 76.4496 72.7256 76.1193 72.7271C75.965 72.7276 75.8107 72.7271 75.6564 72.7265C75.5611 72.7269 75.4658 72.7273 75.3705 72.7278C75.3281 72.7274 75.2857 72.727 75.242 72.7266C74.8153 72.7308 74.4477 72.8495 74.1374 73.1468C73.8233 73.5222 73.7573 73.9205 73.7537 74.3931C73.7533 74.4275 73.7529 74.462 73.7525 74.4975C73.7512 74.6106 73.7501 74.7236 73.7491 74.8366C73.7482 74.9154 73.7474 74.9941 73.7465 75.0728C73.7442 75.2794 73.7421 75.4859 73.7401 75.6924C73.738 75.9035 73.7357 76.1145 73.7334 76.3255C73.7289 76.7391 73.7247 77.1527 73.7206 77.5662C73.7651 77.5661 73.7651 77.5661 73.8104 77.566C74.5325 77.5642 75.2546 77.5628 75.9767 77.5619C76.3259 77.5615 76.6751 77.5609 77.0243 77.56C77.3288 77.5591 77.6333 77.5586 77.9379 77.5584C78.099 77.5583 78.2601 77.5581 78.4212 77.5574C78.5731 77.5569 78.7251 77.5567 78.877 77.5568C78.9587 77.5568 79.0404 77.5564 79.1221 77.5559C79.665 77.5571 80.1469 77.6143 80.5619 77.9885C80.8866 78.3443 80.9865 78.7324 80.9769 79.2042C80.94 79.6407 80.7434 79.9327 80.4232 80.2243C80.1648 80.4236 79.9079 80.5256 79.578 80.525C79.5003 80.5252 79.5003 80.5252 79.4209 80.5254C79.364 80.5251 79.3072 80.5248 79.2503 80.5245C79.1899 80.5244 79.1296 80.5244 79.0693 80.5245C78.9059 80.5245 78.7426 80.524 78.5793 80.5234C78.4085 80.5229 78.2376 80.5229 78.0668 80.5228C77.7434 80.5225 77.4201 80.5218 77.0968 80.521C76.7286 80.5201 76.3604 80.5196 75.9922 80.5192C75.235 80.5183 74.4778 80.5169 73.7206 80.515C73.7232 80.9721 73.7264 81.4292 73.7304 81.8863C73.7323 82.0986 73.7339 82.3109 73.7351 82.5232C73.7361 82.7284 73.7378 82.9336 73.7399 83.1388C73.7406 83.2167 73.7411 83.2947 73.7413 83.3726C73.7415 84.2243 73.7415 84.2243 74.1369 84.959C74.4905 85.3047 74.9325 85.3996 75.4128 85.395C75.4819 85.3953 75.4819 85.3953 75.5525 85.3957C75.6517 85.3961 75.751 85.3961 75.8503 85.3957C76.0076 85.3952 76.165 85.3957 76.3224 85.3964C76.628 85.3976 76.9337 85.3978 77.2393 85.3977C77.6551 85.3976 78.0708 85.3983 78.4865 85.4C78.641 85.4004 78.7956 85.4 78.9501 85.3996C79.0454 85.3999 79.1407 85.4002 79.236 85.4005C79.2786 85.4002 79.3211 85.3999 79.365 85.3995C79.8409 85.4029 80.2495 85.5297 80.5888 85.8728C80.8879 86.2277 80.9965 86.5985 80.9799 87.0596C80.9327 87.4937 80.7434 87.7819 80.4232 88.0739C80.072 88.3493 79.7328 88.377 79.2985 88.376C79.224 88.3763 79.224 88.3763 79.1479 88.3767C79.012 88.3771 78.8762 88.3772 78.7403 88.3771C78.6264 88.3771 78.5124 88.3773 78.3984 88.3775C78.129 88.378 77.8595 88.378 77.59 88.3777C77.3137 88.3775 77.0374 88.378 76.7611 88.3789C76.5226 88.3796 76.2842 88.3799 76.0457 88.3797C75.9039 88.3796 75.762 88.3797 75.6201 88.3803C74.3726 88.3844 73.2795 88.1995 72.3052 87.3678C72.272 87.3402 72.2387 87.3126 72.2045 87.2841C71.3199 86.5234 70.82 85.4952 70.7232 84.336C70.7176 84.1889 70.7174 84.0419 70.7176 83.8947C70.7175 83.8518 70.7174 83.8088 70.7173 83.7646C70.7171 83.6214 70.7171 83.4782 70.7171 83.3351C70.717 83.2321 70.7169 83.1291 70.7167 83.0261C70.7164 82.7759 70.7163 82.5256 70.7162 82.2753C70.7162 82.0717 70.7161 81.8681 70.716 81.6645C70.7156 81.0861 70.7154 80.5077 70.7155 79.9293C70.7155 79.8981 70.7155 79.867 70.7155 79.8349C70.7155 79.8037 70.7155 79.7726 70.7155 79.7404C70.7155 79.2357 70.7151 78.731 70.7145 78.2262C70.7139 77.7069 70.7136 77.1876 70.7137 76.6683C70.7137 76.3772 70.7136 76.086 70.7131 75.7949C70.7127 75.5209 70.7127 75.2469 70.713 74.9729C70.7131 74.8727 70.713 74.7725 70.7127 74.6723C70.7095 73.3241 70.9366 72.2072 71.8472 71.1703C71.8771 71.1363 71.9069 71.1023 71.9377 71.0672C72.7515 70.205 73.8673 69.7452 75.0462 69.7461Z" fill="#231F20"/>
<path d="M26.4642 69.74C26.4971 69.7403 26.53 69.7406 26.5638 69.7409C26.8233 69.7482 27.0349 69.7901 27.2604 69.9243C27.305 69.9507 27.305 69.9507 27.3505 69.9777C27.6864 70.2029 27.8758 70.5334 27.9682 70.9211C27.9856 71.1034 27.985 71.2847 27.9839 71.4678C27.9841 71.5221 27.9843 71.5764 27.9845 71.6323C27.985 71.7822 27.9847 71.9321 27.9843 72.082C27.9841 72.2439 27.9845 72.4059 27.9849 72.5679C27.9854 72.8483 27.9855 73.1288 27.9853 73.4092C27.985 73.8151 27.9855 74.221 27.9862 74.627C27.9874 75.2862 27.9882 75.9454 27.9885 76.6047C27.9885 76.6638 27.9885 76.6638 27.9886 76.7242C27.9887 77.004 27.9888 77.2838 27.989 77.5636C27.9891 77.8832 27.9893 78.2028 27.9894 78.5223C27.9895 78.5617 27.9895 78.6011 27.9895 78.6416C27.9899 79.2984 27.9907 79.9552 27.9919 80.612C27.9926 81.0168 27.9929 81.4216 27.9926 81.8264C27.9924 82.1038 27.9927 82.3813 27.9933 82.6587C27.9936 82.8186 27.9938 82.9786 27.9934 83.1386C27.9929 83.3122 27.9934 83.4858 27.994 83.6594C27.9937 83.7096 27.9935 83.7599 27.9932 83.8117C27.9965 84.3107 28.1007 84.6719 28.4552 85.0305C28.7825 85.3292 29.1299 85.3803 29.5594 85.3808C29.5977 85.381 29.636 85.3813 29.6755 85.3815C29.7587 85.3819 29.8418 85.3823 29.9249 85.3826C30.0567 85.383 30.1885 85.3839 30.3203 85.3848C30.6951 85.3873 31.0698 85.3896 31.4445 85.391C31.674 85.3918 31.9034 85.3933 32.1328 85.3951C32.2199 85.3957 32.3071 85.3961 32.3942 85.3962C32.5166 85.3964 32.6389 85.3974 32.7612 85.3985C32.7968 85.3984 32.8323 85.3983 32.8689 85.3981C33.3378 85.4045 33.6982 85.5604 34.0463 85.8727C34.3429 86.207 34.4466 86.5974 34.4325 87.0377C34.3889 87.5007 34.1769 87.8154 33.8225 88.1102C33.5271 88.3458 33.1869 88.3832 32.8209 88.3814C32.7582 88.3818 32.7582 88.3818 32.6943 88.3822C32.5571 88.383 32.4199 88.3828 32.2827 88.3826C32.1863 88.3828 32.0898 88.383 31.9934 88.3833C31.7914 88.3836 31.5894 88.3835 31.3874 88.3831C31.1307 88.3827 30.8741 88.3835 30.6175 88.3847C30.4182 88.3855 30.2189 88.3855 30.0197 88.3852C29.9252 88.3852 29.8307 88.3855 29.7362 88.386C28.8806 88.39 28.1112 88.302 27.3437 87.9077C27.2997 87.8855 27.2558 87.8633 27.2105 87.8404C26.8709 87.6558 26.5883 87.4175 26.3029 87.1602C26.2566 87.1192 26.2566 87.1192 26.2094 87.0774C25.4897 86.4042 25.001 85.373 24.9667 84.3868C24.965 84.2427 24.9646 84.0987 24.9646 83.9546C24.9645 83.8987 24.9643 83.8427 24.9641 83.7868C24.9637 83.6335 24.9636 83.4802 24.9635 83.3269C24.9633 83.1614 24.9629 82.9959 24.9625 82.8303C24.9617 82.4309 24.9613 82.0315 24.9609 81.6321C24.9607 81.4439 24.9605 81.2556 24.9603 81.0674C24.9596 80.4415 24.959 79.8156 24.9587 79.1897C24.9586 79.0274 24.9585 78.8651 24.9584 78.7028C24.9584 78.6625 24.9584 78.6222 24.9584 78.5806C24.958 77.9271 24.957 77.2736 24.9556 76.6201C24.9542 75.9487 24.9535 75.2773 24.9534 74.606C24.9533 74.2292 24.9529 73.8524 24.9518 73.4756C24.9509 73.1548 24.9506 72.834 24.951 72.5132C24.9512 72.3496 24.9511 72.186 24.9503 72.0224C24.9496 71.8725 24.9496 71.7225 24.9503 71.5725C24.9504 71.4931 24.9497 71.4136 24.949 71.3341C24.9524 70.8799 25.059 70.4628 25.387 70.1319C25.7134 69.8661 26.0436 69.7343 26.4642 69.74Z" fill="#231F20"/>
<path d="M99.8714 69.8721C99.8968 69.8893 99.9221 69.9065 99.9482 69.9243C99.977 69.9424 100.006 69.9605 100.035 69.9791C100.344 70.1892 100.567 70.472 100.656 70.838C100.675 71.0586 100.673 71.2787 100.672 71.4998C100.672 71.5677 100.672 71.6356 100.673 71.7034C100.673 71.8895 100.673 72.0755 100.673 72.2616C100.673 72.4624 100.673 72.6632 100.674 72.864C100.674 73.2572 100.674 73.6505 100.674 74.0437C100.674 74.3633 100.674 74.6829 100.674 75.0026C100.674 75.0481 100.674 75.0936 100.674 75.1404C100.674 75.2328 100.674 75.3253 100.675 75.4177C100.675 76.2843 100.675 77.1509 100.674 78.0176C100.674 78.8104 100.675 79.6032 100.676 80.396C100.677 81.2101 100.677 82.0243 100.677 82.8384C100.677 83.2955 100.677 83.7525 100.677 84.2095C100.678 84.5986 100.678 84.9877 100.677 85.3767C100.677 85.5752 100.677 85.7737 100.677 85.9721C100.678 86.1539 100.678 86.3356 100.677 86.5174C100.677 86.5831 100.677 86.6488 100.677 86.7144C100.68 87.2042 100.619 87.5492 100.278 87.9139C99.9159 88.2626 99.5901 88.386 99.0889 88.3821C98.6642 88.3676 98.3371 88.204 98.0332 87.9078C97.7559 87.5625 97.6534 87.2388 97.6531 86.7971C97.6531 86.7699 97.653 86.7427 97.6529 86.7146C97.6527 86.6234 97.6528 86.5322 97.6529 86.4411C97.6529 86.375 97.6528 86.3089 97.6526 86.2428C97.6524 86.0613 97.6524 85.8798 97.6524 85.6983C97.6525 85.5026 97.6522 85.3068 97.652 85.111C97.6517 84.7275 97.6516 84.344 97.6515 83.9604C97.6515 83.6487 97.6514 83.3369 97.6513 83.0252C97.6509 82.1414 97.6507 81.2576 97.6508 80.3739C97.6508 80.3262 97.6508 80.2786 97.6508 80.2295C97.6508 80.1818 97.6508 80.1341 97.6508 80.0849C97.6508 79.3117 97.6504 78.5385 97.6498 77.7653C97.6492 76.9714 97.6489 76.1776 97.649 75.3837C97.649 74.938 97.6489 74.4923 97.6484 74.0465C97.648 73.6671 97.648 73.2876 97.6482 72.9081C97.6484 72.7145 97.6484 72.5209 97.648 72.3273C97.6477 72.15 97.6477 71.9727 97.6481 71.7954C97.6482 71.7313 97.6481 71.6673 97.6479 71.6032C97.646 71.0459 97.688 70.593 98.0766 70.1623C98.5234 69.737 99.3037 69.5506 99.8714 69.8721Z" fill="#231F20"/>
<path d="M30.9469 93.0457C31.0827 93.1557 31.212 93.2713 31.3403 93.39C31.3845 93.4299 31.3845 93.4299 31.4295 93.4706C31.5571 93.5991 31.6057 93.6931 31.6161 93.8754C31.6063 93.9938 31.59 94.0546 31.5328 94.161C31.3574 94.2568 31.2013 94.2685 31.0072 94.2207C30.9149 94.152 30.8464 94.0751 30.7703 93.989C30.1746 93.3655 29.278 93.0378 28.4276 93.0139C27.441 92.9988 26.5443 93.3571 25.8272 94.0311C25.4567 94.3986 25.197 94.8149 25.0124 95.3005C24.9853 95.3697 24.9853 95.3697 24.9577 95.4403C24.6841 96.2762 24.7895 97.2374 25.1711 98.0183C25.32 98.3073 25.4921 98.5679 25.7285 98.7937C25.8033 98.8723 25.8033 98.8723 25.8033 98.9553C25.8283 98.9668 25.8534 98.9782 25.8791 98.9901C25.9699 99.0384 25.9699 99.0384 26.0896 99.1474C26.8168 99.784 27.7475 99.9628 28.6856 99.919C29.3678 99.8691 30.008 99.5734 30.5493 99.163C30.5768 99.1424 30.6042 99.1218 30.6325 99.1005C31.2269 98.6199 31.5639 97.8916 31.7566 97.1694C31.7842 97.0725 31.812 96.9756 31.8398 96.8787C31.7756 96.8791 31.7756 96.8791 31.7101 96.8796C31.3064 96.8821 30.9027 96.884 30.499 96.8852C30.2915 96.8858 30.084 96.8867 29.8765 96.8881C29.6762 96.8895 29.4759 96.8902 29.2756 96.8905C29.1992 96.8908 29.1228 96.8912 29.0464 96.8919C28.9394 96.8928 28.8323 96.8929 28.7253 96.8929C28.6937 96.8933 28.6622 96.8938 28.6296 96.8942C28.3918 96.8928 28.2595 96.8371 28.093 96.6711C28.0721 96.5449 28.0741 96.4236 28.093 96.2973C28.1712 96.1934 28.2279 96.1469 28.3428 96.0896C28.4688 96.0851 28.5937 96.0831 28.7197 96.0829C28.7587 96.0827 28.7978 96.0825 28.8381 96.0823C28.9677 96.0817 29.0974 96.0814 29.227 96.0812C29.3169 96.0809 29.4068 96.0807 29.4968 96.0805C29.6855 96.08 29.8742 96.0798 30.063 96.0796C30.3049 96.0794 30.5468 96.0784 30.7887 96.0772C30.9745 96.0764 31.1603 96.0762 31.3462 96.0762C31.4354 96.076 31.5245 96.0757 31.6137 96.0752C31.7385 96.0745 31.8633 96.0745 31.988 96.0748C32.0249 96.0744 32.0618 96.074 32.0998 96.0736C32.2952 96.075 32.4339 96.0819 32.5892 96.2142C32.6824 96.4625 32.6788 96.6779 32.649 96.9384C32.645 96.9746 32.641 97.0108 32.6369 97.0481C32.54 97.8291 32.2407 98.5688 31.7149 99.163C31.6873 99.196 31.6597 99.229 31.6312 99.2629C30.9039 100.107 29.8761 100.647 28.7591 100.741C27.556 100.806 26.4395 100.549 25.5119 99.7444C25.4782 99.7168 25.4445 99.6892 25.4098 99.6607C24.6407 99.0093 24.1407 98.0849 24.0132 97.0864C24.0011 96.8889 23.9993 96.6923 24.0002 96.4945C24.0004 96.4413 24.0006 96.388 24.0008 96.333C24.0148 95.203 24.4773 94.2356 25.2517 93.4238C26.7472 91.9899 29.282 91.7463 30.9469 93.0457Z" fill="#231F20"/>
<path d="M45.2198 92.2106C45.2643 92.2105 45.3088 92.2103 45.3546 92.2102C45.4483 92.2101 45.5419 92.2104 45.6356 92.2109C45.7776 92.2115 45.9195 92.2109 46.0615 92.2101C46.153 92.2102 46.2445 92.2103 46.336 92.2106C46.3987 92.2102 46.3987 92.2102 46.4626 92.2098C47.1146 92.2161 47.636 92.4336 48.1083 92.8795C48.5648 93.3493 48.7631 93.891 48.7567 94.5415C48.7337 95.279 48.349 95.8433 47.8261 96.3388C47.8579 96.365 47.8896 96.3913 47.9223 96.4183C48.4121 96.8363 48.8166 97.3531 48.8758 98.017C48.9033 98.4756 48.8875 98.9023 48.7004 99.3291C48.6858 99.3625 48.6712 99.3958 48.6562 99.4302C48.3704 100.001 47.8221 100.447 47.2222 100.652C46.791 100.768 46.3595 100.762 45.9159 100.76C45.781 100.759 45.6462 100.761 45.5112 100.762C45.4241 100.762 45.337 100.762 45.2499 100.762C45.2103 100.762 45.1706 100.763 45.1298 100.763C44.715 100.759 44.366 100.645 44.0647 100.356C43.6508 99.9252 43.6568 99.4526 43.657 98.8828C43.6569 98.825 43.6567 98.7672 43.6566 98.7093C43.6562 98.5529 43.6561 98.3965 43.6561 98.24C43.6561 98.1421 43.656 98.0441 43.6559 97.9462C43.6555 97.6039 43.6553 97.2617 43.6553 96.9194C43.6554 96.6013 43.6549 96.2833 43.6543 95.9652C43.6537 95.6913 43.6535 95.4175 43.6535 95.1436C43.6535 94.9804 43.6534 94.8172 43.653 94.6539C43.6526 94.5003 43.6526 94.3466 43.6529 94.1929C43.6529 94.1103 43.6526 94.0277 43.6522 93.9451C43.6541 93.4187 43.6925 92.9448 44.0826 92.5563C44.4299 92.2674 44.7766 92.2079 45.2198 92.2106ZM44.5373 93.2654C44.4686 93.4384 44.4438 93.5824 44.4446 93.7678C44.4446 93.8169 44.4446 93.8659 44.4446 93.9165C44.445 93.9688 44.4455 94.0211 44.4459 94.075C44.446 94.129 44.4461 94.1831 44.4463 94.2387C44.4466 94.3817 44.4474 94.5247 44.4483 94.6676C44.4492 94.8138 44.4495 94.96 44.45 95.1061C44.4509 95.3924 44.4523 95.6787 44.454 95.965C44.7524 95.9693 45.0508 95.9722 45.3492 95.9741C45.4505 95.975 45.5518 95.9761 45.6531 95.9776C46.6472 96.0122 46.6472 96.0122 47.4931 95.5497C47.5192 95.5253 47.5453 95.501 47.5721 95.4759C47.8514 95.1885 47.9578 94.8691 47.9745 94.4725C47.9597 94.0377 47.7985 93.6979 47.4978 93.3861C47.1135 93.0403 46.6841 92.9691 46.1804 92.9663C46.1473 92.966 46.1142 92.9658 46.0802 92.9655C46.0106 92.9652 45.9411 92.9649 45.8715 92.9647C45.7657 92.9643 45.6599 92.963 45.5542 92.9617C45.4862 92.9615 45.4183 92.9612 45.3504 92.9611C45.3191 92.9606 45.2879 92.96 45.2556 92.9595C44.9708 92.9607 44.7191 93.0303 44.5373 93.2654ZM44.454 96.7126C44.4511 97.065 44.4489 97.4174 44.4476 97.7697C44.4469 97.9334 44.446 98.097 44.4446 98.2607C44.4432 98.4187 44.4425 98.5768 44.4422 98.7349C44.442 98.795 44.4415 98.8552 44.4408 98.9153C44.4303 99.4144 44.4303 99.4144 44.6622 99.8431C44.7884 99.9454 44.896 99.9575 45.053 99.9595C45.0899 99.96 45.1268 99.9605 45.1647 99.9611C45.2045 99.9614 45.2443 99.9617 45.2854 99.962C45.3472 99.9625 45.3472 99.9625 45.4103 99.963C45.4978 99.9636 45.5853 99.9641 45.6728 99.9644C45.8054 99.9651 45.9379 99.9669 46.0705 99.9688C46.1557 99.9692 46.2409 99.9695 46.3261 99.9698C46.3848 99.9709 46.3848 99.9709 46.4447 99.972C46.9054 99.9705 47.2852 99.8122 47.618 99.4953C47.963 99.1348 48.1045 98.7453 48.0983 98.2488C48.0771 97.8116 47.8962 97.4882 47.5959 97.1776C47.133 96.7669 46.6463 96.7057 46.0518 96.7085C46.006 96.7086 45.9602 96.7087 45.913 96.7087C45.7675 96.709 45.6221 96.7095 45.4766 96.71C45.3776 96.7102 45.2787 96.7104 45.1797 96.7106C44.9378 96.711 44.6959 96.7117 44.454 96.7126Z" fill="#231F20"/>
<path d="M38.0741 92.2141C38.1451 92.2145 38.1451 92.2145 38.2176 92.2149C39.4291 92.2322 40.4499 92.733 41.2954 93.5885C41.4849 93.7853 41.65 93.9851 41.7897 94.2207C41.8173 94.2671 41.845 94.3135 41.8736 94.3613C42.4445 95.3541 42.5576 96.5188 42.2892 97.6263C41.9978 98.6412 41.3388 99.4987 40.4575 100.077C40.4195 100.102 40.3816 100.127 40.3425 100.153C39.3894 100.747 38.1743 100.889 37.085 100.657C35.9675 100.395 35.0058 99.7191 34.3777 98.7594C33.7788 97.7596 33.5821 96.5989 33.8365 95.4556C34.02 94.7977 34.3078 94.2444 34.754 93.7223C34.7786 93.6917 34.8033 93.661 34.8287 93.6295C35.6255 92.6735 36.8496 92.2077 38.0741 92.2141ZM35.545 94.0545C35.5177 94.0787 35.4905 94.1029 35.4624 94.1279C34.9214 94.618 34.5778 95.4231 34.541 96.143C34.5037 97.1169 34.7161 98.0203 35.3941 98.7581C35.471 98.839 35.5493 98.918 35.6283 98.9969C35.6587 99.0277 35.6891 99.0586 35.7205 99.0903C36.3428 99.6822 37.2043 99.9701 38.0533 99.9651C38.0953 99.9649 38.1374 99.9646 38.1807 99.9644C39.1625 99.9486 40.0033 99.5421 40.6914 98.8498C41.3534 98.1522 41.6462 97.2648 41.6321 96.3174C41.5992 95.3679 41.1572 94.5849 40.4991 93.9299C40.4708 93.9013 40.4425 93.8726 40.4134 93.843C39.0256 92.533 36.8305 92.7875 35.545 94.0545Z" fill="#231F20"/>
<path d="M93.6099 92.2141C93.6571 92.2143 93.7044 92.2146 93.7532 92.2148C94.7524 92.2286 95.698 92.5623 96.4512 93.2239C96.4848 93.2515 96.5184 93.279 96.553 93.3074C97.3599 93.9901 97.8204 94.9249 97.9499 95.965C97.9614 96.1348 97.9638 96.3036 97.9629 96.4738C97.9627 96.5191 97.9624 96.5644 97.9622 96.611C97.9455 97.7278 97.5235 98.6655 96.7426 99.4537C96.7128 99.4865 96.6829 99.5193 96.6522 99.553C95.9796 100.274 94.96 100.694 93.9821 100.746C92.6351 100.79 91.5603 100.427 90.557 99.523C89.853 98.8552 89.3488 97.8792 89.2931 96.9014C89.2923 96.8665 89.2915 96.8316 89.2906 96.7957C89.2885 96.7479 89.2865 96.7002 89.2843 96.651C89.2544 95.4435 89.6573 94.3833 90.4923 93.5013C91.3257 92.6489 92.417 92.208 93.6099 92.2141ZM91.0287 94.0935C90.5051 94.635 90.1138 95.4128 90.0816 96.1727C90.0795 96.2173 90.0773 96.2619 90.0751 96.3078C90.05 97.3081 90.3793 98.1644 91.0665 98.9014C91.7068 99.561 92.5689 99.9465 93.4888 99.9643C94.5512 99.9713 95.422 99.6505 96.191 98.8982C96.9133 98.1531 97.1842 97.2723 97.1701 96.2548C97.1455 95.4918 96.846 94.7816 96.3263 94.2207C96.2895 94.1801 96.2527 94.1396 96.2147 94.0979C95.5511 93.3895 94.7069 93.0248 93.7369 92.9778C92.6754 92.9454 91.785 93.3752 91.0287 94.0935Z" fill="#231F20"/>
<path d="M78.5041 93.0644C79.4199 93.7909 80.0411 94.7413 80.1838 95.9105C80.3017 97.0144 80.0768 98.1153 79.3912 99.0089C78.7112 99.8407 77.9023 100.415 76.843 100.658C76.7987 100.668 76.7545 100.679 76.709 100.689C75.6077 100.896 74.4145 100.679 73.4708 100.077C73.3103 99.9601 73.1611 99.8346 73.0129 99.7029C72.98 99.6756 72.9471 99.6482 72.9132 99.62C72.1661 98.989 71.6464 98.02 71.5558 97.0448C71.4851 95.6117 71.7902 94.5594 72.7509 93.476C74.2366 91.9109 76.8071 91.8043 78.5041 93.0644ZM73.2211 94.1376C72.5179 94.9385 72.2852 95.8368 72.3377 96.8836C72.3904 97.5773 72.7092 98.239 73.1794 98.7477C73.2132 98.7851 73.2469 98.8226 73.2817 98.8612C73.8962 99.5111 74.7234 99.925 75.6238 99.9667C76.7138 99.9932 77.6101 99.6823 78.4082 98.9339C78.921 98.4049 79.2633 97.7754 79.3824 97.0448C79.3878 97.0148 79.3932 96.9848 79.3987 96.9538C79.536 96.0614 79.2864 95.1513 78.758 94.4283C78.1451 93.6446 77.3345 93.1561 76.3497 92.9971C75.1652 92.8619 74.0425 93.2788 73.2211 94.1376Z" fill="#231F20"/>
<path d="M110.296 92.7359C110.358 92.787 110.42 92.8389 110.481 92.8916C110.512 92.9184 110.544 92.9453 110.576 92.9729C111.069 93.4267 111.341 94.0564 111.397 94.719C111.403 94.9059 111.403 95.0926 111.403 95.2796C111.404 95.3358 111.404 95.3919 111.404 95.4481C111.405 95.5998 111.405 95.7515 111.405 95.9032C111.405 95.9981 111.405 96.093 111.406 96.1878C111.406 96.485 111.407 96.7821 111.407 97.0792C111.407 97.4217 111.408 97.7643 111.409 98.1068C111.41 98.372 111.41 98.6373 111.41 98.9025C111.41 99.0608 111.41 99.219 111.411 99.3772C111.412 99.5259 111.412 99.6746 111.412 99.8232C111.412 99.9037 111.412 99.9842 111.413 100.065C111.412 100.137 111.412 100.137 111.412 100.21C111.412 100.252 111.412 100.293 111.412 100.336C111.394 100.472 111.353 100.549 111.272 100.658C111.118 100.761 111.038 100.754 110.856 100.741C110.715 100.692 110.692 100.662 110.606 100.534C110.598 100.432 110.595 100.335 110.596 100.233C110.596 100.203 110.596 100.172 110.596 100.14C110.596 100.04 110.597 99.94 110.598 99.84C110.598 99.7783 110.598 99.7165 110.598 99.6548C110.598 99.426 110.599 99.1971 110.601 98.9683C110.602 98.4569 110.604 97.9455 110.606 97.4186C109.301 97.4186 107.995 97.4186 106.651 97.4186C106.657 98.4363 106.657 98.4363 106.666 99.4539C106.667 99.6509 106.667 99.6509 106.667 99.7431C106.667 99.8075 106.668 99.8718 106.668 99.9361C106.67 100.034 106.67 100.131 106.67 100.229C106.67 100.257 106.671 100.286 106.672 100.315C106.67 100.455 106.66 100.522 106.572 100.633C106.41 100.756 106.311 100.745 106.115 100.721C106.026 100.7 106.026 100.7 105.943 100.622C105.871 100.469 105.855 100.351 105.854 100.183C105.854 100.136 105.854 100.089 105.854 100.041C105.854 99.9895 105.854 99.938 105.854 99.8849C105.854 99.8306 105.853 99.7764 105.853 99.7205C105.853 99.5715 105.853 99.4225 105.853 99.2735C105.853 99.1803 105.853 99.087 105.853 98.9937C105.852 98.6678 105.852 98.3419 105.852 98.016C105.852 97.7132 105.852 97.4104 105.851 97.1076C105.85 96.847 105.85 96.5865 105.85 96.3259C105.85 96.1706 105.85 96.0152 105.85 95.8599C105.849 95.7134 105.849 95.5669 105.85 95.4204C105.85 95.3418 105.849 95.2633 105.849 95.1848C105.852 94.3465 106.051 93.6507 106.634 93.0321C107.607 92.0711 109.18 91.906 110.296 92.7359ZM107.161 93.6248C106.411 94.4217 106.651 95.6498 106.651 96.6295C107.956 96.6295 109.261 96.6295 110.606 96.6295C110.716 94.9101 110.716 94.9101 110.003 93.5297C109.147 92.73 107.977 92.8555 107.161 93.6248Z" fill="#231F20"/>
<path d="M60.4989 92.2109C60.6039 92.2115 60.7089 92.2109 60.814 92.2101C61.6429 92.209 62.304 92.4315 62.9044 93.0229C63.4274 93.5833 63.6289 94.2284 63.6158 94.9851C63.5841 95.7309 63.2461 96.3103 62.706 96.8124C62.6178 96.8911 62.5289 96.9686 62.4386 97.0449C62.4798 97.0806 62.5211 97.1163 62.5635 97.1531C63.1194 97.6452 63.4984 98.1582 63.6043 98.9138C63.6113 99.0346 63.6131 99.1552 63.6142 99.2761C63.6146 99.3103 63.6149 99.3445 63.6152 99.3797C63.6158 99.4516 63.6163 99.5236 63.6166 99.5955C63.6171 99.6689 63.6179 99.7424 63.6191 99.8158C63.6209 99.9223 63.6216 100.029 63.622 100.135C63.6231 100.184 63.6231 100.184 63.6242 100.234C63.6236 100.391 63.6108 100.482 63.5251 100.616C63.412 100.725 63.3753 100.739 63.2166 100.754C63.0386 100.739 62.9778 100.701 62.8549 100.575C62.8046 100.424 62.8069 100.286 62.806 100.129C62.805 100.063 62.804 99.9979 62.803 99.9324C62.8015 99.8299 62.8003 99.7274 62.7997 99.6249C62.7956 98.9954 62.7155 98.4832 62.2721 98.0001C61.8287 97.6013 61.3799 97.477 60.7924 97.4764C60.7404 97.4757 60.6884 97.475 60.6348 97.4743C60.4981 97.4727 60.3614 97.4717 60.2248 97.4711C60.0846 97.4702 59.9445 97.4685 59.8044 97.4668C59.5307 97.4638 59.257 97.4616 58.9833 97.4602C58.9835 97.4972 58.9838 97.5342 58.9841 97.5723C58.9866 97.9212 58.9885 98.2702 58.9897 98.6191C58.9904 98.7985 58.9913 98.9779 58.9927 99.1572C58.994 99.3304 58.9948 99.5035 58.9951 99.6767C58.9953 99.7427 58.9958 99.8087 58.9965 99.8748C58.9974 99.9673 58.9975 100.06 58.9974 100.152C58.9977 100.205 58.998 100.258 58.9983 100.312C58.982 100.463 58.95 100.539 58.8584 100.658C58.7028 100.762 58.6263 100.76 58.4421 100.741C58.3274 100.667 58.2536 100.614 58.1923 100.492C58.188 100.406 58.1865 100.32 58.1861 100.233C58.1859 100.193 58.1859 100.193 58.1857 100.152C58.1852 100.062 58.1851 99.9715 58.1849 99.8812C58.1846 99.8166 58.1844 99.752 58.1841 99.6874C58.1832 99.4747 58.1828 99.262 58.1823 99.0493C58.1822 98.976 58.182 98.9027 58.1818 98.8294C58.181 98.4847 58.1804 98.14 58.1801 97.7954C58.1797 97.3982 58.1786 97.0011 58.1769 96.6039C58.1757 96.2967 58.175 95.9894 58.1749 95.6821C58.1748 95.4987 58.1744 95.3154 58.1734 95.1321C58.1724 94.9592 58.1722 94.7864 58.1727 94.6135C58.1727 94.5504 58.1724 94.4874 58.1719 94.4243C58.1662 93.7644 58.3084 93.2457 58.7647 92.7593C59.2724 92.2768 59.8271 92.2058 60.4989 92.2109ZM59.1914 93.4731C59.042 93.7074 58.978 93.9176 58.9785 94.1957C58.9785 94.2225 58.9785 94.2492 58.9785 94.2768C58.9785 94.3651 58.9789 94.4534 58.9792 94.5417C58.9793 94.603 58.9793 94.6643 58.9794 94.7256C58.9795 94.8868 58.9799 95.048 58.9804 95.2092C58.9808 95.3737 58.981 95.5382 58.9812 95.7028C58.9817 96.0255 58.9824 96.3483 58.9833 96.6711C59.2891 96.6743 59.5949 96.6764 59.9008 96.6779C60.0047 96.6785 60.1086 96.6794 60.2125 96.6805C60.3624 96.682 60.5124 96.6827 60.6623 96.6832C60.7082 96.6839 60.7541 96.6845 60.8014 96.6852C61.3995 96.6853 61.8645 96.514 62.2999 96.1076C62.6985 95.6926 62.8366 95.2414 62.8245 94.6741C62.7908 94.1845 62.5616 93.8039 62.2186 93.4611C61.7704 93.0728 61.2868 92.982 60.7134 92.9914C60.6168 92.9929 60.5203 92.9923 60.4236 92.9915C59.9173 92.9919 59.5389 93.0841 59.1914 93.4731Z" fill="#231F20"/>
<path d="M100.531 64.0073C100.583 64.0069 100.636 64.0066 100.69 64.0063C100.8 64.0058 100.911 64.0057 101.022 64.0059C101.163 64.0062 101.304 64.0049 101.446 64.0032C101.581 64.0019 101.717 64.0021 101.852 64.0021C101.903 64.0014 101.953 64.0007 102.005 64C102.3 64.0024 102.514 64.032 102.737 64.2344C102.882 64.4294 102.999 64.6662 103.013 64.9119C102.964 65.2017 102.802 65.3897 102.598 65.592C102.576 65.613 102.555 65.634 102.534 65.6557C102.489 65.6998 102.444 65.7438 102.4 65.7876C102.332 65.8537 102.265 65.9202 102.198 65.9869C102.024 66.1591 101.85 66.3292 101.664 66.4887C101.468 66.6587 101.286 66.8418 101.103 67.0263C101.03 67.0999 100.957 67.1736 100.884 67.2472C100.769 67.362 100.655 67.4769 100.542 67.5919C100.431 67.7038 100.32 67.8154 100.208 67.927C100.158 67.9782 100.158 67.9782 100.106 68.0305C99.7399 68.3977 99.4256 68.6765 98.8905 68.6934C98.792 68.6934 98.6936 68.6927 98.5952 68.6913C98.5459 68.6914 98.4965 68.6916 98.4457 68.6917C98.0696 68.6894 97.7544 68.6815 97.47 68.4139C97.3036 68.2298 97.2349 68.0109 97.2422 67.7646C97.3017 67.4827 97.4357 67.2712 97.609 67.0456C97.6579 66.9801 97.7068 66.9145 97.7556 66.8488C97.7808 66.8151 97.806 66.7814 97.8319 66.7467C97.9578 66.5761 98.0786 66.402 98.1997 66.2279C98.408 65.9296 98.6193 65.6336 98.8337 65.3394C98.9471 65.1835 99.0595 65.0269 99.1699 64.8687C99.1922 64.8368 99.2146 64.8048 99.2376 64.7719C99.2797 64.7115 99.3217 64.6509 99.3635 64.5902C99.6917 64.12 99.9638 64.0073 100.531 64.0073Z" fill="#231F20"/>
<path d="M69.1926 92.7362C69.7963 93.2116 70.1355 93.8026 70.2653 94.5529C70.2816 94.7542 70.2828 94.9542 70.2821 95.1561C70.2823 95.2144 70.2826 95.2726 70.283 95.3309C70.2837 95.4873 70.2837 95.6437 70.2834 95.8001C70.2833 95.9311 70.2835 96.0621 70.2838 96.1931C70.2844 96.502 70.2843 96.8108 70.2838 97.1197C70.2834 97.438 70.2839 97.7562 70.2851 98.0744C70.286 98.3485 70.2863 98.6226 70.286 98.8966C70.2859 99.06 70.286 99.2233 70.2867 99.3867C70.2873 99.54 70.2872 99.6932 70.2864 99.8465C70.2862 99.9294 70.2868 100.012 70.2874 100.095C70.2868 100.17 70.2868 100.17 70.2861 100.245C70.2861 100.288 70.2861 100.331 70.2861 100.375C70.2598 100.523 70.2014 100.593 70.0987 100.7C69.9697 100.764 69.8665 100.753 69.7241 100.741C69.6094 100.667 69.5356 100.614 69.4743 100.492C69.4702 100.416 69.4689 100.34 69.4688 100.263C69.4686 100.215 69.4685 100.166 69.4683 100.116C69.4683 100.062 69.4684 100.009 69.4684 99.9536C69.4682 99.8968 69.4681 99.84 69.4679 99.7831C69.4676 99.6605 69.4674 99.5379 69.4673 99.4152C69.467 99.2209 69.4663 99.0266 69.4655 98.8323C69.4653 98.7657 69.465 98.6991 69.4647 98.6325C69.4646 98.5991 69.4645 98.5658 69.4643 98.5314C69.4626 98.079 69.4612 97.6266 69.4607 97.1741C69.4604 96.869 69.4594 96.564 69.4578 96.2589C69.457 96.0976 69.4565 95.9363 69.4567 95.7751C69.4569 95.6229 69.4563 95.4708 69.4552 95.3186C69.4547 95.2371 69.4551 95.1555 69.4555 95.0739C69.4503 94.5698 69.3395 94.1178 69.0163 93.7223C68.9934 93.6937 68.9704 93.6652 68.9467 93.6358C68.6483 93.3031 68.2012 93.0808 67.7581 93.0224C67.1662 92.9908 66.6518 93.1461 66.1854 93.5146C65.8205 93.8781 65.5981 94.324 65.5968 94.8404C65.5966 94.8896 65.5964 94.9389 65.5962 94.9896C65.5961 95.0702 65.5961 95.0702 65.596 95.1523C65.5958 95.2097 65.5956 95.2671 65.5954 95.3245C65.5949 95.4478 65.5946 95.5712 65.5943 95.6946C65.5939 95.8897 65.593 96.0848 65.5921 96.2799C65.5895 96.8347 65.5873 97.3895 65.5859 97.9443C65.5851 98.2508 65.5839 98.5574 65.5822 98.8639C65.5813 99.0261 65.5807 99.1882 65.5806 99.3504C65.5805 99.5028 65.5799 99.6553 65.5788 99.8077C65.5783 99.8903 65.5785 99.9728 65.5787 100.055C65.5782 100.105 65.5778 100.154 65.5773 100.205C65.5771 100.247 65.577 100.29 65.5769 100.334C65.5582 100.471 65.5177 100.548 65.4361 100.658C65.282 100.761 65.202 100.754 65.0198 100.741C64.879 100.692 64.8561 100.662 64.77 100.534C64.7594 100.425 64.7594 100.425 64.7591 100.292C64.7588 100.241 64.7585 100.191 64.7582 100.139C64.7583 100.083 64.7584 100.027 64.7585 99.9707C64.7584 99.9118 64.7581 99.8528 64.7579 99.7939C64.7573 99.6335 64.7573 99.4732 64.7574 99.3129C64.7575 99.1789 64.7573 99.0448 64.7571 98.9108C64.7566 98.5941 64.7566 98.2775 64.7568 97.9609C64.7571 97.6351 64.7566 97.3093 64.7557 96.9835C64.7549 96.7034 64.7547 96.4232 64.7548 96.143C64.7549 95.9759 64.7548 95.8088 64.7542 95.6417C64.7537 95.4842 64.7538 95.3267 64.7543 95.1691C64.7545 95.0845 64.754 94.9999 64.7535 94.9153C64.7578 94.1589 65.0196 93.4987 65.5585 92.9633C66.5599 92.0361 68.0805 91.9617 69.1926 92.7362Z" fill="#231F20"/>
<path d="M54.4568 92.2198C54.5086 92.2192 54.5604 92.2187 54.6138 92.2181C54.67 92.2178 54.7262 92.2175 54.7824 92.2172C54.8109 92.217 54.8394 92.2169 54.8687 92.2167C55.0193 92.2158 55.1699 92.2152 55.3205 92.2148C55.4758 92.2144 55.631 92.213 55.7862 92.2113C55.906 92.2102 56.0257 92.2099 56.1454 92.2097C56.2026 92.2095 56.2598 92.209 56.3171 92.2083C56.3972 92.2073 56.4773 92.2074 56.5574 92.2076C56.6029 92.2073 56.6484 92.2071 56.6952 92.2068C56.8476 92.2319 56.9166 92.2873 57.0266 92.3932C57.0853 92.5104 57.0784 92.5955 57.0682 92.7255C57.0214 92.8397 57.0214 92.8397 56.9433 92.9332C56.7746 93.002 56.6316 93.0265 56.4501 93.0262C56.4032 93.0263 56.3562 93.0265 56.3078 93.0266C56.2576 93.0265 56.2073 93.0263 56.1556 93.0261C56.0483 93.0268 55.9409 93.0274 55.8336 93.0281C55.6652 93.0289 55.4967 93.0293 55.3283 93.0289C55.1652 93.0286 55.0021 93.03 54.839 93.0313C54.7891 93.0309 54.7392 93.0305 54.6878 93.03C54.3718 93.0337 54.1243 93.0806 53.8626 93.2654C53.5456 93.5947 53.5168 93.9206 53.5123 94.3618C53.5115 94.4112 53.5107 94.4607 53.5099 94.5116C53.5074 94.669 53.5055 94.8264 53.5036 94.9838C53.502 95.0907 53.5004 95.1976 53.4987 95.3045C53.4947 95.5662 53.4912 95.8279 53.488 96.0896C53.5292 96.0892 53.5705 96.0889 53.613 96.0885C54.002 96.0851 54.3909 96.0826 54.7799 96.081C54.9799 96.0801 55.1798 96.079 55.3798 96.0771C55.5728 96.0753 55.7658 96.0743 55.9588 96.0738C56.0324 96.0735 56.106 96.0729 56.1796 96.072C56.2828 96.0708 56.3859 96.0707 56.4891 96.0707C56.5195 96.0701 56.5499 96.0696 56.5812 96.0689C56.7829 96.0706 56.8851 96.1127 57.0266 96.2557C57.0775 96.3574 57.0689 96.4108 57.0578 96.5231C57.055 96.5556 57.0522 96.5881 57.0494 96.6216C57.0223 96.7299 56.9893 96.7691 56.9017 96.8372C56.7521 96.8869 56.6163 96.8842 56.4607 96.8834C56.4126 96.8834 56.4126 96.8834 56.3635 96.8835C56.2574 96.8834 56.1513 96.8831 56.0452 96.8828C55.9716 96.8827 55.8981 96.8826 55.8245 96.8826C55.6309 96.8824 55.4373 96.882 55.2436 96.8816C55.0461 96.8811 54.8485 96.881 54.6509 96.8807C54.2633 96.8803 53.8756 96.8796 53.488 96.8787C53.4897 97.1913 53.4927 97.5038 53.4966 97.8164C53.4978 97.9226 53.4987 98.0288 53.4992 98.1351C53.5001 98.2882 53.5021 98.4413 53.5042 98.5944C53.5043 98.6415 53.5043 98.6886 53.5044 98.7372C53.5107 99.0814 53.5693 99.3455 53.795 99.6121C54.0546 99.8279 54.2273 99.915 54.5617 99.9171C54.6101 99.9175 54.6586 99.918 54.7086 99.9184C54.7608 99.9187 54.813 99.919 54.8668 99.9193C54.949 99.9202 55.0312 99.9211 55.1134 99.922C55.3159 99.9242 55.5183 99.926 55.7208 99.9272C55.8345 99.9279 55.9482 99.929 56.0619 99.9304C56.1689 99.9316 56.276 99.9324 56.383 99.9327C56.4316 99.9334 56.4802 99.9341 56.5303 99.9348C56.573 99.9351 56.6157 99.9355 56.6596 99.9358C56.7954 99.9547 56.8742 99.9974 56.985 100.077C57.0817 100.21 57.088 100.331 57.0682 100.492C56.9933 100.604 56.9398 100.681 56.8184 100.741C56.7393 100.746 56.6599 100.748 56.5806 100.749C56.5058 100.749 56.5058 100.749 56.4294 100.75C56.3479 100.751 56.3479 100.751 56.2647 100.751C56.2231 100.751 56.2231 100.751 56.1807 100.752C56.0335 100.752 55.8863 100.753 55.7391 100.753C55.5884 100.754 55.4377 100.755 55.2871 100.757C55.1702 100.758 55.0532 100.758 54.9363 100.759C54.8542 100.759 54.7721 100.76 54.69 100.761C54.1035 100.76 53.6272 100.611 53.1967 100.206C52.7784 99.7621 52.6844 99.2652 52.6849 98.6759C52.6846 98.6237 52.6843 98.5714 52.684 98.5176C52.6833 98.3751 52.6831 98.2325 52.683 98.09C52.683 98.0006 52.6828 97.9113 52.6826 97.822C52.6818 97.5095 52.6815 97.1971 52.6815 96.8846C52.6816 96.5946 52.6807 96.3047 52.6794 96.0148C52.6783 95.7648 52.6779 95.5148 52.6779 95.2648C52.6779 95.116 52.6777 94.9672 52.6768 94.8183C52.6758 94.652 52.6762 94.4856 52.6767 94.3193C52.6763 94.2709 52.6758 94.2224 52.6753 94.1726C52.6791 93.6795 52.7997 93.2368 53.1133 92.8501C53.1332 92.8246 53.1531 92.7991 53.1736 92.7729C53.4924 92.4108 53.9832 92.224 54.4568 92.2198Z" fill="#231F20"/>
<path d="M103.331 92.2141C103.398 92.2144 103.398 92.2144 103.467 92.2147C104.372 92.2273 104.372 92.2273 104.626 92.4304C104.724 92.5557 104.733 92.6513 104.736 92.8086C104.679 92.93 104.622 93.0049 104.528 93.0993C104.291 93.1331 104.051 93.0918 103.817 93.0552C102.932 92.9317 102.069 93.1385 101.329 93.6355C101.224 93.7155 101.127 93.7994 101.031 93.8884C100.974 93.9389 100.974 93.9389 100.917 93.9905C100.285 94.5847 99.8935 95.3609 99.8516 96.2326C99.8375 96.7232 99.8733 97.1602 100.031 97.6263C100.046 97.6695 100.06 97.7127 100.074 97.7572C100.382 98.5892 101.065 99.2167 101.843 99.6109C102.611 99.9603 103.461 100.011 104.284 99.8335C104.438 99.8257 104.522 99.873 104.652 99.9521C104.743 100.058 104.741 100.15 104.733 100.284C104.723 100.41 104.698 100.447 104.607 100.539C104.466 100.629 104.337 100.664 104.174 100.689C104.143 100.694 104.113 100.699 104.081 100.705C102.915 100.876 101.752 100.637 100.786 99.9521C99.8531 99.2258 99.2656 98.33 99.0494 97.1614C98.9242 96.0027 99.1258 94.8899 99.8363 93.9481C99.8869 93.8862 99.9381 93.8248 99.9898 93.7638C100.02 93.7275 100.05 93.6912 100.082 93.6538C100.907 92.7044 102.077 92.2075 103.331 92.2141Z" fill="#231F20"/>
<path d="M113.478 92.2271C113.582 92.305 113.629 92.3616 113.686 92.4763C113.691 92.5628 113.692 92.6494 113.692 92.736C113.692 92.763 113.692 92.7899 113.692 92.8177C113.692 92.9084 113.692 92.9991 113.692 93.0898C113.692 93.1547 113.693 93.2195 113.693 93.2844C113.693 93.4244 113.693 93.5643 113.693 93.7043C113.694 93.9258 113.694 94.1473 113.695 94.3688C113.695 94.4446 113.696 94.5205 113.696 94.5963C113.696 94.6343 113.696 94.6723 113.696 94.7114C113.698 95.2272 113.699 95.7429 113.7 96.2587C113.7 96.6064 113.701 96.9542 113.703 97.3019C113.704 97.4859 113.704 97.6698 113.704 97.8538C113.704 98.0271 113.704 98.2004 113.706 98.3736C113.706 98.437 113.706 98.5004 113.706 98.5638C113.704 98.9674 113.724 99.2939 113.993 99.6121C114.237 99.8148 114.411 99.9143 114.726 99.9178C114.788 99.9186 114.788 99.9186 114.851 99.9195C114.917 99.9201 114.917 99.9201 114.985 99.9208C115.078 99.9222 115.172 99.9235 115.265 99.9249C115.413 99.9269 115.56 99.9287 115.708 99.9304C115.85 99.932 115.993 99.9342 116.135 99.9364C116.201 99.9369 116.201 99.9369 116.269 99.9374C116.33 99.9385 116.33 99.9385 116.393 99.9395C116.429 99.9399 116.465 99.9404 116.503 99.9408C116.61 99.9532 116.676 99.9767 116.767 100.035C116.878 100.201 116.88 100.338 116.85 100.534C116.772 100.637 116.716 100.684 116.601 100.741C116.534 100.746 116.468 100.748 116.401 100.749C116.359 100.749 116.318 100.75 116.275 100.75C116.23 100.75 116.185 100.751 116.138 100.751C116.068 100.752 116.068 100.752 115.997 100.752C115.897 100.753 115.798 100.753 115.699 100.753C115.549 100.754 115.399 100.756 115.249 100.758C114.509 100.763 113.953 100.718 113.386 100.2C113.042 99.8466 112.891 99.4119 112.89 98.9252C112.89 98.8977 112.89 98.8702 112.89 98.8418C112.889 98.7498 112.889 98.6579 112.889 98.5659C112.889 98.4999 112.889 98.4339 112.889 98.3678C112.889 98.1886 112.889 98.0095 112.888 97.8303C112.888 97.6807 112.888 97.5312 112.888 97.3816C112.888 97.0289 112.888 96.6761 112.888 96.3234C112.888 95.9593 112.887 95.5953 112.887 95.2312C112.886 94.9187 112.886 94.6061 112.886 94.2936C112.886 94.1069 112.886 93.9202 112.885 93.7335C112.885 93.5581 112.885 93.3826 112.885 93.2072C112.885 93.1427 112.885 93.0783 112.885 93.0139C112.885 92.926 112.885 92.8382 112.885 92.7503C112.885 92.7011 112.885 92.6519 112.885 92.6012C112.895 92.4784 112.91 92.411 112.979 92.3102C113.145 92.1994 113.282 92.1974 113.478 92.2271Z" fill="#231F20"/>
<path d="M85.0443 92.2063C85.0842 92.2057 85.0842 92.2057 85.1249 92.205C85.2551 92.2385 85.3236 92.2997 85.419 92.3932C85.445 92.5151 85.445 92.5151 85.445 92.6598C85.4454 92.6998 85.4454 92.6998 85.4459 92.7407C85.4466 92.83 85.4458 92.9192 85.4451 93.0085C85.4453 93.0726 85.4456 93.1367 85.446 93.2008C85.4467 93.3387 85.4467 93.4767 85.4461 93.6147C85.4453 93.833 85.446 94.0514 85.4468 94.2698C85.4479 94.6154 85.4481 94.9611 85.4478 95.3067C85.4473 95.925 85.4484 96.5432 85.45 97.1615C85.4506 97.3783 85.4506 97.5952 85.4503 97.812C85.4501 97.9473 85.4503 98.0826 85.4506 98.2179C85.4506 98.2803 85.4505 98.3428 85.4502 98.4053C85.4422 99.0368 85.4422 99.0368 85.7193 99.5869C85.9266 99.7947 86.159 99.9149 86.4535 99.9171C86.4945 99.9176 86.5355 99.918 86.5778 99.9184C86.622 99.9187 86.6662 99.919 86.7118 99.9193C86.8053 99.9205 86.8988 99.9217 86.9923 99.9229C87.1399 99.9246 87.2874 99.9262 87.435 99.9272C87.5773 99.9284 87.7196 99.9303 87.8619 99.9323C87.928 99.9325 87.928 99.9325 87.9954 99.9327C88.3818 99.9392 88.3818 99.9392 88.5413 100.077C88.645 100.232 88.6436 100.308 88.6246 100.492C88.5498 100.606 88.4975 100.68 88.3748 100.741C88.3079 100.746 88.2409 100.747 88.1739 100.748C88.132 100.748 88.0901 100.749 88.047 100.749C87.9788 100.749 87.9788 100.749 87.9092 100.75C87.8623 100.75 87.8155 100.75 87.7672 100.75C87.6677 100.751 87.5682 100.751 87.4687 100.751C87.3177 100.752 87.1667 100.753 87.0157 100.754C86.9189 100.754 86.8221 100.755 86.7253 100.755C86.6806 100.755 86.6358 100.756 86.5898 100.756C86.1077 100.755 85.7329 100.637 85.3357 100.367C85.2988 100.343 85.2619 100.319 85.2238 100.295C84.8317 99.9142 84.6545 99.466 84.647 98.9246C84.6466 98.8308 84.647 98.737 84.6474 98.6432C84.6471 98.5751 84.6467 98.5069 84.6463 98.4388C84.6454 98.2551 84.6455 98.0714 84.6459 97.8877C84.6461 97.7341 84.6458 97.5805 84.6455 97.4269C84.6448 97.0648 84.6449 96.7026 84.6456 96.3405C84.6463 95.9669 84.6456 95.5934 84.6443 95.2198C84.6432 94.8987 84.6429 94.5775 84.6432 94.2563C84.6435 94.0646 84.6434 93.873 84.6425 93.6813C84.6417 93.5014 84.642 93.3216 84.643 93.1417C84.6432 93.0756 84.6431 93.0096 84.6425 92.9436C84.6419 92.8535 84.6425 92.7635 84.6435 92.6735C84.6435 92.6231 84.6435 92.5727 84.6435 92.5207C84.6696 92.3932 84.6696 92.3932 84.7699 92.294C84.8744 92.2292 84.9237 92.2044 85.0443 92.2063Z" fill="#231F20"/>
<path d="M50.7782 92.2091C50.9038 92.2351 50.9589 92.2903 51.0317 92.3932C51.095 92.5195 51.0795 92.6507 51.0795 92.7892C51.0796 92.8219 51.0798 92.8545 51.08 92.8882C51.0804 92.9982 51.0806 93.1082 51.0807 93.2183C51.081 93.2969 51.0813 93.3756 51.0816 93.4542C51.0823 93.6683 51.0827 93.8824 51.0831 94.0965C51.0833 94.2302 51.0835 94.3639 51.0838 94.4975C51.0846 94.9155 51.0852 95.3335 51.0855 95.7515C51.0859 96.2345 51.087 96.7174 51.0887 97.2004C51.09 97.5734 51.0906 97.9464 51.0907 98.3194C51.0908 98.5423 51.0912 98.7652 51.0922 98.9881C51.0932 99.1978 51.0934 99.4075 51.093 99.6172C51.0929 99.6942 51.0932 99.7712 51.0938 99.8482C51.0945 99.9532 51.0942 100.058 51.0937 100.163C51.0941 100.194 51.0946 100.224 51.0951 100.256C51.0925 100.457 51.0498 100.559 50.9068 100.7C50.7778 100.764 50.6746 100.753 50.5322 100.741C50.4175 100.667 50.3437 100.614 50.2824 100.492C50.2779 100.387 50.276 100.283 50.276 100.178C50.2758 100.145 50.2756 100.112 50.2754 100.078C50.2749 99.9675 50.2746 99.8569 50.2743 99.7463C50.274 99.6672 50.2737 99.5882 50.2733 99.5091C50.2722 99.249 50.2716 98.9888 50.271 98.7287C50.2708 98.6392 50.2705 98.5498 50.2703 98.4603C50.2694 98.0884 50.2686 97.7164 50.2682 97.3444C50.2675 96.8107 50.2661 96.2771 50.2637 95.7434C50.2621 95.3685 50.2613 94.9935 50.2611 94.6186C50.2609 94.3945 50.2604 94.1704 50.2591 93.9464C50.2578 93.7356 50.2576 93.5248 50.2581 93.314C50.2581 93.2366 50.2577 93.1592 50.257 93.0818C50.2561 92.9762 50.2564 92.8707 50.2571 92.7651C50.2565 92.7344 50.2559 92.7037 50.2553 92.6721C50.2578 92.5088 50.2777 92.4406 50.382 92.3119C50.5254 92.1998 50.6028 92.1995 50.7782 92.2091Z" fill="#231F20"/>
</svg>
