<svg width="61" height="60" viewBox="0 0 61 60" fill="none" xmlns="http://www.w3.org/2000/svg">
<path d="M38.4476 0.825038C38.6107 0.963712 38.7632 1.11119 38.9138 1.26326C38.9424 1.29185 38.971 1.32043 39.0004 1.34989C39.7225 2.12068 39.9825 3.13383 39.9746 4.15745C39.9746 4.22864 39.9748 4.29983 39.975 4.37102C39.9754 4.56453 39.9747 4.75802 39.9739 4.95152C39.9731 5.16098 39.9734 5.37045 39.9735 5.57991C39.9736 5.94212 39.9731 6.30432 39.9722 6.66653C39.9708 7.1902 39.9704 7.71388 39.9702 8.23756C39.9698 9.08735 39.9687 9.93714 39.9671 10.7869C39.9656 11.612 39.9644 12.4372 39.9637 13.2623C39.9636 13.3132 39.9636 13.3641 39.9636 13.4166C39.9633 13.6721 39.9631 13.9276 39.9629 14.1831C39.9612 16.3001 39.9583 18.4172 39.9545 20.5342C39.9904 20.5342 40.0262 20.5341 40.0632 20.5341C42.1894 20.5313 44.3156 20.5292 46.4418 20.5279C46.6972 20.5277 46.9527 20.5275 47.2082 20.5274C47.2845 20.5273 47.2845 20.5273 47.3623 20.5273C48.1851 20.5267 49.0079 20.5258 49.8306 20.5246C50.6753 20.5234 51.52 20.5228 52.3646 20.5225C52.8855 20.5223 53.4064 20.5218 53.9274 20.5208C54.2849 20.5201 54.6425 20.5199 55 20.5201C55.2061 20.5202 55.4121 20.52 55.6182 20.5194C55.8073 20.5188 55.9964 20.5187 56.1855 20.5192C56.2535 20.5192 56.3215 20.5191 56.3895 20.5187C56.9834 20.5154 57.5733 20.5719 58.1317 20.7886C58.1644 20.8011 58.1972 20.8136 58.2309 20.8265C58.8053 21.0543 59.2563 21.3839 59.6876 21.8217C59.7193 21.8534 59.751 21.885 59.7836 21.9176C60.4589 22.632 60.8024 23.6196 60.7869 24.5947C60.7492 25.519 60.4171 26.3513 59.8125 27.0548C59.7848 27.0915 59.7848 27.0915 59.7564 27.1289C59.1982 27.8493 58.2132 28.2936 57.3352 28.4487C57.0211 28.488 56.7041 28.4819 56.3881 28.4837C56.3041 28.4845 56.2202 28.4853 56.1362 28.4861C55.901 28.4882 55.6658 28.4898 55.4305 28.4912C55.2768 28.4922 55.1231 28.4933 54.9693 28.4945C51.8265 28.5179 48.6835 28.5176 45.5406 28.5183C45.3532 28.5183 45.1658 28.5184 44.9784 28.5184C44.9319 28.5184 44.8854 28.5184 44.8375 28.5184C44.0731 28.5186 43.3088 28.5193 42.5444 28.5203C41.7488 28.5213 40.9532 28.5218 40.1575 28.5218C39.715 28.5219 39.2725 28.5221 38.8299 28.5229C38.4566 28.5235 38.0833 28.5237 37.7099 28.5234C37.5204 28.5232 37.3308 28.5232 37.1412 28.5238C35.5932 28.5283 34.2331 28.3941 33.0594 27.2573C32.2697 26.4637 31.9401 25.4697 31.9404 24.368C31.941 24.2868 31.9415 24.2056 31.9421 24.1244C31.9421 24.0362 31.942 23.9481 31.9419 23.8599C31.9418 23.6196 31.9427 23.3794 31.9437 23.1391C31.9447 22.8792 31.9447 22.6193 31.9449 22.3594C31.9453 21.8804 31.9464 21.4014 31.948 20.9223C31.9494 20.4797 31.9505 20.0371 31.9512 19.5944C31.9513 19.565 31.9513 19.5355 31.9514 19.5052C31.9516 19.3857 31.9518 19.2662 31.952 19.1467C31.9539 18.0271 31.9567 16.9075 31.96 15.7879C31.963 14.7947 31.9651 13.8014 31.9667 12.8081C31.9671 12.5537 31.9674 12.2993 31.9678 12.0449C31.9679 12.0136 31.9679 11.9823 31.968 11.95C31.9693 11.1184 31.9712 10.2868 31.9733 9.45527C31.9735 9.36572 31.9737 9.27617 31.974 9.18662C31.9741 9.12722 31.9743 9.06783 31.9744 9.00843C31.9754 8.59546 31.9762 8.18248 31.9769 7.76951C31.9777 7.23713 31.9789 6.70476 31.9809 6.17239C31.9818 5.91591 31.9825 5.65944 31.9827 5.40296C31.9828 5.16778 31.9836 4.93261 31.9848 4.69743C31.9851 4.61275 31.9852 4.52808 31.9851 4.4434C31.9838 3.08566 32.3182 2.01265 33.2999 1.03093C34.6545 -0.266787 36.9894 -0.34376 38.4476 0.825038Z" fill="#50B948"/>
<path d="M27.4236 13.0999C27.4738 13.1218 27.4738 13.1218 27.5249 13.1441C28.0823 13.4216 28.5038 13.9342 28.7142 14.512C28.7992 14.7902 28.8093 15.0452 28.8083 15.335C28.8084 15.3838 28.8086 15.4325 28.8088 15.4828C28.8091 15.6175 28.8091 15.7521 28.8089 15.8868C28.8088 16.0323 28.8092 16.1778 28.8095 16.3234C28.81 16.6082 28.8101 16.8931 28.81 17.1779C28.81 17.4095 28.81 17.6412 28.8102 17.8728C28.8102 17.9058 28.8102 17.9388 28.8103 17.9729C28.8103 18.0399 28.8104 18.107 28.8104 18.174C28.8109 18.8026 28.8108 19.4312 28.8105 20.0598C28.8103 20.6342 28.8108 21.2086 28.8116 21.783C28.8124 22.3734 28.8127 22.9638 28.8126 23.5542C28.8125 23.8854 28.8126 24.2167 28.8132 24.5479C28.8137 24.8299 28.8137 25.1119 28.8132 25.3939C28.813 25.5377 28.8129 25.6814 28.8134 25.8251C28.8139 25.9814 28.8135 26.1376 28.813 26.2938C28.8133 26.3387 28.8136 26.3835 28.8139 26.4297C28.8093 27.0805 28.5914 27.6605 28.1377 28.1349C27.6049 28.6269 26.9818 28.8125 26.2704 28.81C26.1986 28.8102 26.1986 28.8102 26.1253 28.8104C25.9655 28.8109 25.8057 28.8107 25.6459 28.8105C25.531 28.8107 25.4162 28.8109 25.3014 28.8112C25.0221 28.8117 24.7429 28.8118 24.4637 28.8117C24.2366 28.8116 24.0095 28.8117 23.7824 28.8119C23.7339 28.8119 23.7339 28.8119 23.6843 28.8119C23.6185 28.812 23.5528 28.812 23.487 28.8121C22.8706 28.8125 22.2542 28.8125 21.6378 28.8122C21.0747 28.812 20.5117 28.8125 19.9486 28.8132C19.3696 28.814 18.7907 28.8144 18.2117 28.8142C17.887 28.8142 17.5622 28.8143 17.2375 28.8148C16.961 28.8153 16.6845 28.8154 16.408 28.8149C16.2672 28.8147 16.1263 28.8147 15.9854 28.8151C15.8322 28.8155 15.679 28.8152 15.5258 28.8147C15.482 28.815 15.4381 28.8153 15.393 28.8156C14.6819 28.8105 14.0948 28.5784 13.5816 28.0843C13.0928 27.5419 12.9361 26.9276 12.9619 26.2149C13.0006 25.6003 13.2996 25.0717 13.7434 24.6537C14.1481 24.3148 14.631 24.1024 15.1611 24.0994C15.2424 24.0988 15.2424 24.0988 15.3254 24.0982C15.3852 24.0979 15.445 24.0977 15.5048 24.0975C15.568 24.0971 15.6312 24.0966 15.6944 24.0962C15.8657 24.0951 16.0371 24.0942 16.2084 24.0934C16.3875 24.0925 16.5666 24.0913 16.7458 24.0902C17.0849 24.0882 17.424 24.0863 17.7631 24.0845C18.1492 24.0824 18.5353 24.0802 18.9214 24.0779C19.7156 24.0731 20.5097 24.0687 21.3039 24.0645C21.2378 24.0048 21.1718 23.9452 21.1057 23.8857C21.0689 23.8525 21.0321 23.8193 20.9942 23.7851C20.8592 23.6656 20.72 23.5542 20.5753 23.4467C20.5473 23.4258 20.5192 23.405 20.4903 23.3835C20.1643 23.1453 19.8227 22.9354 19.4721 22.7354C19.4404 22.7173 19.4087 22.6992 19.376 22.6806C18.2894 22.0684 17.0844 21.6988 15.8502 21.531C15.8043 21.5246 15.8043 21.5246 15.7576 21.518C14.8342 21.4069 13.8036 21.424 12.8944 21.6141C12.8527 21.6227 12.811 21.6314 12.7681 21.6404C11.3459 21.9455 9.98678 22.4863 8.81455 23.3584C8.7894 23.377 8.76426 23.3957 8.73836 23.4148C8.36767 23.6918 8.02455 23.994 7.69051 24.3136C7.65622 24.3461 7.62192 24.3786 7.58659 24.4121C7.35104 24.6406 7.1445 24.8872 6.94115 25.1443C6.90815 25.1848 6.87514 25.2253 6.84114 25.2671C6.54776 25.6347 6.30218 26.0251 6.0669 26.4318C6.0502 26.4605 6.03351 26.4892 6.0163 26.5187C4.70893 28.7918 4.49722 31.486 5.15037 33.9907C5.57475 35.5336 6.41687 36.9514 7.52398 38.1024C7.54835 38.128 7.57271 38.1537 7.59781 38.1801C8.00037 38.6023 8.42268 38.9683 8.89781 39.3068C8.92215 39.3246 8.9465 39.3425 8.97158 39.3608C10.6386 40.5786 12.5878 41.0052 14.6013 41.1757C14.5935 41.2042 14.5857 41.2326 14.5777 41.262C14.4855 41.6124 14.4229 41.965 14.3697 42.3231C14.3652 42.3531 14.3607 42.3832 14.3561 42.4141C14.1856 43.5677 14.1742 44.705 14.1849 45.8689C11.1377 45.7927 8.1406 44.7519 5.73385 42.8786C5.70004 42.8524 5.66623 42.8262 5.6314 42.7992C5.52572 42.7162 5.42152 42.6315 5.31754 42.5463C5.27734 42.514 5.23715 42.4816 5.19574 42.4483C4.86022 42.1733 4.55048 41.873 4.24294 41.5677C4.21248 41.5376 4.21248 41.5376 4.1814 41.507C3.90241 41.231 3.64739 40.9424 3.40251 40.6358C3.35788 40.5826 3.31308 40.5294 3.26802 40.4765C2.70528 39.8082 2.24282 39.0729 1.82053 38.31C1.79247 38.26 1.79247 38.26 1.76384 38.2089C0.865756 36.5995 0.346424 34.8153 0.113662 32.9939C0.108725 32.9556 0.103787 32.9173 0.0987006 32.8778C-0.334724 29.3382 0.672772 25.471 2.85611 22.6394C2.94017 22.5322 3.02536 22.426 3.1111 22.3201C3.14569 22.2767 3.18028 22.2334 3.21485 22.19C3.39379 21.9682 3.58052 21.7548 3.7728 21.5445C3.84962 21.4599 3.92418 21.3739 3.99836 21.287C4.30037 20.9415 4.63354 20.6219 4.98449 20.3266C5.04036 20.2777 5.04036 20.2777 5.09735 20.2279C7.42017 18.2095 10.3834 17.0353 13.4356 16.7548C13.4649 16.7518 13.4943 16.7489 13.5245 16.7459C16.8289 16.4194 20.375 17.4306 23.0524 19.3713C23.0867 19.3961 23.0867 19.3961 23.1217 19.4214C23.8167 19.9262 23.8167 19.9262 24.0515 20.1604C24.0517 20.121 24.0517 20.121 24.0518 20.0809C24.0543 19.4398 24.0574 18.7988 24.0613 18.1577C24.0632 17.8477 24.0648 17.5377 24.0659 17.2277C24.0669 16.9572 24.0683 16.6868 24.0702 16.4164C24.0712 16.2734 24.072 16.1304 24.0722 15.9874C24.0726 15.8272 24.0738 15.667 24.0751 15.5068C24.0751 15.4601 24.075 15.4135 24.075 15.3655C24.0832 14.663 24.2935 14.0763 24.7854 13.5657C25.4842 12.9145 26.5402 12.7145 27.4236 13.0999Z" fill="#FDB713"/>
<path d="M15.4531 31.3683C15.5014 31.3682 15.5497 31.3681 15.5995 31.3679C15.7332 31.3677 15.867 31.3675 16.0007 31.3675C16.1451 31.3674 16.2895 31.3671 16.4339 31.3668C16.7495 31.3663 17.0651 31.366 17.3807 31.3658C17.5779 31.3657 17.7751 31.3656 17.9723 31.3654C18.5187 31.3649 19.0651 31.3644 19.6115 31.3643C19.6465 31.3643 19.6814 31.3643 19.7174 31.3643C19.77 31.3642 19.77 31.3642 19.8236 31.3642C19.8946 31.3642 19.9656 31.3642 20.0366 31.3642C20.0718 31.3642 20.107 31.3642 20.1433 31.3642C20.7135 31.364 21.2837 31.3633 21.854 31.3623C22.4399 31.3613 23.0259 31.3608 23.6119 31.3607C23.9407 31.3607 24.2695 31.3605 24.5983 31.3597C24.8783 31.3591 25.1584 31.3589 25.4384 31.3592C25.5811 31.3594 25.7238 31.3593 25.8666 31.3587C26.0217 31.3582 26.1768 31.3585 26.332 31.3589C26.3765 31.3586 26.421 31.3582 26.4669 31.3579C27.1389 31.3622 27.7194 31.5991 28.2057 32.0646C28.752 32.649 28.8947 33.3298 28.8913 34.1086C28.8914 34.155 28.8915 34.2014 28.8917 34.2492C28.892 34.4029 28.8918 34.5567 28.8915 34.7104C28.8916 34.8214 28.8917 34.9323 28.8919 35.0432C28.8923 35.3122 28.8922 35.5811 28.892 35.8501C28.8918 36.0689 28.8918 36.2876 28.8919 36.5064C28.8919 36.5377 28.8919 36.5689 28.8919 36.6011C28.8919 36.6646 28.8919 36.728 28.892 36.7915C28.8922 37.3855 28.8919 37.9796 28.8915 38.5736C28.8911 39.0824 28.8912 39.5911 28.8916 40.0999C28.892 40.6919 28.8922 41.284 28.8919 41.876C28.8919 41.9392 28.8919 42.0025 28.8919 42.0657C28.8918 42.0968 28.8918 42.1279 28.8918 42.1599C28.8917 42.3782 28.8919 42.5965 28.8921 42.8148C28.8923 43.0811 28.8922 43.3475 28.8918 43.6138C28.8916 43.7495 28.8915 43.8851 28.8918 44.0208C28.892 44.1684 28.8917 44.3159 28.8913 44.4635C28.8915 44.5056 28.8917 44.5478 28.8918 44.5913C28.8877 45.3556 28.6902 45.9954 28.1626 46.562C27.6606 47.0349 27.0493 47.2138 26.3713 47.2067C25.6747 47.1673 25.144 46.8627 24.676 46.3673C24.1819 45.7766 24.1224 45.0745 24.1215 44.3383C24.1211 44.2686 24.1207 44.199 24.1202 44.1294C24.1191 43.9417 24.1185 43.754 24.1179 43.5662C24.1173 43.3696 24.1162 43.1729 24.1151 42.9762C24.1132 42.6044 24.1116 42.2326 24.1102 41.8608C24.1086 41.4372 24.1066 41.0136 24.1045 40.5901C24.1002 39.7193 24.0965 38.8485 24.0931 37.9778C24.0198 38.0571 23.9465 38.1366 23.8733 38.216C23.8423 38.2495 23.8423 38.2495 23.8108 38.2836C23.6545 38.4533 23.5065 38.6271 23.3672 38.811C23.3449 38.8404 23.3225 38.8698 23.2995 38.9001C21.7177 41.0153 21.0221 43.65 21.3857 46.2674C21.6107 47.7242 22.1301 49.1357 22.9691 50.3544C22.9939 50.3911 22.9939 50.3911 23.0193 50.4286C23.6222 51.3183 24.3838 52.1362 25.2588 52.7633C25.3238 52.8107 25.3238 52.8107 25.39 52.8592C27.0636 54.0499 29.0582 54.6956 31.1132 54.6867C31.1498 54.6867 31.1864 54.6866 31.2241 54.6865C31.7839 54.6846 32.3272 54.6602 32.8773 54.5492C32.9135 54.5423 32.9498 54.5353 32.9871 54.5282C35.2565 54.0894 37.4634 52.8308 38.8722 50.9774C38.892 50.9515 38.9119 50.9256 38.9324 50.899C40.1531 49.3013 40.7368 47.5112 40.9953 45.5367C41.2667 45.5615 41.5219 45.6097 41.7863 45.6742C42.2958 45.7937 42.8085 45.8793 43.3267 45.952C43.3588 45.9565 43.391 45.9611 43.4241 45.9657C44.1765 46.0678 44.9419 46.0821 45.6996 46.1181C45.349 49.8584 43.6173 53.4171 40.7456 55.8782C40.7193 55.9007 40.6931 55.9232 40.6661 55.9464C39.9772 56.533 39.2397 57.0458 38.4558 57.4979C38.4039 57.528 38.4039 57.528 38.3509 57.5586C35.0022 59.4756 31.016 59.9165 27.2923 58.9537C26.4781 58.7315 25.689 58.4391 24.9258 58.0794C24.8869 58.0611 24.8481 58.0429 24.8081 58.0241C23.0294 57.1799 21.243 55.8937 20.0222 54.3345C19.9523 54.2453 19.8812 54.1584 19.8079 54.072C18.8566 52.9436 18.0904 51.6033 17.5571 50.2298C17.5434 50.1948 17.5296 50.1598 17.5155 50.1237C16.8641 48.4458 16.5487 46.6895 16.5475 44.8929C16.5475 44.8535 16.5475 44.8142 16.5474 44.7736C16.5501 42.4533 17.1086 40.1939 18.184 38.1362C18.2224 38.0624 18.2599 37.9881 18.2973 37.9139C18.4636 37.5886 18.6516 37.2789 18.8476 36.9706C18.8713 36.9333 18.895 36.896 18.9195 36.8575C19.0457 36.6613 19.1769 36.4701 19.3148 36.2818C19.3444 36.2414 19.374 36.201 19.4045 36.1594C19.4379 36.1138 19.4379 36.1138 19.4721 36.0673C19.449 36.0675 19.4259 36.0676 19.4021 36.0678C18.8377 36.0714 18.2733 36.0742 17.7089 36.0759C17.4359 36.0768 17.163 36.0779 16.8901 36.0798C16.6263 36.0816 16.3626 36.0826 16.0989 36.0831C15.9986 36.0834 15.8983 36.084 15.798 36.0849C14.9544 36.0921 14.2698 36.02 13.6281 35.4106C13.1017 34.8542 12.9555 34.2473 12.9663 33.5054C12.9874 32.9118 13.2707 32.3642 13.7026 31.9598C14.252 31.5144 14.7602 31.3678 15.4531 31.3683Z" fill="#009FDA"/>
<path d="M60.0624 29.962C59.9362 31.7856 59.4802 33.5462 58.6885 35.1951C58.6713 35.2315 58.654 35.268 58.6362 35.3055C58.0283 36.5824 57.223 37.745 56.2556 38.7774C56.1529 38.8873 56.0533 38.9994 55.9539 39.1121C55.8221 39.2584 55.6862 39.3899 55.5355 39.5164C55.4413 39.5975 55.3512 39.6823 55.2611 39.7679C54.9253 40.085 54.564 40.3621 54.1924 40.6358C54.1556 40.6633 54.1556 40.6633 54.1181 40.6913C51.1045 42.9389 47.1694 43.8844 43.4548 43.366C43.2309 43.3321 43.0081 43.2934 42.7855 43.2524C42.7201 43.2405 42.7201 43.2405 42.6534 43.2284C40.6365 42.8522 38.5507 41.9974 36.9294 40.7348C36.8956 40.7085 36.8618 40.6822 36.8271 40.6552C36.8013 40.6351 36.7755 40.615 36.749 40.5943C36.7489 40.6169 36.7488 40.6395 36.7487 40.6628C36.7462 41.2155 36.7431 41.7682 36.7392 42.3208C36.7373 42.5881 36.7357 42.8554 36.7346 43.1226C36.7335 43.3809 36.7318 43.6391 36.7297 43.8974C36.729 43.9956 36.7285 44.0938 36.7283 44.192C36.7257 45.0524 36.6802 45.7891 36.05 46.4429C36.0197 46.4728 35.9893 46.5026 35.958 46.5334C35.9345 46.5573 35.911 46.5812 35.8868 46.6058C35.4455 47.0203 34.84 47.1777 34.2483 47.171C33.6081 47.149 33.0657 46.8933 32.615 46.4473C32.2733 46.0777 32.0007 45.5733 31.9965 45.0594C31.9961 45.022 31.9956 44.9846 31.9952 44.9461C31.995 44.9052 31.9947 44.8642 31.9945 44.822C31.9941 44.7783 31.9937 44.7346 31.9932 44.6896C31.9919 44.5424 31.9909 44.3952 31.9899 44.248C31.989 44.1422 31.9881 44.0364 31.9872 43.9306C31.9846 43.611 31.9824 43.2915 31.9803 42.972C31.9794 42.8513 31.9786 42.7305 31.9777 42.6097C31.9635 40.6292 31.9559 38.6486 31.954 36.6679C31.9537 36.4271 31.9533 36.1862 31.9527 35.9453C31.9521 35.6503 31.9518 35.3553 31.9518 35.0603C31.9519 34.9093 31.9518 34.7582 31.9513 34.6072C31.9509 34.4424 31.9511 34.2777 31.9513 34.113C31.9511 34.0655 31.9508 34.018 31.9506 33.9691C31.9535 33.2151 32.1516 32.5756 32.6691 32.0153C33.1788 31.5274 33.7772 31.3531 34.4716 31.3599C34.5451 31.3599 34.5451 31.3599 34.6202 31.3598C34.7548 31.3599 34.8894 31.3605 35.024 31.3614C35.1698 31.3622 35.3155 31.3622 35.4613 31.3624C35.7462 31.3628 36.0312 31.3639 36.3161 31.3653C36.5478 31.3664 36.7795 31.3673 37.0112 31.3679C37.0443 31.368 37.0774 31.3681 37.1114 31.3682C37.1786 31.3684 37.2458 31.3686 37.313 31.3688C37.942 31.3706 38.5709 31.3732 39.1999 31.3761C39.7388 31.3786 40.2777 31.3804 40.8166 31.3817C41.4435 31.3832 42.0703 31.3851 42.6971 31.3877C42.764 31.388 42.831 31.3882 42.8979 31.3885C42.9308 31.3887 42.9637 31.3888 42.9977 31.3889C43.2289 31.3898 43.4602 31.3905 43.6914 31.391C43.9735 31.3916 44.2556 31.3927 44.5377 31.3944C44.6814 31.3952 44.8252 31.3958 44.9689 31.3959C45.1251 31.3961 45.2813 31.3971 45.4375 31.3983C45.4824 31.3982 45.5273 31.398 45.5735 31.3979C46.194 31.4048 46.7858 31.6021 47.2439 32.033C47.7203 32.5657 47.9743 33.1662 47.9607 33.8842C47.9048 34.52 47.6695 35.085 47.1984 35.5274C46.7604 35.888 46.251 36.1179 45.6792 36.1204C45.6497 36.1206 45.6201 36.1209 45.5897 36.1211C45.4918 36.1218 45.3939 36.1219 45.2959 36.1221C45.2253 36.1224 45.1548 36.1229 45.0842 36.1233C44.8932 36.1244 44.7023 36.1251 44.5114 36.1256C44.3116 36.1263 44.1118 36.1274 43.912 36.1284C43.534 36.1304 43.1559 36.1319 42.7779 36.1333C42.3474 36.1349 41.9169 36.1369 41.4864 36.139C40.6011 36.1433 39.7158 36.147 38.8305 36.1503C38.8965 36.21 38.9626 36.2696 39.0287 36.3291C39.0655 36.3623 39.1023 36.3955 39.1401 36.4297C39.2752 36.5492 39.4144 36.6606 39.5591 36.7681C39.5871 36.789 39.6151 36.8098 39.6439 36.8312C39.9699 37.0695 40.3122 37.2785 40.6623 37.4794C40.6909 37.4959 40.7195 37.5124 40.7489 37.5295C41.6408 38.0401 42.6242 38.3633 43.6285 38.5696C43.6589 38.5759 43.6893 38.5822 43.7207 38.5886C44.3032 38.7008 44.8837 38.7413 45.4759 38.7383C45.5247 38.7382 45.5247 38.7382 45.5744 38.738C48.2797 38.7262 50.7465 37.5746 52.652 35.6935C52.7556 35.587 52.8503 35.4768 52.9435 35.3612C52.9813 35.3157 53.0191 35.2701 53.057 35.2246C54.0818 33.9812 54.7502 32.558 55.1269 30.9972C55.1499 30.9173 55.1499 30.9173 55.1915 30.8757C55.2512 30.8713 55.3111 30.8697 55.371 30.8692C55.4092 30.8688 55.4475 30.8683 55.487 30.8679C55.5289 30.8676 55.5708 30.8673 55.614 30.867C55.7032 30.8658 55.7925 30.8646 55.8817 30.8634C56.022 30.8617 56.1622 30.8602 56.3025 30.8591C57.0391 30.8527 57.7524 30.809 58.4622 30.598C58.4979 30.5876 58.5337 30.5772 58.5706 30.5665C58.9991 30.4366 59.4197 30.2638 59.8051 30.035C59.9375 29.962 59.9375 29.962 60.0624 29.962Z" fill="#ED1C24"/>
</svg>
