<svg width="157" height="60" viewBox="0 0 157 60" fill="none" xmlns="http://www.w3.org/2000/svg">
<path d="M70.9469 39.8492C71.0827 39.9591 71.212 40.0747 71.3403 40.1934C71.3845 40.2333 71.3845 40.2333 71.4295 40.274C71.5571 40.4025 71.6057 40.4965 71.6161 40.6788C71.6063 40.7973 71.59 40.858 71.5328 40.9644C71.3574 41.0602 71.2013 41.0719 71.0072 41.0241C70.9149 40.9554 70.8464 40.8785 70.7703 40.7924C70.1746 40.169 69.278 39.8413 68.4276 39.8173C67.441 39.8022 66.5443 40.1605 65.8272 40.8345C65.4567 41.202 65.197 41.6183 65.0124 42.1039C64.9853 42.1731 64.9853 42.1731 64.9577 42.2437C64.6841 43.0796 64.7895 44.0408 65.1711 44.8217C65.32 45.1107 65.4921 45.3713 65.7285 45.5972C65.8033 45.6757 65.8033 45.6757 65.8033 45.7587C65.8283 45.7702 65.8534 45.7817 65.8791 45.7935C65.9699 45.8418 65.9699 45.8418 66.0896 45.9508C66.8168 46.5874 67.7475 46.7662 68.6856 46.7224C69.3678 46.6726 70.008 46.3768 70.5493 45.9664C70.5768 45.9458 70.6042 45.9252 70.6325 45.9039C71.2269 45.4233 71.5639 44.695 71.7566 43.9729C71.7842 43.8759 71.812 43.779 71.8398 43.6821C71.7756 43.6825 71.7756 43.6825 71.7101 43.683C71.3064 43.6855 70.9027 43.6874 70.499 43.6886C70.2915 43.6892 70.084 43.6901 69.8765 43.6915C69.6762 43.6929 69.4759 43.6936 69.2756 43.6939C69.1992 43.6942 69.1228 43.6946 69.0464 43.6953C68.9394 43.6962 68.8323 43.6963 68.7253 43.6963C68.6937 43.6967 68.6622 43.6972 68.6296 43.6976C68.3918 43.6962 68.2595 43.6405 68.093 43.4745C68.0721 43.3483 68.0741 43.227 68.093 43.1007C68.1712 42.9968 68.2279 42.9504 68.3428 42.893C68.4688 42.8885 68.5937 42.8865 68.7197 42.8863C68.7587 42.8861 68.7978 42.8859 68.8381 42.8857C68.9677 42.8851 69.0974 42.8848 69.227 42.8846C69.3169 42.8843 69.4068 42.8841 69.4968 42.8839C69.6855 42.8834 69.8742 42.8832 70.063 42.883C70.3049 42.8828 70.5468 42.8818 70.7887 42.8806C70.9745 42.8799 71.1603 42.8796 71.3462 42.8796C71.4354 42.8794 71.5245 42.8791 71.6137 42.8786C71.7385 42.8779 71.8633 42.8779 71.988 42.8782C72.0249 42.8778 72.0618 42.8774 72.0998 42.8771C72.2952 42.8784 72.4339 42.8853 72.5892 43.0176C72.6824 43.2659 72.6788 43.4813 72.649 43.7418C72.645 43.778 72.641 43.8142 72.6369 43.8516C72.54 44.6325 72.2407 45.3722 71.7149 45.9664C71.6873 45.9994 71.6597 46.0324 71.6312 46.0663C70.9039 46.9105 69.8761 47.4507 68.7591 47.5446C67.556 47.6091 66.4395 47.3523 65.5119 46.5479C65.4782 46.5202 65.4445 46.4926 65.4098 46.4641C64.6407 45.8127 64.1407 44.8883 64.0132 43.8898C64.0011 43.6924 63.9993 43.4957 64.0002 43.298C64.0004 43.2447 64.0006 43.1914 64.0008 43.1364C64.0148 42.0064 64.4773 41.039 65.2517 40.2272C66.7472 38.7933 69.282 38.5497 70.9469 39.8492Z" fill="#231F20"/>
<path d="M85.2199 39.014C85.2644 39.0139 85.3089 39.0137 85.3547 39.0136C85.4484 39.0135 85.5421 39.0138 85.6357 39.0143C85.7777 39.0149 85.9196 39.0143 86.0616 39.0135C86.1531 39.0136 86.2446 39.0137 86.3362 39.014C86.3988 39.0136 86.3988 39.0136 86.4628 39.0132C87.1148 39.0195 87.6361 39.2371 88.1084 39.6829C88.565 40.1527 88.7632 40.6944 88.7569 41.3449C88.7338 42.0824 88.3492 42.6467 87.8263 43.1422C87.858 43.1685 87.8897 43.1947 87.9224 43.2217C88.4123 43.6397 88.8167 44.1565 88.876 44.8204C88.9035 45.279 88.8877 45.7057 88.7005 46.1325C88.6859 46.1659 88.6713 46.1993 88.6563 46.2336C88.3705 46.8048 87.8222 47.2504 87.2223 47.4558C86.7911 47.5709 86.3596 47.5649 85.9161 47.5632C85.7811 47.5628 85.6463 47.564 85.5114 47.5653C85.4242 47.5654 85.3371 47.5654 85.25 47.5652C85.2104 47.5657 85.1707 47.5662 85.1299 47.5667C84.7152 47.5624 84.3662 47.4487 84.0648 47.1592C83.6509 46.7286 83.6569 46.256 83.6571 45.6862C83.657 45.6284 83.6569 45.5706 83.6567 45.5127C83.6563 45.3563 83.6562 45.1999 83.6562 45.0434C83.6562 44.9455 83.6561 44.8475 83.656 44.7496C83.6556 44.4074 83.6554 44.0651 83.6555 43.7228C83.6555 43.4048 83.655 43.0867 83.6544 42.7686C83.6538 42.4947 83.6536 42.2209 83.6536 41.947C83.6536 41.7838 83.6535 41.6206 83.6531 41.4573C83.6527 41.3037 83.6527 41.15 83.653 40.9963C83.6531 40.9137 83.6527 40.8311 83.6523 40.7485C83.6542 40.2222 83.6926 39.7482 84.0827 39.3597C84.43 39.0708 84.7768 39.0113 85.2199 39.014ZM84.5374 40.0688C84.4688 40.2418 84.4439 40.3858 84.4447 40.5713C84.4447 40.6203 84.4447 40.6693 84.4447 40.7199C84.4452 40.7722 84.4456 40.8245 84.446 40.8784C84.4461 40.9324 84.4463 40.9865 84.4464 41.0421C84.4467 41.1851 84.4475 41.3281 84.4484 41.4711C84.4493 41.6172 84.4497 41.7634 84.4501 41.9096C84.451 42.1958 84.4524 42.4821 84.4542 42.7684C84.7525 42.7727 85.0509 42.7756 85.3493 42.7776C85.4506 42.7784 85.5519 42.7795 85.6532 42.781C86.6473 42.8156 86.6473 42.8156 87.4932 42.3531C87.5193 42.3287 87.5454 42.3044 87.5723 42.2793C87.8515 41.9919 87.9579 41.6725 87.9746 41.2759C87.9598 40.8411 87.7986 40.5013 87.4979 40.1895C87.1136 39.8437 86.6842 39.7725 86.1805 39.7697C86.1475 39.7694 86.1144 39.7692 86.0803 39.769C86.0107 39.7686 85.9412 39.7683 85.8716 39.7681C85.7658 39.7677 85.6601 39.7664 85.5543 39.7651C85.4864 39.7649 85.4184 39.7646 85.3505 39.7645C85.3192 39.764 85.288 39.7635 85.2558 39.7629C84.9709 39.7641 84.7193 39.8337 84.5374 40.0688ZM84.4542 43.516C84.4513 43.8684 84.449 44.2208 84.4477 44.5731C84.447 44.7368 84.4462 44.9004 84.4447 45.0641C84.4434 45.2221 84.4426 45.3802 84.4423 45.5383C84.4421 45.5984 84.4416 45.6586 84.441 45.7188C84.4305 46.2178 84.4305 46.2178 84.6623 46.6465C84.7885 46.7488 84.8961 46.7609 85.0532 46.7629C85.09 46.7634 85.1269 46.7639 85.1648 46.7645C85.2047 46.7648 85.2445 46.7651 85.2855 46.7654C85.3473 46.7659 85.3473 46.7659 85.4105 46.7664C85.4979 46.767 85.5854 46.7675 85.6729 46.7678C85.8055 46.7685 85.938 46.7703 86.0706 46.7722C86.1558 46.7726 86.241 46.7729 86.3263 46.7732C86.385 46.7743 86.385 46.7743 86.4448 46.7754C86.9055 46.7739 87.2853 46.6156 87.6181 46.2987C87.9631 45.9382 88.1046 45.5487 88.0984 45.0522C88.0772 44.615 87.8963 44.2916 87.596 43.981C87.1331 43.5703 86.6464 43.5091 86.0519 43.512C86.0061 43.512 85.9603 43.5121 85.9132 43.5121C85.7677 43.5124 85.6222 43.5129 85.4767 43.5134C85.3778 43.5136 85.2788 43.5138 85.1799 43.514C84.938 43.5144 84.6961 43.5151 84.4542 43.516Z" fill="#231F20"/>
<path d="M78.0741 39.0176C78.1451 39.0179 78.1451 39.0179 78.2176 39.0183C79.4291 39.0356 80.4499 39.5364 81.2954 40.3919C81.4849 40.5887 81.65 40.7885 81.7897 41.0241C81.8173 41.0705 81.845 41.1169 81.8736 41.1647C82.4445 42.1575 82.5576 43.3222 82.2892 44.4297C81.9978 45.4446 81.3388 46.3022 80.4575 46.8801C80.4195 46.9053 80.3816 46.9305 80.3425 46.9564C79.3894 47.5505 78.1743 47.6929 77.085 47.4604C75.9675 47.1984 75.0058 46.5225 74.3777 45.5628C73.7788 44.563 73.5821 43.4023 73.8365 42.259C74.02 41.6011 74.3078 41.0478 74.754 40.5257C74.7786 40.4951 74.8033 40.4644 74.8287 40.4329C75.6255 39.4769 76.8496 39.0112 78.0741 39.0176ZM75.545 40.8579C75.5177 40.8821 75.4905 40.9063 75.4624 40.9313C74.9214 41.4214 74.5778 42.2265 74.541 42.9464C74.5037 43.9203 74.7161 44.8237 75.3941 45.5615C75.471 45.6424 75.5493 45.7214 75.6283 45.8003C75.6587 45.8311 75.6891 45.862 75.7205 45.8937C76.3428 46.4857 77.2043 46.7735 78.0533 46.7685C78.0953 46.7683 78.1374 46.768 78.1807 46.7678C79.1625 46.752 80.0033 46.3455 80.6914 45.6532C81.3534 44.9556 81.6462 44.0682 81.6321 43.1208C81.5992 42.1713 81.1572 41.3883 80.4991 40.7334C80.4708 40.7047 80.4425 40.676 80.4134 40.6464C79.0256 39.3364 76.8305 39.5909 75.545 40.8579Z" fill="#231F20"/>
<path d="M133.61 39.0175C133.657 39.0178 133.704 39.018 133.753 39.0182C134.752 39.032 135.698 39.3657 136.451 40.0273C136.485 40.0549 136.518 40.0824 136.553 40.1109C137.36 40.7935 137.82 41.7283 137.95 42.7684C137.961 42.9382 137.964 43.107 137.963 43.2772C137.963 43.3225 137.962 43.3678 137.962 43.4144C137.945 44.5312 137.524 45.4689 136.743 46.2571C136.713 46.2899 136.683 46.3227 136.652 46.3564C135.98 47.0778 134.96 47.4972 133.982 47.5498C132.635 47.5932 131.56 47.2304 130.557 46.3264C129.853 45.6586 129.349 44.6826 129.293 43.7049C129.292 43.6699 129.291 43.635 129.291 43.5991C129.289 43.5513 129.286 43.5036 129.284 43.4544C129.254 42.2469 129.657 41.1867 130.492 40.3047C131.326 39.4524 132.417 39.0114 133.61 39.0175ZM131.029 40.8969C130.505 41.4384 130.114 42.2163 130.082 42.9761C130.079 43.0207 130.077 43.0653 130.075 43.1112C130.05 44.1115 130.379 44.9678 131.066 45.7048C131.707 46.3644 132.569 46.7499 133.489 46.7677C134.551 46.7747 135.422 46.4539 136.191 45.7016C136.913 44.9565 137.184 44.0757 137.17 43.0582C137.145 42.2952 136.846 41.585 136.326 41.0241C136.289 40.9835 136.253 40.943 136.215 40.9013C135.551 40.1929 134.707 39.8282 133.737 39.7812C132.675 39.7488 131.785 40.1786 131.029 40.8969Z" fill="#231F20"/>
<path d="M118.504 39.8678C119.42 40.5943 120.041 41.5447 120.184 42.7139C120.302 43.8178 120.077 44.9187 119.391 45.8123C118.711 46.6441 117.902 47.2189 116.843 47.4616C116.799 47.4717 116.754 47.4819 116.709 47.4924C115.608 47.6991 114.414 47.4827 113.471 46.8801C113.31 46.7635 113.161 46.638 113.013 46.5063C112.98 46.479 112.947 46.4516 112.913 46.4234C112.166 45.7924 111.646 44.8234 111.556 43.8483C111.485 42.4151 111.79 41.3628 112.751 40.2794C114.236 38.7143 116.807 38.6077 118.504 39.8678ZM113.221 40.941C112.518 41.7419 112.285 42.6402 112.338 43.687C112.39 44.3807 112.709 45.0424 113.179 45.5511C113.213 45.5886 113.247 45.626 113.282 45.6646C113.896 46.3145 114.723 46.7284 115.624 46.7701C116.714 46.7966 117.61 46.4857 118.408 45.7373C118.921 45.2083 119.263 44.5788 119.382 43.8483C119.388 43.8182 119.393 43.7882 119.399 43.7572C119.536 42.8648 119.286 41.9547 118.758 41.2317C118.145 40.448 117.334 39.9595 116.35 39.8005C115.165 39.6653 114.042 40.0822 113.221 40.941Z" fill="#231F20"/>
<path d="M150.296 39.5393C150.359 39.5904 150.42 39.6423 150.481 39.695C150.512 39.7218 150.544 39.7487 150.576 39.7763C151.069 40.2301 151.341 40.8598 151.397 41.5224C151.403 41.7093 151.403 41.8961 151.404 42.083C151.404 42.1392 151.404 42.1954 151.404 42.2515C151.405 42.4032 151.405 42.5549 151.405 42.7066C151.405 42.8015 151.405 42.8964 151.406 42.9912C151.406 43.2884 151.407 43.5855 151.407 43.8826C151.407 44.2252 151.408 44.5677 151.409 44.9102C151.41 45.1754 151.41 45.4407 151.41 45.7059C151.41 45.8642 151.411 46.0224 151.411 46.1807C151.412 46.3293 151.412 46.478 151.412 46.6266C151.412 46.7071 151.412 46.7876 151.413 46.868C151.413 46.9401 151.413 46.9401 151.412 47.0136C151.412 47.0552 151.412 47.0969 151.412 47.1398C151.394 47.2752 151.353 47.3519 151.272 47.4616C151.118 47.564 151.038 47.5574 150.856 47.5446C150.715 47.4953 150.692 47.4658 150.606 47.337C150.598 47.2353 150.595 47.1385 150.596 47.0369C150.596 47.006 150.596 46.9751 150.596 46.9433C150.596 46.8433 150.597 46.7434 150.598 46.6434C150.598 46.5817 150.598 46.52 150.598 46.4582C150.598 46.2294 150.6 46.0005 150.601 45.7717C150.602 45.2603 150.604 44.7489 150.606 44.222C149.301 44.222 147.996 44.222 146.651 44.222C146.658 45.2397 146.658 45.2397 146.666 46.2573C146.667 46.4543 146.667 46.4543 146.667 46.5466C146.667 46.6109 146.668 46.6752 146.669 46.7396C146.67 46.8371 146.67 46.9346 146.67 47.0322C146.67 47.0607 146.671 47.0893 146.672 47.1188C146.67 47.2582 146.66 47.3259 146.572 47.4365C146.41 47.5596 146.311 47.5485 146.115 47.5243C146.026 47.5031 146.026 47.5031 145.943 47.4252C145.871 47.272 145.855 47.1541 145.854 46.9866C145.854 46.9397 145.854 46.8927 145.854 46.8444C145.854 46.7929 145.854 46.7414 145.854 46.6883C145.854 46.634 145.854 46.5798 145.853 46.5239C145.853 46.3749 145.853 46.2259 145.853 46.0769C145.853 45.9837 145.853 45.8904 145.853 45.7971C145.852 45.4712 145.852 45.1453 145.852 44.8194C145.852 44.5166 145.852 44.2138 145.851 43.911C145.851 43.6504 145.85 43.3899 145.85 43.1293C145.85 42.974 145.85 42.8186 145.85 42.6633C145.849 42.5168 145.849 42.3703 145.85 42.2238C145.85 42.1452 145.849 42.0667 145.849 41.9882C145.852 41.1499 146.051 40.4541 146.634 39.8355C147.607 38.8746 149.18 38.7094 150.296 39.5393ZM147.161 40.4282C146.411 41.2251 146.651 42.4532 146.651 43.4329C147.956 43.4329 149.261 43.4329 150.606 43.4329C150.716 41.7135 150.716 41.7135 150.003 40.3331C149.147 39.5334 147.978 39.6589 147.161 40.4282Z" fill="#231F20"/>
<path d="M100.499 39.0143C100.604 39.015 100.709 39.0143 100.814 39.0135C101.643 39.0124 102.304 39.2349 102.904 39.8263C103.427 40.3867 103.629 41.0318 103.616 41.7885C103.584 42.5343 103.246 43.1137 102.706 43.6158C102.618 43.6945 102.529 43.772 102.439 43.8483C102.48 43.884 102.521 43.9197 102.563 43.9565C103.119 44.4486 103.498 44.9616 103.604 45.7172C103.611 45.838 103.613 45.9586 103.614 46.0795C103.614 46.1137 103.615 46.1479 103.615 46.1831C103.616 46.255 103.616 46.327 103.617 46.3989C103.617 46.4723 103.618 46.5458 103.619 46.6192C103.621 46.7257 103.622 46.8322 103.622 46.9387C103.623 46.9877 103.623 46.9877 103.624 47.0377C103.624 47.1948 103.611 47.2852 103.525 47.419C103.412 47.5279 103.375 47.5427 103.217 47.5576C103.039 47.5426 102.978 47.5047 102.855 47.3785C102.805 47.2279 102.807 47.089 102.806 46.9322C102.805 46.8667 102.804 46.8013 102.803 46.7358C102.801 46.6333 102.8 46.5308 102.8 46.4283C102.796 45.7988 102.715 45.2866 102.272 44.8035C101.829 44.4048 101.38 44.2804 100.792 44.2798C100.74 44.2791 100.688 44.2784 100.635 44.2777C100.498 44.2761 100.361 44.2751 100.225 44.2745C100.085 44.2736 99.9445 44.2719 99.8043 44.2702C99.5306 44.2672 99.2569 44.265 98.9832 44.2636C98.9835 44.3006 98.9837 44.3376 98.984 44.3757C98.9865 44.7246 98.9884 45.0736 98.9897 45.4225C98.9903 45.6019 98.9912 45.7813 98.9926 45.9606C98.994 46.1338 98.9947 46.3069 98.995 46.4801C98.9953 46.5461 98.9957 46.6121 98.9964 46.6782C98.9973 46.7707 98.9974 46.8633 98.9974 46.9558C98.9976 47.0085 98.9979 47.0612 98.9982 47.1154C98.9819 47.2659 98.9499 47.3422 98.8583 47.4616C98.7027 47.5651 98.6263 47.5637 98.442 47.5446C98.3274 47.4701 98.2536 47.4179 98.1922 47.2954C98.1879 47.2093 98.1864 47.123 98.1861 47.0368C98.1858 46.9966 98.1858 46.9966 98.1856 46.9555C98.1852 46.8652 98.185 46.7749 98.1848 46.6846C98.1846 46.62 98.1843 46.5554 98.184 46.4908C98.1831 46.2781 98.1827 46.0654 98.1823 45.8527C98.1821 45.7794 98.1819 45.7061 98.1818 45.6328C98.181 45.2881 98.1804 44.9434 98.18 44.5988C98.1796 44.2016 98.1785 43.8045 98.1769 43.4074C98.1756 43.1001 98.175 42.7928 98.1748 42.4855C98.1747 42.3021 98.1744 42.1188 98.1733 41.9355C98.1723 41.7626 98.1722 41.5898 98.1726 41.4169C98.1726 41.3538 98.1724 41.2908 98.1718 41.2277C98.1661 40.5678 98.3083 40.0491 98.7646 39.5627C99.2723 39.0802 99.8271 39.0092 100.499 39.0143ZM99.1913 40.2765C99.0419 40.5108 98.9779 40.721 98.9785 40.9991C98.9785 41.0259 98.9785 41.0526 98.9784 41.0802C98.9785 41.1685 98.9788 41.2568 98.9791 41.3451C98.9792 41.4064 98.9793 41.4677 98.9793 41.529C98.9795 41.6902 98.9799 41.8514 98.9803 42.0126C98.9808 42.1771 98.981 42.3416 98.9812 42.5062C98.9816 42.8289 98.9823 43.1517 98.9832 43.4745C99.289 43.4777 99.5949 43.4798 99.9007 43.4813C100.005 43.4819 100.109 43.4828 100.212 43.4839C100.362 43.4854 100.512 43.4861 100.662 43.4866C100.708 43.4873 100.754 43.4879 100.801 43.4886C101.399 43.4887 101.864 43.3174 102.3 42.911C102.698 42.496 102.837 42.0448 102.824 41.4775C102.791 40.9879 102.562 40.6073 102.219 40.2645C101.77 39.8762 101.287 39.7854 100.713 39.7948C100.617 39.7963 100.52 39.7957 100.424 39.7949C99.9172 39.7954 99.5388 39.8875 99.1913 40.2765Z" fill="#231F20"/>
<path d="M109.193 39.5396C109.796 40.015 110.135 40.606 110.265 41.3563C110.282 41.5576 110.283 41.7576 110.282 41.9595C110.282 42.0178 110.283 42.076 110.283 42.1343C110.284 42.2907 110.284 42.4471 110.283 42.6035C110.283 42.7345 110.283 42.8655 110.284 42.9965C110.284 43.3054 110.284 43.6142 110.284 43.9231C110.283 44.2414 110.284 44.5596 110.285 44.8778C110.286 45.1519 110.286 45.426 110.286 45.7C110.286 45.8634 110.286 46.0267 110.287 46.1901C110.287 46.3434 110.287 46.4966 110.286 46.6499C110.286 46.7328 110.287 46.8158 110.287 46.8987C110.287 46.9729 110.287 46.9729 110.286 47.0486C110.286 47.0915 110.286 47.1344 110.286 47.1786C110.26 47.3261 110.201 47.3959 110.099 47.5031C109.97 47.5675 109.866 47.5567 109.724 47.5446C109.609 47.4701 109.536 47.4179 109.474 47.2954C109.47 47.2193 109.469 47.143 109.469 47.0668C109.469 47.0182 109.468 46.9696 109.468 46.9195C109.468 46.8659 109.468 46.8123 109.468 46.757C109.468 46.7002 109.468 46.6434 109.468 46.5865C109.468 46.4639 109.467 46.3413 109.467 46.2187C109.467 46.0243 109.466 45.83 109.465 45.6357C109.465 45.5691 109.465 45.5025 109.465 45.4359C109.465 45.4026 109.464 45.3692 109.464 45.3348C109.463 44.8824 109.461 44.43 109.461 43.9775C109.46 43.6725 109.459 43.3674 109.458 43.0623C109.457 42.901 109.456 42.7397 109.457 42.5785C109.457 42.4263 109.456 42.2742 109.455 42.122C109.455 42.0405 109.455 41.9589 109.455 41.8773C109.45 41.3732 109.339 40.9212 109.016 40.5257C108.993 40.4972 108.97 40.4686 108.947 40.4392C108.648 40.1066 108.201 39.8842 107.758 39.8258C107.166 39.7942 106.652 39.9495 106.185 40.318C105.82 40.6815 105.598 41.1274 105.597 41.6438C105.597 41.693 105.596 41.7423 105.596 41.793C105.596 41.8736 105.596 41.8736 105.596 41.9557C105.596 42.0131 105.596 42.0705 105.595 42.1279C105.595 42.2512 105.594 42.3746 105.594 42.498C105.594 42.6931 105.593 42.8882 105.592 43.0834C105.589 43.6381 105.587 44.1929 105.586 44.7477C105.585 45.0542 105.584 45.3608 105.582 45.6674C105.581 45.8295 105.581 45.9916 105.581 46.1538C105.58 46.3062 105.58 46.4587 105.579 46.6111C105.578 46.6937 105.578 46.7762 105.579 46.8588C105.578 46.908 105.578 46.9573 105.577 47.008C105.577 47.0507 105.577 47.0935 105.577 47.1375C105.558 47.2741 105.518 47.3511 105.436 47.4616C105.282 47.5641 105.202 47.5574 105.02 47.5446C104.879 47.4953 104.856 47.4658 104.77 47.337C104.759 47.2283 104.759 47.2283 104.759 47.0951C104.759 47.0447 104.758 46.9942 104.758 46.9422C104.758 46.8862 104.758 46.8301 104.758 46.7741C104.758 46.7152 104.758 46.6562 104.758 46.5973C104.757 46.4369 104.757 46.2766 104.757 46.1163C104.757 45.9823 104.757 45.8482 104.757 45.7142C104.757 45.3975 104.756 45.0809 104.757 44.7643C104.757 44.4385 104.756 44.1127 104.756 43.7869C104.755 43.5068 104.755 43.2266 104.755 42.9464C104.755 42.7793 104.755 42.6122 104.754 42.4451C104.754 42.2876 104.754 42.1301 104.754 41.9725C104.754 41.8879 104.754 41.8033 104.753 41.7187C104.758 40.9623 105.02 40.3021 105.558 39.7668C106.56 38.8395 108.08 38.7651 109.193 39.5396Z" fill="#231F20"/>
<path d="M94.4567 39.0232C94.5086 39.0226 94.5604 39.0221 94.6138 39.0215C94.67 39.0212 94.7262 39.0209 94.7824 39.0206C94.8109 39.0204 94.8394 39.0203 94.8687 39.0201C95.0193 39.0192 95.1699 39.0186 95.3205 39.0183C95.4757 39.0178 95.631 39.0164 95.7862 39.0147C95.9059 39.0136 96.0256 39.0133 96.1454 39.0131C96.2026 39.0129 96.2598 39.0124 96.317 39.0117C96.3971 39.0107 96.4772 39.0108 96.5573 39.011C96.6028 39.0107 96.6483 39.0105 96.6952 39.0103C96.8476 39.0353 96.9166 39.0907 97.0266 39.1966C97.0853 39.3138 97.0784 39.3989 97.0682 39.5289C97.0214 39.6431 97.0214 39.6431 96.9433 39.7366C96.7746 39.8054 96.6316 39.8299 96.4501 39.8296C96.4031 39.8297 96.3562 39.8299 96.3077 39.83C96.2575 39.8299 96.2073 39.8297 96.1556 39.8295C96.0482 39.8302 95.9409 39.8308 95.8336 39.8315C95.6651 39.8323 95.4967 39.8327 95.3282 39.8323C95.1651 39.832 95.0021 39.8334 94.839 39.8347C94.7891 39.8343 94.7392 39.8339 94.6878 39.8334C94.3718 39.8371 94.1243 39.884 93.8626 40.0688C93.5455 40.3981 93.5168 40.724 93.5123 41.1652C93.5115 41.2146 93.5107 41.2641 93.5099 41.315C93.5074 41.4724 93.5055 41.6298 93.5035 41.7872C93.5019 41.8941 93.5003 42.001 93.4987 42.108C93.4947 42.3696 93.4911 42.6313 93.4879 42.893C93.5292 42.8926 93.5705 42.8923 93.613 42.8919C94.0019 42.8885 94.3909 42.886 94.7799 42.8844C94.9798 42.8835 95.1798 42.8824 95.3798 42.8805C95.5728 42.8787 95.7658 42.8777 95.9588 42.8772C96.0324 42.8769 96.106 42.8763 96.1796 42.8754C96.2828 42.8742 96.3859 42.8741 96.489 42.8742C96.5194 42.8736 96.5498 42.873 96.5812 42.8723C96.7829 42.874 96.8851 42.9161 97.0266 43.0591C97.0775 43.1608 97.0689 43.2142 97.0578 43.3265C97.055 43.359 97.0522 43.3915 97.0493 43.425C97.0222 43.5334 96.9893 43.5725 96.9017 43.6406C96.7521 43.6903 96.6163 43.6876 96.4607 43.6868C96.4125 43.6868 96.4125 43.6868 96.3634 43.6869C96.2573 43.6868 96.1512 43.6865 96.0451 43.6862C95.9716 43.6861 95.898 43.686 95.8245 43.686C95.6309 43.6858 95.4372 43.6854 95.2436 43.685C95.046 43.6846 94.8485 43.6844 94.6509 43.6842C94.2632 43.6837 93.8756 43.683 93.4879 43.6821C93.4897 43.9947 93.4927 44.3072 93.4966 44.6198C93.4977 44.726 93.4986 44.8322 93.4992 44.9385C93.5001 45.0916 93.502 45.2447 93.5042 45.3978C93.5042 45.4449 93.5043 45.492 93.5043 45.5406C93.5106 45.8848 93.5693 46.1489 93.795 46.4155C94.0545 46.6313 94.2273 46.7184 94.5616 46.7205C94.6101 46.721 94.6586 46.7214 94.7086 46.7218C94.7608 46.7221 94.813 46.7224 94.8668 46.7227C94.949 46.7236 95.0312 46.7245 95.1133 46.7254C95.3158 46.7276 95.5183 46.7294 95.7208 46.7306C95.8345 46.7314 95.9482 46.7324 96.0619 46.7338C96.1689 46.735 96.2759 46.7359 96.383 46.7361C96.4316 46.7368 96.4802 46.7375 96.5303 46.7382C96.573 46.7385 96.6157 46.7389 96.6596 46.7392C96.7954 46.7581 96.8742 46.8008 96.9849 46.8801C97.0817 47.0134 97.088 47.1341 97.0682 47.2954C96.9933 47.4076 96.9398 47.4841 96.8184 47.5446C96.7392 47.5493 96.6599 47.5512 96.5806 47.552C96.5057 47.5528 96.5057 47.5528 96.4293 47.5536C96.3478 47.5541 96.3478 47.5541 96.2647 47.5545C96.2231 47.5548 96.2231 47.5548 96.1807 47.555C96.0335 47.5559 95.8863 47.5565 95.7391 47.5569C95.5884 47.5573 95.4377 47.5588 95.287 47.5604C95.1701 47.5615 95.0532 47.5619 94.9363 47.562C94.8542 47.5623 94.7721 47.5634 94.69 47.5645C94.1034 47.5631 93.6272 47.414 93.1967 47.0097C92.7784 46.5655 92.6844 46.0686 92.6848 45.4793C92.6846 45.4271 92.6843 45.3748 92.684 45.321C92.6833 45.1785 92.6831 45.0359 92.683 44.8934C92.683 44.804 92.6828 44.7147 92.6826 44.6254C92.6818 44.3129 92.6814 44.0005 92.6815 43.688C92.6816 43.398 92.6807 43.1081 92.6794 42.8182C92.6783 42.5682 92.6778 42.3182 92.6779 42.0682C92.6779 41.9194 92.6777 41.7706 92.6768 41.6217C92.6758 41.4554 92.6762 41.289 92.6767 41.1227C92.6762 41.0743 92.6758 41.0258 92.6753 40.976C92.679 40.4829 92.7997 40.0402 93.1132 39.6535C93.1332 39.628 93.1531 39.6025 93.1736 39.5763C93.4923 39.2142 93.9832 39.0274 94.4567 39.0232Z" fill="#231F20"/>
<path d="M143.331 39.0176C143.398 39.0178 143.398 39.0178 143.467 39.0181C144.372 39.0307 144.372 39.0307 144.626 39.2338C144.724 39.3591 144.733 39.4547 144.736 39.612C144.679 39.7334 144.622 39.8083 144.528 39.9027C144.291 39.9365 144.051 39.8952 143.817 39.8586C142.932 39.7351 142.069 39.9419 141.329 40.4389C141.224 40.5189 141.127 40.6028 141.031 40.6918C140.974 40.7423 140.974 40.7423 140.917 40.7939C140.285 41.3881 139.894 42.1643 139.852 43.036C139.838 43.5266 139.873 43.9636 140.032 44.4297C140.046 44.4729 140.06 44.5161 140.074 44.5606C140.382 45.3926 141.066 46.0201 141.843 46.4144C142.611 46.7637 143.461 46.814 144.285 46.6369C144.439 46.6291 144.522 46.6764 144.653 46.7555C144.743 46.8616 144.741 46.9536 144.733 47.0878C144.723 47.2139 144.698 47.2504 144.607 47.3428C144.466 47.4329 144.337 47.4669 144.174 47.4927C144.143 47.4977 144.113 47.5028 144.081 47.5079C142.915 47.6797 141.752 47.4399 140.786 46.7555C139.853 46.0292 139.266 45.1334 139.049 43.9648C138.924 42.8061 139.126 41.6933 139.836 40.7515C139.887 40.6896 139.938 40.6282 139.99 40.5672C140.02 40.5309 140.051 40.4946 140.082 40.4572C140.907 39.5078 142.077 39.0109 143.331 39.0176Z" fill="#231F20"/>
<path d="M153.478 39.0305C153.582 39.1084 153.629 39.165 153.686 39.2797C153.69 39.3662 153.692 39.4528 153.692 39.5394C153.692 39.5664 153.692 39.5933 153.692 39.6211C153.692 39.7118 153.692 39.8025 153.692 39.8932C153.692 39.9581 153.693 40.0229 153.693 40.0878C153.693 40.2278 153.693 40.3677 153.693 40.5077C153.694 40.7292 153.694 40.9507 153.695 41.1722C153.695 41.248 153.696 41.3239 153.696 41.3997C153.696 41.4377 153.696 41.4757 153.696 41.5148C153.698 42.0306 153.699 42.5463 153.7 43.0621C153.7 43.4098 153.701 43.7576 153.703 44.1053C153.704 44.2893 153.704 44.4732 153.704 44.6572C153.704 44.8305 153.704 45.0038 153.706 45.177C153.706 45.2404 153.706 45.3038 153.706 45.3672C153.704 45.7708 153.724 46.0973 153.993 46.4155C154.237 46.6182 154.411 46.7177 154.726 46.7212C154.788 46.722 154.788 46.722 154.851 46.7229C154.917 46.7235 154.917 46.7235 154.985 46.7242C155.078 46.7256 155.172 46.7269 155.265 46.7283C155.413 46.7303 155.56 46.7321 155.708 46.7338C155.85 46.7354 155.992 46.7376 156.135 46.7398C156.201 46.7403 156.201 46.7403 156.269 46.7408C156.33 46.7419 156.33 46.7419 156.393 46.7429C156.429 46.7433 156.465 46.7438 156.503 46.7442C156.61 46.7566 156.676 46.7801 156.767 46.8386C156.878 47.0048 156.88 47.1415 156.85 47.337C156.772 47.4409 156.716 47.4873 156.601 47.5446C156.534 47.5492 156.468 47.5512 156.401 47.552C156.359 47.5525 156.318 47.553 156.275 47.5536C156.23 47.5539 156.185 47.5542 156.138 47.5545C156.068 47.555 156.068 47.555 155.997 47.5555C155.897 47.5561 155.798 47.5565 155.699 47.5569C155.549 47.5576 155.399 47.5594 155.249 47.5612C154.509 47.5663 153.953 47.5215 153.386 47.0034C153.042 46.65 152.891 46.2153 152.89 45.7286C152.89 45.7011 152.89 45.6736 152.89 45.6452C152.889 45.5532 152.889 45.4613 152.889 45.3694C152.889 45.3033 152.889 45.2373 152.889 45.1712C152.889 44.992 152.888 44.8129 152.888 44.6337C152.888 44.4841 152.888 44.3346 152.888 44.185C152.888 43.8323 152.888 43.4795 152.888 43.1268C152.888 42.7627 152.887 42.3987 152.887 42.0346C152.886 41.7221 152.886 41.4095 152.886 41.097C152.886 40.9103 152.886 40.7236 152.885 40.537C152.885 40.3615 152.885 40.186 152.885 40.0106C152.885 39.9462 152.885 39.8817 152.885 39.8173C152.885 39.7294 152.885 39.6416 152.885 39.5537C152.885 39.5045 152.885 39.4553 152.885 39.4046C152.895 39.2819 152.91 39.2144 152.979 39.1136C153.145 39.0028 153.282 39.0008 153.478 39.0305Z" fill="#231F20"/>
<path d="M125.044 39.0098C125.084 39.0091 125.084 39.0091 125.125 39.0085C125.255 39.0419 125.324 39.1031 125.419 39.1966C125.445 39.3185 125.445 39.3185 125.445 39.4632C125.445 39.5032 125.445 39.5032 125.446 39.5441C125.447 39.6334 125.446 39.7226 125.445 39.812C125.445 39.876 125.446 39.9401 125.446 40.0042C125.447 40.1421 125.447 40.2801 125.446 40.4181C125.445 40.6364 125.446 40.8548 125.447 41.0732C125.448 41.4188 125.448 41.7645 125.448 42.1101C125.447 42.7284 125.448 43.3466 125.45 43.9649C125.451 44.1818 125.451 44.3986 125.45 44.6154C125.45 44.7507 125.45 44.886 125.451 45.0213C125.451 45.0838 125.451 45.1462 125.45 45.2087C125.442 45.8403 125.442 45.8403 125.719 46.3903C125.927 46.5981 126.159 46.7183 126.454 46.7205C126.495 46.721 126.536 46.7214 126.578 46.7218C126.622 46.7221 126.666 46.7224 126.712 46.7227C126.805 46.7239 126.899 46.7251 126.992 46.7263C127.14 46.728 127.287 46.7296 127.435 46.7307C127.577 46.7318 127.72 46.7337 127.862 46.7357C127.928 46.7359 127.928 46.7359 127.995 46.7361C128.382 46.7426 128.382 46.7426 128.541 46.8801C128.645 47.0353 128.644 47.1116 128.625 47.2954C128.55 47.4098 128.498 47.4834 128.375 47.5446C128.308 47.549 128.241 47.5508 128.174 47.5513C128.132 47.5517 128.09 47.5521 128.047 47.5525C127.979 47.5528 127.979 47.5528 127.909 47.5531C127.862 47.5533 127.816 47.5535 127.767 47.5538C127.668 47.5542 127.568 47.5544 127.469 47.5546C127.318 47.555 127.167 47.5563 127.016 47.5576C126.919 47.5579 126.822 47.5581 126.725 47.5583C126.681 47.5588 126.636 47.5593 126.59 47.5598C126.108 47.5584 125.733 47.4401 125.336 47.1708C125.299 47.1469 125.262 47.1229 125.224 47.0982C124.832 46.7176 124.655 46.2694 124.647 45.728C124.647 45.6342 124.647 45.5404 124.647 45.4466C124.647 45.3785 124.647 45.3104 124.646 45.2422C124.645 45.0585 124.646 44.8748 124.646 44.6911C124.646 44.5375 124.646 44.3839 124.646 44.2303C124.645 43.8682 124.645 43.506 124.646 43.1439C124.646 42.7703 124.646 42.3968 124.644 42.0233C124.643 41.7021 124.643 41.3809 124.643 41.0597C124.643 40.868 124.643 40.6764 124.643 40.4847C124.642 40.3048 124.642 40.125 124.643 39.9451C124.643 39.879 124.643 39.813 124.643 39.747C124.642 39.6569 124.643 39.5669 124.643 39.4769C124.644 39.4265 124.644 39.3761 124.644 39.3241C124.67 39.1966 124.67 39.1966 124.77 39.0974C124.874 39.0326 124.924 39.0078 125.044 39.0098Z" fill="#231F20"/>
<path d="M90.7783 39.0125C90.9039 39.0385 90.959 39.0937 91.0318 39.1966C91.0951 39.3229 91.0796 39.4541 91.0796 39.5926C91.0797 39.6253 91.0799 39.6579 91.08 39.6916C91.0805 39.8016 91.0806 39.9116 91.0808 40.0217C91.0811 40.1003 91.0813 40.179 91.0816 40.2576C91.0823 40.4717 91.0828 40.6858 91.0831 40.8999C91.0833 41.0336 91.0836 41.1673 91.0839 41.3009C91.0847 41.7189 91.0852 42.1369 91.0856 42.5549C91.086 43.0379 91.0871 43.5208 91.0888 44.0038C91.09 44.3768 91.0906 44.7498 91.0908 45.1228C91.0909 45.3457 91.0913 45.5686 91.0923 45.7915C91.0933 46.0012 91.0934 46.2109 91.093 46.4206C91.093 46.4976 91.0933 46.5746 91.0938 46.6516C91.0946 46.7566 91.0943 46.8617 91.0937 46.9667C91.0942 46.9972 91.0946 47.0278 91.0951 47.0592C91.0926 47.26 91.0499 47.3623 90.9069 47.5031C90.7778 47.5675 90.6746 47.5567 90.5322 47.5446C90.4176 47.4701 90.3438 47.4179 90.2824 47.2954C90.278 47.1903 90.2761 47.0862 90.276 46.981C90.2758 46.9481 90.2757 46.9153 90.2755 46.8815C90.2749 46.7709 90.2747 46.6603 90.2744 46.5497C90.2741 46.4706 90.2737 46.3916 90.2734 46.3125C90.2723 46.0524 90.2716 45.7922 90.2711 45.5321C90.2708 45.4427 90.2706 45.3532 90.2704 45.2638C90.2695 44.8918 90.2687 44.5198 90.2682 44.1478C90.2676 43.6141 90.2662 43.0805 90.2638 42.5468C90.2622 42.1719 90.2614 41.797 90.2612 41.422C90.261 41.1979 90.2605 40.9739 90.2592 40.7498C90.2579 40.539 90.2576 40.3282 90.2581 40.1175C90.2581 40.0401 90.2578 39.9627 90.2571 39.8853C90.2561 39.7796 90.2565 39.6741 90.2571 39.5685C90.2565 39.5378 90.256 39.5071 90.2554 39.4755C90.2579 39.3122 90.2777 39.244 90.3821 39.1153C90.5255 39.0032 90.6028 39.0029 90.7783 39.0125Z" fill="#231F20"/>
<path d="M83.5078 16.0001C83.5489 16.0001 83.59 16.0001 83.6323 16.0001C84.2995 16.0018 84.9408 16.0385 85.5945 16.1818C85.6357 16.1907 85.677 16.1996 85.7194 16.2087C88.1196 16.7442 90.251 18.276 91.5877 20.3319C91.6747 20.4696 91.7577 20.6093 91.8392 20.7503C91.8564 20.7799 91.8736 20.8095 91.8913 20.8401C92.6727 22.2031 93.0139 23.7237 93.0153 25.2851C93.0153 25.314 93.0153 25.3428 93.0154 25.3725C93.0119 27.6585 92.2058 29.7683 90.6735 31.4656C90.652 31.4896 90.6305 31.5136 90.6084 31.5384C90.3663 31.8081 90.1209 32.065 89.8409 32.2963C89.8027 32.3297 89.7645 32.3632 89.7251 32.3977C88.5402 33.4322 87.1268 34.119 85.5893 34.4456C85.5507 34.4538 85.512 34.4621 85.4722 34.4706C84.8319 34.5996 84.201 34.6378 83.5494 34.6351C83.4933 34.6349 83.4933 34.6349 83.4361 34.6348C82.8571 34.6329 82.2923 34.6095 81.7229 34.4975C81.6847 34.4901 81.6465 34.4828 81.6072 34.4752C79.9211 34.142 78.3883 33.3709 77.1345 32.1965C77.0309 32.1001 76.9253 32.0071 76.8182 31.9147C76.6467 31.7629 76.4996 31.5991 76.3524 31.4241C76.3187 31.3858 76.2849 31.3474 76.2502 31.3079C74.5965 29.4216 73.9198 27.0252 74.0718 24.5478C74.2394 22.5043 75.033 20.6328 76.4357 19.1305C76.4862 19.0728 76.5365 19.0148 76.5866 18.9566C76.8219 18.6879 77.0777 18.4459 77.3516 18.2168C77.3728 18.199 77.3941 18.1812 77.416 18.1628C77.818 17.8274 78.2377 17.5355 78.6838 17.2616C78.7527 17.2181 78.7527 17.2181 78.823 17.1738C79.6405 16.6799 80.5719 16.3739 81.5017 16.1714C81.5303 16.1651 81.5589 16.1588 81.5883 16.1523C82.2244 16.0229 82.8607 15.9987 83.5078 16.0001ZM79.0168 20.7503C78.9798 20.7852 78.9427 20.82 78.9045 20.8559C77.7141 22.0037 77.0837 23.5817 77.0503 25.2257C77.0398 27.0027 77.7111 28.5343 78.9336 29.8043C78.9557 29.8274 78.9779 29.8505 79.0007 29.8743C80.1406 31.0406 81.7408 31.6531 83.3575 31.6851C85.2464 31.7014 86.8224 31.0593 88.1757 29.7628C88.1988 29.7407 88.2219 29.7187 88.2457 29.6959C89.3922 28.5807 89.9866 27.0062 90.0171 25.4252C90.0288 23.7227 89.4238 22.1591 88.2353 20.9364C88.1798 20.8792 88.1251 20.8214 88.0704 20.7634C86.9457 19.5977 85.3393 18.9698 83.7312 18.923C81.9301 18.904 80.3185 19.5034 79.0168 20.7503Z" fill="#231F20"/>
<path d="M98.9915 15.7461C99.0309 15.7458 99.0702 15.7456 99.1107 15.7453C99.2396 15.7445 99.3685 15.7443 99.4974 15.7442C99.5881 15.744 99.6789 15.7437 99.7696 15.7434C99.9597 15.7429 100.15 15.7427 100.34 15.7428C100.581 15.7428 100.822 15.7417 101.063 15.7402C101.251 15.7393 101.438 15.7391 101.626 15.7392C101.715 15.7391 101.803 15.7387 101.892 15.7381C102.607 15.7333 103.31 15.7951 103.982 16.0593C104.014 16.0716 104.047 16.0839 104.08 16.0966C105.381 16.6104 106.449 17.6991 107.006 18.9709C107.099 19.1983 107.175 19.4238 107.235 19.6622C107.253 19.7334 107.253 19.7334 107.272 19.8061C107.454 20.6313 107.445 21.6251 107.235 22.4449C107.228 22.4726 107.221 22.5004 107.214 22.5289C107.014 23.3017 106.586 24.233 105.902 24.6876C105.949 24.8265 105.985 24.8562 106.095 24.9472C107.06 25.7712 107.526 26.9443 107.643 28.1889C107.756 29.7393 107.399 31.1724 106.385 32.3746C105.398 33.4808 104.151 34.2204 102.655 34.3646C102.523 34.3707 102.39 34.3716 102.257 34.372C102.219 34.3722 102.181 34.3725 102.141 34.3728C102.015 34.3736 101.889 34.3741 101.763 34.3745C101.698 34.3748 101.698 34.3748 101.631 34.375C101.401 34.3759 101.171 34.3765 100.941 34.3769C100.706 34.3773 100.47 34.3788 100.234 34.3804C100.051 34.3815 99.8684 34.3819 99.6856 34.382C99.5987 34.3822 99.5119 34.3827 99.4251 34.3835C98.7836 34.3888 98.177 34.3516 97.5996 34.0402C97.5721 34.0258 97.5445 34.0115 97.5161 33.9968C97.2945 33.8785 97.0993 33.7406 96.9101 33.5755C96.8696 33.544 96.8696 33.544 96.8283 33.5118C96.1852 32.9947 95.8245 32.2293 95.7117 31.4245C95.6924 31.2257 95.6968 31.0257 95.697 30.8261C95.6968 30.7751 95.6967 30.7241 95.6966 30.6716C95.6963 30.5305 95.6962 30.3894 95.6961 30.2484C95.6961 30.096 95.6957 29.9437 95.6955 29.7913C95.6949 29.4584 95.6946 29.1254 95.6945 28.7924C95.6943 28.5843 95.6942 28.3762 95.694 28.168C95.6935 27.5911 95.693 27.0141 95.6929 26.4372C95.6929 26.4003 95.6929 26.3634 95.6929 26.3254C95.6929 26.2884 95.6929 26.2514 95.6929 26.2133C95.6928 26.1384 95.6928 26.0634 95.6928 25.9885C95.6928 25.9513 95.6928 25.9142 95.6928 25.8759C95.6926 25.2742 95.6919 24.6725 95.6909 24.0709C95.6899 23.4523 95.6894 22.8337 95.6894 22.2151C95.6893 21.8682 95.6891 21.5212 95.6883 21.1743C95.6877 20.8787 95.6875 20.5831 95.6878 20.2875C95.688 20.137 95.6879 19.9864 95.6873 19.8358C95.6824 18.5008 95.8686 17.5628 96.8303 16.5836C97.4163 16.0283 98.1902 15.7453 98.9915 15.7461ZM98.8121 18.829C98.7086 18.9552 98.695 19.0591 98.6952 19.2166C98.6952 19.2528 98.6951 19.2889 98.6951 19.3262C98.6952 19.3658 98.6954 19.4053 98.6955 19.4461C98.6955 19.4878 98.6955 19.5295 98.6955 19.5726C98.6955 19.7108 98.6958 19.849 98.6962 19.9872C98.6962 20.0829 98.6963 20.1786 98.6963 20.2744C98.6965 20.5265 98.6969 20.7787 98.6974 21.0308C98.6978 21.288 98.698 21.5453 98.6982 21.8025C98.6986 22.3073 98.6994 22.8122 98.7002 23.317C99.136 23.319 99.5717 23.3205 100.007 23.3213C100.21 23.3218 100.412 23.3224 100.615 23.3233C100.81 23.3242 101.006 23.3247 101.202 23.3249C101.276 23.3251 101.35 23.3254 101.425 23.3258C102.219 23.3305 102.947 23.2795 103.571 22.7356C103.605 22.7104 103.639 22.6853 103.674 22.6593C104.063 22.3278 104.295 21.8223 104.362 21.3235C104.399 20.6447 104.284 20.0395 103.83 19.5061C103.334 18.9555 102.756 18.7286 102.031 18.6654C101.804 18.6548 101.577 18.6537 101.35 18.6544C101.287 18.6543 101.224 18.6543 101.161 18.6542C101.031 18.654 100.9 18.6542 100.77 18.6546C100.603 18.6551 100.437 18.6548 100.27 18.6543C100.141 18.654 100.011 18.6541 99.882 18.6543C99.8205 18.6544 99.759 18.6543 99.6975 18.6541C99.6117 18.6539 99.526 18.6542 99.4403 18.6547C99.3674 18.6548 99.3674 18.6548 99.2931 18.6549C99.1035 18.6697 98.9588 18.7064 98.8121 18.829ZM98.7002 26.2658C98.6973 26.8904 98.6951 27.515 98.6938 28.1395C98.6931 28.4295 98.6922 28.7195 98.6908 29.0096C98.6894 29.2893 98.6887 29.5691 98.6884 29.8489C98.6882 29.9558 98.6877 30.0626 98.687 30.1694C98.6861 30.3189 98.686 30.4683 98.6861 30.6177C98.6856 30.6621 98.6852 30.7064 98.6847 30.752C98.6858 31.0179 98.7074 31.1685 98.8963 31.3655C99.0318 31.437 99.1599 31.4336 99.3095 31.4326C99.3573 31.433 99.3573 31.433 99.406 31.4335C99.5114 31.4342 99.6168 31.4341 99.7221 31.4338C99.7959 31.434 99.8697 31.4343 99.9435 31.4345C100.098 31.4349 100.253 31.4348 100.408 31.4344C100.605 31.4339 100.802 31.4347 100.999 31.4359C101.151 31.4367 101.304 31.4367 101.457 31.4365C101.529 31.4364 101.602 31.4367 101.674 31.4372C102.555 31.4426 103.292 31.2545 103.946 30.6267C104.512 29.9925 104.654 29.3169 104.62 28.4937C104.578 27.9197 104.281 27.3636 103.862 26.9719C103.147 26.3655 102.455 26.2461 101.546 26.2537C101.464 26.2539 101.381 26.2541 101.299 26.2542C101.084 26.2547 100.869 26.2559 100.654 26.2573C100.433 26.2586 100.213 26.2591 99.9929 26.2598C99.562 26.2611 99.1311 26.2632 98.7002 26.2658Z" fill="#231F20"/>
<path d="M148.575 15.7497C148.621 15.7493 148.621 15.7493 148.668 15.7489C149.943 15.7395 149.943 15.7395 150.489 15.8828C150.522 15.8908 150.554 15.8988 150.587 15.9071C151.318 16.0925 152.005 16.3877 152.612 16.838C152.635 16.8542 152.657 16.8703 152.68 16.8869C154.004 17.8538 154.913 19.2232 155.204 20.8407C155.262 21.2489 155.283 21.6549 155.282 22.0669C155.282 22.114 155.283 22.1612 155.283 22.2097C155.283 22.3663 155.283 22.5229 155.283 22.6794C155.283 22.7922 155.283 22.905 155.283 23.0178C155.284 23.2916 155.284 23.5653 155.284 23.839C155.284 24.0616 155.284 24.2841 155.284 24.5066C155.284 25.1384 155.285 25.7702 155.285 26.402C155.285 26.453 155.285 26.453 155.284 26.505C155.284 26.539 155.284 26.573 155.284 26.6081C155.284 27.1601 155.285 27.7122 155.285 28.2642C155.286 28.8318 155.286 29.3995 155.286 29.9672C155.286 30.2855 155.286 30.6039 155.287 30.9223C155.287 31.1931 155.287 31.464 155.287 31.7349C155.287 31.873 155.287 32.011 155.287 32.1491C155.288 32.299 155.287 32.4489 155.287 32.5988C155.287 32.6638 155.287 32.6638 155.288 32.7301C155.285 33.2049 155.196 33.5935 154.865 33.9513C154.475 34.31 154.099 34.3857 153.581 34.3757C153.143 34.3562 152.866 34.1337 152.571 33.8247C152.365 33.5875 152.269 33.3546 152.269 33.0404C152.269 32.9687 152.269 32.9687 152.269 32.8956C152.269 32.8176 152.269 32.8176 152.27 32.738C152.27 32.6814 152.27 32.6248 152.27 32.5683C152.27 32.4172 152.27 32.2661 152.271 32.115C152.271 31.973 152.271 31.8311 152.271 31.6892C152.272 31.2744 152.273 30.8597 152.274 30.445C152.276 29.5182 152.278 28.5913 152.279 27.6364C150.109 27.6364 147.938 27.6364 145.702 27.6364C145.708 29.4629 145.708 29.4629 145.717 31.2894C145.717 31.6435 145.717 31.6435 145.718 31.8094C145.718 31.9249 145.718 32.0403 145.719 32.1557C145.72 32.3033 145.721 32.4509 145.72 32.5985C145.721 32.6777 145.721 32.7569 145.722 32.8361C145.72 33.2684 145.625 33.598 145.323 33.9154C144.955 34.2639 144.626 34.3859 144.118 34.3822C143.68 34.3665 143.339 34.177 143.04 33.8648C142.736 33.5057 142.685 33.1292 142.689 32.6704C142.688 32.6227 142.688 32.575 142.688 32.5259C142.688 32.367 142.688 32.208 142.689 32.0491C142.689 31.9348 142.688 31.8205 142.688 31.7062C142.688 31.4284 142.688 31.1506 142.689 30.8728C142.689 30.5487 142.689 30.2246 142.689 29.9004C142.689 29.3215 142.689 28.7426 142.69 28.1637C142.691 27.6033 142.691 27.0429 142.691 26.4825C142.691 25.8712 142.691 25.2599 142.691 24.6486C142.691 24.5832 142.691 24.5179 142.691 24.4525C142.691 24.4203 142.692 24.3882 142.692 24.3551C142.692 24.1297 142.692 23.9044 142.692 23.6791C142.692 23.4038 142.692 23.1286 142.692 22.8533C142.693 22.7132 142.693 22.573 142.693 22.4329C142.692 21.7239 142.696 21.023 142.876 20.3319C142.885 20.2976 142.894 20.2632 142.903 20.2279C143.147 19.3289 143.606 18.5127 144.245 17.8348C144.269 17.8083 144.294 17.7819 144.32 17.7547C145.426 16.5831 146.93 15.7602 148.575 15.7497ZM146.601 19.6763C145.296 21.0492 145.702 22.8766 145.702 24.6876C147.872 24.6876 150.043 24.6876 152.279 24.6876C152.464 21.8981 152.464 21.8981 151.28 19.5792C149.924 18.3216 147.903 18.4106 146.601 19.6763Z" fill="#231F20"/>
<path d="M126.344 15.7515C126.386 15.7511 126.386 15.7511 126.428 15.7508C126.519 15.7502 126.61 15.7499 126.7 15.7497C126.748 15.7495 126.748 15.7495 126.796 15.7494C126.962 15.7487 127.129 15.7484 127.295 15.7482C127.432 15.748 127.568 15.7474 127.704 15.7465C129.157 15.7366 129.157 15.7366 129.757 15.8827C129.786 15.8898 129.816 15.8969 129.846 15.9041C130.857 16.1492 131.746 16.6768 132.484 17.4005C132.544 17.4586 132.605 17.5154 132.665 17.5721C133.642 18.5023 134.289 19.8554 134.342 21.209C134.369 22.4896 134.369 22.4896 134.211 23.1094C134.203 23.1425 134.195 23.1757 134.186 23.2099C133.906 24.2997 133.332 25.2283 132.512 25.9996C132.422 26.0986 132.393 26.1365 132.38 26.2658C132.458 26.3561 132.534 26.4327 132.622 26.5124C133.656 27.4983 134.304 28.8926 134.351 30.3243C134.354 30.484 134.355 30.6435 134.354 30.8032C134.355 30.8728 134.355 30.9425 134.355 31.0121C134.355 31.1565 134.355 31.3008 134.355 31.4452C134.354 31.6291 134.355 31.813 134.357 31.997C134.357 32.1401 134.357 32.2833 134.357 32.4265C134.357 32.4943 134.357 32.5621 134.358 32.6299C134.361 33.1323 134.319 33.5357 133.958 33.9154C133.593 34.2607 133.262 34.3874 132.758 34.385C132.367 34.37 132.027 34.2206 131.745 33.9496C131.362 33.5109 131.327 33.0593 131.328 32.4954C131.328 32.406 131.327 32.3167 131.326 32.2273C131.324 31.9735 131.323 31.7198 131.323 31.466C131.323 31.3098 131.322 31.1537 131.32 30.9976C131.32 30.9389 131.32 30.8801 131.32 30.8214C131.323 29.9179 131.016 29.2035 130.397 28.5475C129.769 27.9357 128.993 27.7173 128.141 27.7109C128.106 27.7105 128.072 27.7101 128.036 27.7097C127.923 27.7084 127.81 27.7073 127.697 27.7063C127.619 27.7054 127.54 27.7046 127.461 27.7037C127.255 27.7014 127.048 27.6993 126.842 27.6973C126.631 27.6952 126.42 27.6929 126.209 27.6906C125.796 27.6862 125.383 27.682 124.969 27.6779C124.97 27.7058 124.97 27.7336 124.97 27.7624C124.973 28.4418 124.975 29.1213 124.976 29.8008C124.977 30.1294 124.977 30.458 124.979 30.7866C124.98 31.0731 124.981 31.3596 124.981 31.6462C124.981 31.7978 124.982 31.9494 124.983 32.101C124.984 32.2706 124.984 32.4402 124.984 32.6098C124.984 32.6595 124.984 32.7093 124.985 32.7606C124.983 33.2715 124.869 33.6141 124.521 33.9871C124.195 34.3003 123.828 34.3911 123.384 34.384C122.901 34.3616 122.587 34.1773 122.263 33.8247C121.978 33.4629 121.96 33.1138 121.961 32.6669C121.961 32.6129 121.961 32.5589 121.961 32.5032C121.96 32.3537 121.96 32.2042 121.96 32.0547C121.961 31.8933 121.96 31.7318 121.96 31.5704C121.959 31.2542 121.959 30.938 121.959 30.6218C121.959 30.3645 121.959 30.1073 121.959 29.85C121.959 29.8134 121.959 29.7767 121.959 29.739C121.959 29.6645 121.959 29.5901 121.959 29.5156C121.959 28.8174 121.959 28.1192 121.959 27.4209C121.959 26.7833 121.959 26.1457 121.958 25.5081C121.957 24.8525 121.957 24.197 121.957 23.5415C121.957 23.1738 121.957 22.8061 121.956 22.4385C121.956 22.1252 121.956 21.8119 121.956 21.4987C121.956 21.3391 121.956 21.1795 121.956 21.02C121.952 19.7118 122.103 18.4756 123.013 17.461C123.041 17.4276 123.069 17.3942 123.098 17.3597C123.898 16.4295 125.096 15.7586 126.344 15.7515ZM125.373 19.304C125.044 19.692 124.956 20.0773 124.96 20.5752C124.96 20.6202 124.96 20.6652 124.96 20.7116C124.96 20.8597 124.961 21.0078 124.961 21.1559C124.961 21.2588 124.962 21.3618 124.962 21.4647C124.962 21.7352 124.963 22.0056 124.964 22.2761C124.965 22.5522 124.965 22.8284 124.965 23.1046C124.966 23.6461 124.968 24.1876 124.969 24.7291C125.446 24.733 125.923 24.7359 126.4 24.7377C126.622 24.7386 126.844 24.7398 127.065 24.7416C127.279 24.7435 127.494 24.7445 127.708 24.7449C127.789 24.7452 127.871 24.7458 127.952 24.7467C128.878 24.7566 129.673 24.579 130.381 23.94C130.411 23.914 130.44 23.888 130.471 23.8612C130.986 23.3795 131.318 22.6757 131.352 21.9735C131.377 21.1137 131.191 20.3554 130.6 19.7089C129.975 19.0562 129.226 18.7129 128.322 18.6869C128.126 18.6841 127.931 18.6839 127.735 18.6853C127.584 18.6862 127.433 18.6853 127.282 18.6842C126.532 18.6833 125.912 18.7295 125.373 19.304Z" fill="#231F20"/>
<path d="M114.097 15.7461C114.149 15.7458 114.2 15.7455 114.253 15.7453C114.392 15.7446 114.532 15.7443 114.671 15.7443C114.759 15.7442 114.846 15.744 114.934 15.7438C115.239 15.743 115.545 15.7427 115.851 15.7428C116.135 15.7428 116.419 15.7419 116.703 15.7406C116.948 15.7395 117.192 15.7391 117.437 15.7392C117.583 15.7392 117.729 15.7389 117.874 15.7381C118.037 15.7371 118.2 15.7375 118.362 15.738C118.41 15.7375 118.457 15.7371 118.507 15.7366C118.977 15.7402 119.294 15.8764 119.632 16.1998C119.952 16.5432 120.037 16.8895 120.028 17.3544C119.991 17.7794 119.793 18.1298 119.471 18.4073C119.101 18.6767 118.688 18.7257 118.241 18.7223C118.195 18.7224 118.149 18.7226 118.101 18.7228C118.002 18.723 117.903 18.723 117.804 18.7227C117.647 18.7224 117.489 18.7228 117.332 18.7234C116.942 18.7249 116.552 18.7252 116.161 18.7251C115.831 18.725 115.501 18.7256 115.17 18.7271C115.016 18.7276 114.862 18.7271 114.707 18.7265C114.612 18.7269 114.517 18.7273 114.421 18.7278C114.379 18.7274 114.337 18.727 114.293 18.7266C113.866 18.7308 113.499 18.8495 113.188 19.1468C112.874 19.5222 112.808 19.9205 112.805 20.3931C112.804 20.4275 112.804 20.462 112.803 20.4975C112.802 20.6106 112.801 20.7236 112.8 20.8366C112.799 20.9154 112.798 20.9941 112.797 21.0728C112.795 21.2794 112.793 21.4859 112.791 21.6924C112.789 21.9035 112.787 22.1145 112.784 22.3255C112.78 22.7391 112.776 23.1527 112.772 23.5662C112.816 23.5661 112.816 23.5661 112.861 23.566C113.583 23.5642 114.306 23.5628 115.028 23.5619C115.377 23.5615 115.726 23.5609 116.075 23.56C116.38 23.5591 116.684 23.5586 116.989 23.5584C117.15 23.5583 117.311 23.5581 117.472 23.5574C117.624 23.5569 117.776 23.5567 117.928 23.5568C118.01 23.5568 118.091 23.5564 118.173 23.5559C118.716 23.5571 119.198 23.6143 119.613 23.9885C119.938 24.3443 120.037 24.7324 120.028 25.2042C119.991 25.6407 119.794 25.9327 119.474 26.2243C119.216 26.4236 118.959 26.5256 118.629 26.525C118.551 26.5252 118.551 26.5252 118.472 26.5254C118.415 26.5251 118.358 26.5248 118.301 26.5245C118.241 26.5244 118.181 26.5244 118.12 26.5245C117.957 26.5245 117.794 26.524 117.63 26.5234C117.459 26.5229 117.289 26.5229 117.118 26.5228C116.794 26.5225 116.471 26.5218 116.148 26.521C115.78 26.5201 115.411 26.5196 115.043 26.5192C114.286 26.5183 113.529 26.5169 112.772 26.515C112.774 26.9721 112.777 27.4292 112.781 27.8863C112.783 28.0986 112.785 28.3109 112.786 28.5232C112.787 28.7284 112.789 28.9336 112.791 29.1388C112.792 29.2167 112.792 29.2947 112.792 29.3726C112.793 30.2243 112.793 30.2243 113.188 30.959C113.541 31.3047 113.983 31.3996 114.464 31.395C114.533 31.3953 114.533 31.3953 114.603 31.3957C114.703 31.3961 114.802 31.3961 114.901 31.3957C115.059 31.3952 115.216 31.3957 115.373 31.3964C115.679 31.3976 115.985 31.3978 116.29 31.3977C116.706 31.3976 117.122 31.3983 117.537 31.4C117.692 31.4004 117.847 31.4 118.001 31.3996C118.096 31.3999 118.192 31.4002 118.287 31.4005C118.33 31.4002 118.372 31.3999 118.416 31.3995C118.892 31.4029 119.3 31.5297 119.64 31.8728C119.939 32.2277 120.048 32.5985 120.031 33.0596C119.984 33.4937 119.794 33.7819 119.474 34.0739C119.123 34.3493 118.784 34.377 118.35 34.376C118.275 34.3763 118.275 34.3763 118.199 34.3767C118.063 34.3771 117.927 34.3772 117.791 34.3771C117.677 34.3771 117.563 34.3773 117.449 34.3775C117.18 34.378 116.91 34.378 116.641 34.3777C116.365 34.3775 116.088 34.378 115.812 34.3789C115.574 34.3796 115.335 34.3799 115.097 34.3797C114.955 34.3796 114.813 34.3797 114.671 34.3803C113.424 34.3844 112.33 34.1995 111.356 33.3678C111.323 33.3402 111.29 33.3126 111.256 33.2841C110.371 32.5234 109.871 31.4952 109.774 30.336C109.769 30.1889 109.768 30.0419 109.769 29.8947C109.769 29.8518 109.768 29.8088 109.768 29.7646C109.768 29.6214 109.768 29.4782 109.768 29.3351C109.768 29.2321 109.768 29.1291 109.768 29.0261C109.767 28.7759 109.767 28.5256 109.767 28.2753C109.767 28.0717 109.767 27.8681 109.767 27.6645C109.767 27.0861 109.766 26.5077 109.766 25.9293C109.766 25.8981 109.766 25.867 109.766 25.8349C109.766 25.8037 109.766 25.7726 109.766 25.7404C109.766 25.2357 109.766 24.731 109.766 24.2262C109.765 23.7069 109.765 23.1876 109.765 22.6683C109.765 22.3772 109.765 22.086 109.764 21.7949C109.764 21.5209 109.764 21.2469 109.764 20.9729C109.764 20.8727 109.764 20.7725 109.764 20.6723C109.761 19.3241 109.988 18.2072 110.898 17.1703C110.928 17.1363 110.958 17.1023 110.989 17.0672C111.802 16.205 112.918 15.7452 114.097 15.7461Z" fill="#231F20"/>
<path d="M65.5152 15.74C65.5481 15.7403 65.5809 15.7406 65.6148 15.7409C65.8743 15.7482 66.0859 15.7901 66.3114 15.9243C66.356 15.9507 66.356 15.9507 66.4015 15.9777C66.7373 16.2029 66.9267 16.5334 67.0191 16.9211C67.0365 17.1034 67.0359 17.2847 67.0349 17.4678C67.0351 17.5221 67.0353 17.5764 67.0355 17.6323C67.036 17.7822 67.0357 17.9321 67.0353 18.082C67.035 18.2439 67.0355 18.4059 67.0358 18.5679C67.0363 18.8483 67.0364 19.1288 67.0362 19.4092C67.0359 19.8151 67.0365 20.221 67.0372 20.627C67.0384 21.2862 67.0391 21.9454 67.0395 22.6047C67.0395 22.6638 67.0395 22.6638 67.0395 22.7242C67.0397 23.004 67.0398 23.2838 67.0399 23.5636C67.0401 23.8832 67.0402 24.2028 67.0404 24.5223C67.0404 24.5617 67.0404 24.6011 67.0405 24.6416C67.0408 25.2984 67.0417 25.9552 67.0429 26.612C67.0436 27.0168 67.0439 27.4216 67.0436 27.8264C67.0434 28.1038 67.0437 28.3813 67.0443 28.6587C67.0446 28.8186 67.0447 28.9786 67.0443 29.1386C67.0439 29.3122 67.0444 29.4858 67.045 29.6594C67.0447 29.7096 67.0444 29.7599 67.0441 29.8117C67.0475 30.3107 67.1516 30.6719 67.5062 31.0305C67.8335 31.3292 68.1808 31.3803 68.6103 31.3808C68.6487 31.381 68.687 31.3813 68.7265 31.3815C68.8096 31.3819 68.8927 31.3823 68.9759 31.3826C69.1077 31.383 69.2395 31.3839 69.3713 31.3848C69.746 31.3873 70.1208 31.3896 70.4955 31.391C70.7249 31.3918 70.9543 31.3933 71.1837 31.3951C71.2709 31.3957 71.358 31.3961 71.4452 31.3962C71.5675 31.3964 71.6898 31.3974 71.8122 31.3985C71.8477 31.3984 71.8833 31.3983 71.9199 31.3981C72.3888 31.4045 72.7492 31.5604 73.0973 31.8727C73.3938 32.207 73.4976 32.5974 73.4835 33.0377C73.4398 33.5007 73.2278 33.8154 72.8735 34.1102C72.578 34.3458 72.2378 34.3832 71.8719 34.3814C71.8092 34.3818 71.8092 34.3818 71.7453 34.3822C71.6081 34.383 71.4709 34.3828 71.3336 34.3826C71.2372 34.3828 71.1408 34.383 71.0444 34.3833C70.8424 34.3836 70.6404 34.3835 70.4383 34.3831C70.1817 34.3827 69.9251 34.3835 69.6685 34.3847C69.4692 34.3855 69.2699 34.3855 69.0706 34.3852C68.9762 34.3852 68.8817 34.3855 68.7872 34.386C67.9316 34.39 67.1622 34.302 66.3947 33.9077C66.3507 33.8855 66.3068 33.8633 66.2615 33.8404C65.9219 33.6558 65.6393 33.4175 65.3539 33.1602C65.3076 33.1192 65.3076 33.1192 65.2604 33.0774C64.5407 32.4042 64.052 31.373 64.0177 30.3868C64.0159 30.2427 64.0155 30.0987 64.0156 29.9546C64.0154 29.8987 64.0153 29.8427 64.0151 29.7868C64.0147 29.6335 64.0145 29.4802 64.0144 29.3269C64.0143 29.1614 64.0139 28.9959 64.0135 28.8303C64.0127 28.4309 64.0122 28.0315 64.0119 27.6321C64.0117 27.4439 64.0115 27.2556 64.0113 27.0674C64.0105 26.4415 64.0099 25.8156 64.0096 25.1897C64.0096 25.0274 64.0095 24.8651 64.0094 24.7028C64.0094 24.6625 64.0094 24.6222 64.0093 24.5806C64.009 23.9271 64.0079 23.2736 64.0066 22.6201C64.0052 21.9487 64.0045 21.2773 64.0043 20.606C64.0042 20.2292 64.0039 19.8524 64.0028 19.4756C64.0019 19.1548 64.0016 18.834 64.002 18.5132C64.0022 18.3496 64.0021 18.186 64.0013 18.0224C64.0005 17.8725 64.0006 17.7225 64.0012 17.5725C64.0014 17.4931 64.0007 17.4136 64 17.3341C64.0034 16.8799 64.11 16.4628 64.438 16.1319C64.7644 15.8661 65.0946 15.7343 65.5152 15.74Z" fill="#231F20"/>
<path d="M138.922 15.8721C138.948 15.8893 138.973 15.9065 138.999 15.9243C139.028 15.9424 139.057 15.9605 139.086 15.9791C139.395 16.1892 139.618 16.472 139.707 16.838C139.725 17.0586 139.724 17.2787 139.723 17.4998C139.723 17.5677 139.723 17.6356 139.724 17.7034C139.724 17.8895 139.724 18.0755 139.724 18.2616C139.724 18.4624 139.724 18.6632 139.725 18.864C139.725 19.2572 139.725 19.6505 139.725 20.0437C139.725 20.3633 139.725 20.6829 139.725 21.0026C139.725 21.0481 139.725 21.0936 139.725 21.1404C139.725 21.2328 139.725 21.3253 139.725 21.4177C139.726 22.2843 139.726 23.1509 139.725 24.0176C139.725 24.8104 139.725 25.6032 139.726 26.396C139.727 27.2101 139.728 28.0243 139.728 28.8384C139.727 29.2955 139.728 29.7525 139.728 30.2095C139.729 30.5986 139.729 30.9877 139.728 31.3767C139.728 31.5752 139.728 31.7737 139.728 31.9721C139.729 32.1539 139.729 32.3356 139.728 32.5174C139.728 32.5831 139.728 32.6488 139.728 32.7144C139.731 33.2042 139.67 33.5492 139.329 33.9139C138.967 34.2626 138.641 34.386 138.14 34.3821C137.715 34.3676 137.388 34.204 137.084 33.9078C136.807 33.5625 136.704 33.2388 136.704 32.7971C136.704 32.7699 136.704 32.7427 136.704 32.7146C136.704 32.6234 136.704 32.5322 136.704 32.4411C136.704 32.375 136.704 32.3089 136.704 32.2428C136.703 32.0613 136.703 31.8798 136.703 31.6983C136.703 31.5026 136.703 31.3068 136.703 31.111C136.703 30.7275 136.702 30.344 136.702 29.9604C136.702 29.6487 136.702 29.3369 136.702 29.0252C136.702 28.1414 136.702 27.2576 136.702 26.3739C136.702 26.3262 136.702 26.2786 136.702 26.2295C136.702 26.1818 136.702 26.1341 136.702 26.0849C136.702 25.3117 136.701 24.5385 136.701 23.7653C136.7 22.9714 136.7 22.1776 136.7 21.3837C136.7 20.938 136.7 20.4923 136.699 20.0465C136.699 19.6671 136.699 19.2876 136.699 18.9081C136.699 18.7145 136.699 18.5209 136.699 18.3273C136.699 18.15 136.699 17.9727 136.699 17.7954C136.699 17.7313 136.699 17.6673 136.699 17.6032C136.697 17.0459 136.739 16.593 137.128 16.1623C137.574 15.737 138.355 15.5506 138.922 15.8721Z" fill="#231F20"/>
<path d="M139.582 10.0073C139.634 10.0069 139.686 10.0066 139.74 10.0063C139.851 10.0058 139.962 10.0057 140.073 10.0059C140.214 10.0062 140.355 10.0049 140.496 10.0032C140.632 10.0019 140.768 10.0021 140.903 10.0021C140.954 10.0014 141.004 10.0007 141.056 10C141.351 10.0024 141.565 10.032 141.788 10.2344C141.933 10.4294 142.05 10.6662 142.064 10.9119C142.015 11.2017 141.853 11.3897 141.648 11.592C141.627 11.613 141.606 11.634 141.584 11.6557C141.54 11.6998 141.495 11.7438 141.45 11.7876C141.383 11.8537 141.316 11.9202 141.249 11.9869C141.075 12.1591 140.901 12.3292 140.715 12.4887C140.518 12.6587 140.337 12.8418 140.154 13.0263C140.081 13.0999 140.008 13.1736 139.934 13.2472C139.82 13.362 139.706 13.4769 139.592 13.5919C139.482 13.7038 139.37 13.8154 139.259 13.927C139.209 13.9782 139.209 13.9782 139.157 14.0305C138.791 14.3977 138.476 14.6765 137.941 14.6934C137.843 14.6934 137.744 14.6927 137.646 14.6913C137.597 14.6914 137.547 14.6916 137.497 14.6917C137.12 14.6894 136.805 14.6815 136.521 14.4139C136.354 14.2298 136.286 14.0109 136.293 13.7646C136.353 13.4827 136.487 13.2712 136.66 13.0456C136.709 12.9801 136.758 12.9145 136.806 12.8488C136.832 12.8151 136.857 12.7814 136.883 12.7467C137.009 12.5761 137.129 12.402 137.251 12.2279C137.459 11.9296 137.67 11.6336 137.884 11.3394C137.998 11.1835 138.11 11.0269 138.221 10.8687C138.243 10.8368 138.265 10.8048 138.288 10.7719C138.331 10.7115 138.373 10.6509 138.414 10.5902C138.743 10.12 139.015 10.0073 139.582 10.0073Z" fill="#231F20"/>
<path d="M38.4477 0.825038C38.6108 0.963712 38.7633 1.11119 38.9138 1.26326C38.9424 1.29185 38.971 1.32043 39.0005 1.34989C39.7226 2.12068 39.9825 3.13383 39.9746 4.15745C39.9747 4.22864 39.9748 4.29983 39.975 4.37102C39.9754 4.56453 39.9747 4.75802 39.9739 4.95152C39.9732 5.16098 39.9734 5.37045 39.9736 5.57991C39.9736 5.94212 39.9731 6.30432 39.9722 6.66653C39.9708 7.1902 39.9704 7.71388 39.9702 8.23756C39.9698 9.08735 39.9687 9.93714 39.9671 10.7869C39.9656 11.612 39.9644 12.4372 39.9637 13.2623C39.9637 13.3132 39.9636 13.3641 39.9636 13.4166C39.9634 13.6721 39.9632 13.9276 39.963 14.1831C39.9612 16.3001 39.9583 18.4172 39.9546 20.5342C39.9904 20.5342 40.0263 20.5341 40.0632 20.5341C42.1894 20.5313 44.3156 20.5292 46.4418 20.5279C46.6973 20.5277 46.9528 20.5275 47.2082 20.5274C47.2845 20.5273 47.2845 20.5273 47.3624 20.5273C48.1851 20.5267 49.0079 20.5258 49.8306 20.5246C50.6753 20.5234 51.52 20.5228 52.3647 20.5225C52.8856 20.5223 53.4065 20.5218 53.9274 20.5208C54.2849 20.5201 54.6425 20.5199 55 20.5201C55.2061 20.5202 55.4122 20.52 55.6182 20.5194C55.8073 20.5188 55.9964 20.5187 56.1855 20.5192C56.2535 20.5192 56.3215 20.5191 56.3895 20.5187C56.9834 20.5154 57.5733 20.5719 58.1317 20.7886C58.1645 20.8011 58.1972 20.8136 58.2309 20.8265C58.8054 21.0543 59.2563 21.3839 59.6877 21.8217C59.7193 21.8534 59.751 21.885 59.7836 21.9176C60.459 22.632 60.8024 23.6196 60.7869 24.5947C60.7493 25.519 60.4172 26.3513 59.8126 27.0548C59.7848 27.0915 59.7848 27.0915 59.7565 27.1289C59.1982 27.8493 58.2133 28.2936 57.3352 28.4487C57.0211 28.488 56.7042 28.4819 56.3881 28.4837C56.3042 28.4845 56.2202 28.4853 56.1363 28.4861C55.901 28.4882 55.6658 28.4898 55.4306 28.4912C55.2768 28.4922 55.1231 28.4933 54.9694 28.4945C51.8266 28.5179 48.6836 28.5176 45.5407 28.5183C45.3533 28.5183 45.1659 28.5184 44.9784 28.5184C44.9319 28.5184 44.8854 28.5184 44.8375 28.5184C44.0732 28.5186 43.3088 28.5193 42.5444 28.5203C41.7488 28.5213 40.9532 28.5218 40.1576 28.5218C39.715 28.5219 39.2725 28.5221 38.83 28.5229C38.4566 28.5235 38.0833 28.5237 37.71 28.5234C37.5204 28.5232 37.3308 28.5232 37.1412 28.5238C35.5932 28.5283 34.2332 28.3941 33.0594 27.2573C32.2698 26.4637 31.9401 25.4697 31.9404 24.368C31.941 24.2868 31.9415 24.2056 31.9421 24.1244C31.9421 24.0362 31.9421 23.9481 31.9419 23.8599C31.9418 23.6196 31.9427 23.3794 31.9438 23.1391C31.9448 22.8792 31.9448 22.6193 31.9449 22.3594C31.9453 21.8804 31.9464 21.4014 31.948 20.9223C31.9494 20.4797 31.9505 20.0371 31.9513 19.5944C31.9513 19.565 31.9514 19.5355 31.9514 19.5052C31.9516 19.3857 31.9518 19.2662 31.952 19.1467C31.9539 18.0271 31.9568 16.9075 31.9601 15.7879C31.963 14.7947 31.9652 13.8014 31.9667 12.8081C31.9671 12.5537 31.9675 12.2993 31.9679 12.0449C31.9679 12.0136 31.968 11.9823 31.968 11.95C31.9693 11.1184 31.9712 10.2868 31.9733 9.45527C31.9735 9.36572 31.9738 9.27617 31.974 9.18662C31.9741 9.12722 31.9743 9.06783 31.9744 9.00843C31.9755 8.59546 31.9763 8.18248 31.9769 7.76951C31.9777 7.23713 31.979 6.70476 31.9809 6.17239C31.9818 5.91591 31.9825 5.65944 31.9827 5.40296C31.9829 5.16778 31.9836 4.93261 31.9848 4.69743C31.9852 4.61275 31.9853 4.52808 31.9852 4.4434C31.9839 3.08566 32.3183 2.01265 33.3 1.03093C34.6545 -0.266787 36.9894 -0.34376 38.4477 0.825038Z" fill="#50B948"/>
<path d="M27.4236 13.0999C27.4738 13.1218 27.4738 13.1218 27.5249 13.1441C28.0823 13.4216 28.5038 13.9342 28.7142 14.512C28.7992 14.7902 28.8093 15.0452 28.8083 15.335C28.8084 15.3838 28.8086 15.4325 28.8088 15.4828C28.8091 15.6175 28.8091 15.7521 28.8089 15.8868C28.8088 16.0323 28.8092 16.1778 28.8095 16.3234C28.81 16.6082 28.8101 16.8931 28.81 17.1779C28.81 17.4095 28.81 17.6412 28.8102 17.8728C28.8102 17.9058 28.8102 17.9388 28.8103 17.9729C28.8103 18.0399 28.8104 18.107 28.8104 18.174C28.8109 18.8026 28.8108 19.4312 28.8105 20.0598C28.8103 20.6342 28.8108 21.2086 28.8116 21.783C28.8124 22.3734 28.8127 22.9638 28.8126 23.5542C28.8125 23.8854 28.8126 24.2167 28.8132 24.5479C28.8137 24.8299 28.8137 25.1119 28.8132 25.3939C28.813 25.5377 28.8129 25.6814 28.8134 25.8251C28.8139 25.9814 28.8135 26.1376 28.813 26.2938C28.8133 26.3387 28.8136 26.3835 28.8139 26.4297C28.8093 27.0805 28.5914 27.6605 28.1377 28.1349C27.6049 28.6269 26.9818 28.8125 26.2704 28.81C26.1986 28.8102 26.1986 28.8102 26.1253 28.8104C25.9655 28.8109 25.8057 28.8107 25.6459 28.8105C25.531 28.8107 25.4162 28.8109 25.3014 28.8112C25.0221 28.8117 24.7429 28.8118 24.4637 28.8117C24.2366 28.8116 24.0095 28.8117 23.7824 28.8119C23.7339 28.8119 23.7339 28.8119 23.6843 28.8119C23.6185 28.812 23.5528 28.812 23.487 28.8121C22.8706 28.8125 22.2542 28.8125 21.6378 28.8122C21.0747 28.812 20.5117 28.8125 19.9486 28.8132C19.3696 28.814 18.7907 28.8144 18.2117 28.8142C17.887 28.8142 17.5622 28.8143 17.2375 28.8148C16.961 28.8153 16.6845 28.8154 16.408 28.8149C16.2672 28.8147 16.1263 28.8147 15.9854 28.8151C15.8322 28.8155 15.679 28.8152 15.5258 28.8147C15.482 28.815 15.4381 28.8153 15.393 28.8156C14.6819 28.8105 14.0948 28.5784 13.5816 28.0843C13.0928 27.5419 12.9361 26.9276 12.9619 26.2149C13.0006 25.6003 13.2996 25.0717 13.7434 24.6537C14.1481 24.3148 14.631 24.1024 15.1611 24.0994C15.2424 24.0988 15.2424 24.0988 15.3254 24.0982C15.3852 24.0979 15.445 24.0977 15.5048 24.0975C15.568 24.0971 15.6312 24.0966 15.6944 24.0962C15.8657 24.0951 16.0371 24.0942 16.2084 24.0934C16.3875 24.0925 16.5666 24.0913 16.7458 24.0902C17.0849 24.0882 17.424 24.0863 17.7631 24.0845C18.1492 24.0824 18.5353 24.0802 18.9214 24.0779C19.7156 24.0731 20.5097 24.0687 21.3039 24.0645C21.2378 24.0048 21.1718 23.9452 21.1057 23.8857C21.0689 23.8525 21.0321 23.8193 20.9942 23.7851C20.8592 23.6656 20.72 23.5542 20.5753 23.4467C20.5473 23.4258 20.5192 23.405 20.4903 23.3835C20.1643 23.1453 19.8227 22.9354 19.4721 22.7354C19.4404 22.7173 19.4087 22.6992 19.376 22.6806C18.2894 22.0684 17.0844 21.6988 15.8502 21.531C15.8043 21.5246 15.8043 21.5246 15.7576 21.518C14.8342 21.4069 13.8036 21.424 12.8944 21.6141C12.8527 21.6227 12.811 21.6314 12.7681 21.6404C11.3459 21.9455 9.98678 22.4863 8.81455 23.3584C8.7894 23.377 8.76426 23.3957 8.73836 23.4148C8.36767 23.6918 8.02455 23.994 7.69051 24.3136C7.65622 24.3461 7.62192 24.3786 7.58659 24.4121C7.35104 24.6406 7.1445 24.8872 6.94115 25.1443C6.90815 25.1848 6.87514 25.2253 6.84114 25.2671C6.54776 25.6347 6.30218 26.0251 6.0669 26.4318C6.0502 26.4605 6.03351 26.4892 6.0163 26.5187C4.70893 28.7918 4.49722 31.486 5.15037 33.9907C5.57475 35.5336 6.41687 36.9514 7.52398 38.1024C7.54835 38.128 7.57271 38.1537 7.59781 38.1801C8.00037 38.6023 8.42268 38.9683 8.89781 39.3068C8.92215 39.3246 8.9465 39.3425 8.97158 39.3608C10.6386 40.5786 12.5878 41.0052 14.6013 41.1757C14.5935 41.2042 14.5857 41.2326 14.5777 41.262C14.4855 41.6124 14.4229 41.965 14.3697 42.3231C14.3652 42.3531 14.3607 42.3832 14.3561 42.4141C14.1856 43.5677 14.1742 44.705 14.1849 45.8689C11.1377 45.7927 8.1406 44.7519 5.73385 42.8786C5.70004 42.8524 5.66623 42.8262 5.6314 42.7992C5.52572 42.7162 5.42152 42.6315 5.31754 42.5463C5.27734 42.514 5.23715 42.4816 5.19574 42.4483C4.86022 42.1733 4.55048 41.873 4.24294 41.5677C4.21248 41.5376 4.21248 41.5376 4.1814 41.507C3.90241 41.231 3.64739 40.9424 3.40251 40.6358C3.35788 40.5826 3.31308 40.5294 3.26802 40.4765C2.70528 39.8082 2.24282 39.0729 1.82053 38.31C1.79247 38.26 1.79247 38.26 1.76384 38.2089C0.865756 36.5995 0.346424 34.8153 0.113662 32.9939C0.108725 32.9556 0.103787 32.9173 0.0987006 32.8778C-0.334724 29.3382 0.672772 25.471 2.85611 22.6394C2.94017 22.5322 3.02536 22.426 3.1111 22.3201C3.14569 22.2767 3.18028 22.2334 3.21485 22.19C3.39379 21.9682 3.58052 21.7548 3.7728 21.5445C3.84962 21.4599 3.92418 21.3739 3.99836 21.287C4.30037 20.9415 4.63354 20.6219 4.98449 20.3266C5.04036 20.2777 5.04036 20.2777 5.09735 20.2279C7.42017 18.2095 10.3834 17.0353 13.4356 16.7548C13.4649 16.7518 13.4943 16.7489 13.5245 16.7459C16.8289 16.4194 20.375 17.4306 23.0524 19.3713C23.0867 19.3961 23.0867 19.3961 23.1217 19.4214C23.8167 19.9262 23.8167 19.9262 24.0515 20.1604C24.0517 20.121 24.0517 20.121 24.0518 20.0809C24.0543 19.4398 24.0574 18.7988 24.0613 18.1577C24.0632 17.8477 24.0648 17.5377 24.0659 17.2277C24.0669 16.9572 24.0683 16.6868 24.0702 16.4164C24.0712 16.2734 24.072 16.1304 24.0722 15.9874C24.0726 15.8272 24.0738 15.667 24.0751 15.5068C24.0751 15.4601 24.075 15.4135 24.075 15.3655C24.0832 14.663 24.2935 14.0763 24.7854 13.5657C25.4842 12.9145 26.5402 12.7145 27.4236 13.0999Z" fill="#FDB713"/>
<path d="M15.4532 31.3683C15.5015 31.3682 15.5498 31.3681 15.5996 31.3679C15.7333 31.3677 15.8671 31.3675 16.0008 31.3675C16.1452 31.3674 16.2896 31.3671 16.434 31.3668C16.7496 31.3663 17.0652 31.366 17.3808 31.3658C17.578 31.3657 17.7752 31.3656 17.9724 31.3654C18.5188 31.3649 19.0652 31.3644 19.6116 31.3643C19.6466 31.3643 19.6815 31.3643 19.7175 31.3643C19.7701 31.3642 19.7701 31.3642 19.8237 31.3642C19.8947 31.3642 19.9657 31.3642 20.0367 31.3642C20.0719 31.3642 20.1071 31.3642 20.1434 31.3642C20.7136 31.364 21.2838 31.3633 21.8541 31.3623C22.44 31.3613 23.026 31.3608 23.612 31.3607C23.9408 31.3607 24.2696 31.3605 24.5984 31.3597C24.8784 31.3591 25.1584 31.3589 25.4385 31.3592C25.5812 31.3594 25.7239 31.3593 25.8666 31.3587C26.0218 31.3582 26.1769 31.3585 26.3321 31.3589C26.3766 31.3586 26.4211 31.3582 26.467 31.3579C27.139 31.3622 27.7195 31.5991 28.2058 32.0646C28.752 32.649 28.8948 33.3298 28.8914 34.1086C28.8915 34.155 28.8916 34.2014 28.8918 34.2492C28.8921 34.4029 28.8918 34.5567 28.8916 34.7104C28.8917 34.8214 28.8918 34.9323 28.892 35.0432C28.8924 35.3122 28.8923 35.5811 28.8921 35.8501C28.8919 36.0689 28.8919 36.2876 28.8919 36.5064C28.892 36.5377 28.892 36.5689 28.892 36.6011C28.892 36.6646 28.892 36.728 28.8921 36.7915C28.8923 37.3855 28.892 37.9796 28.8916 38.5736C28.8912 39.0824 28.8913 39.5911 28.8917 40.0999C28.8921 40.6919 28.8923 41.284 28.892 41.876C28.892 41.9392 28.892 42.0025 28.8919 42.0657C28.8919 42.0968 28.8919 42.1279 28.8919 42.1599C28.8918 42.3782 28.892 42.5965 28.8922 42.8148C28.8924 43.0811 28.8923 43.3475 28.8919 43.6138C28.8917 43.7495 28.8916 43.8851 28.8919 44.0208C28.8921 44.1684 28.8918 44.3159 28.8914 44.4635C28.8916 44.5056 28.8917 44.5478 28.8919 44.5913C28.8878 45.3556 28.6903 45.9954 28.1627 46.562C27.6606 47.0349 27.0494 47.2138 26.3714 47.2067C25.6748 47.1673 25.1441 46.8627 24.6761 46.3673C24.1819 45.7766 24.1225 45.0745 24.1216 44.3383C24.1212 44.2686 24.1208 44.199 24.1203 44.1294C24.1192 43.9417 24.1186 43.754 24.118 43.5662C24.1174 43.3696 24.1163 43.1729 24.1152 42.9762C24.1132 42.6044 24.1117 42.2326 24.1103 41.8608C24.1087 41.4372 24.1067 41.0136 24.1046 40.5901C24.1003 39.7193 24.0966 38.8485 24.0932 37.9778C24.0199 38.0571 23.9466 38.1366 23.8734 38.216C23.8424 38.2495 23.8424 38.2495 23.8109 38.2836C23.6546 38.4533 23.5066 38.6271 23.3673 38.811C23.345 38.8404 23.3226 38.8698 23.2996 38.9001C21.7178 41.0153 21.0222 43.65 21.3858 46.2674C21.6107 47.7242 22.1302 49.1357 22.9692 50.3544C22.994 50.3911 22.994 50.3911 23.0193 50.4286C23.6223 51.3183 24.3839 52.1362 25.2589 52.7633C25.3239 52.8107 25.3239 52.8107 25.3901 52.8592C27.0637 54.0499 29.0583 54.6956 31.1133 54.6867C31.1499 54.6867 31.1865 54.6866 31.2242 54.6865C31.784 54.6846 32.3272 54.6602 32.8774 54.5492C32.9136 54.5423 32.9499 54.5353 32.9872 54.5282C35.2566 54.0894 37.4635 52.8308 38.8722 50.9774C38.8921 50.9515 38.912 50.9256 38.9325 50.899C40.1532 49.3013 40.7369 47.5112 40.9954 45.5367C41.2668 45.5615 41.522 45.6097 41.7864 45.6742C42.2959 45.7937 42.8086 45.8793 43.3268 45.952C43.3589 45.9565 43.3911 45.9611 43.4242 45.9657C44.1766 46.0678 44.942 46.0821 45.6997 46.1181C45.3491 49.8584 43.6174 53.4171 40.7456 55.8782C40.7194 55.9007 40.6932 55.9232 40.6662 55.9464C39.9773 56.533 39.2398 57.0458 38.4559 57.4979C38.404 57.528 38.404 57.528 38.351 57.5586C35.0023 59.4756 31.0161 59.9165 27.2924 58.9537C26.4782 58.7315 25.6891 58.4391 24.9259 58.0794C24.887 58.0611 24.8482 58.0429 24.8082 58.0241C23.0295 57.1799 21.2431 55.8937 20.0223 54.3345C19.9524 54.2453 19.8813 54.1584 19.808 54.072C18.8566 52.9436 18.0905 51.6033 17.5572 50.2298C17.5434 50.1948 17.5297 50.1598 17.5156 50.1237C16.8642 48.4458 16.5488 46.6895 16.5476 44.8929C16.5476 44.8535 16.5476 44.8142 16.5475 44.7736C16.5501 42.4533 17.1087 40.1939 18.1841 38.1362C18.2225 38.0624 18.26 37.9881 18.2974 37.9139C18.4637 37.5886 18.6517 37.2789 18.8477 36.9706C18.8714 36.9333 18.8951 36.896 18.9195 36.8575C19.0458 36.6613 19.1769 36.4701 19.3149 36.2818C19.3445 36.2414 19.3741 36.201 19.4046 36.1594C19.438 36.1138 19.438 36.1138 19.4722 36.0673C19.4491 36.0675 19.426 36.0676 19.4022 36.0678C18.8378 36.0714 18.2734 36.0742 17.709 36.0759C17.436 36.0768 17.1631 36.0779 16.8901 36.0798C16.6264 36.0816 16.3627 36.0826 16.099 36.0831C15.9987 36.0834 15.8984 36.084 15.7981 36.0849C14.9545 36.0921 14.2699 36.02 13.6282 35.4106C13.1017 34.8542 12.9556 34.2473 12.9664 33.5054C12.9875 32.9118 13.2708 32.3642 13.7027 31.9598C14.2521 31.5144 14.7603 31.3678 15.4532 31.3683Z" fill="#009FDA"/>
<path d="M60.0624 29.962C59.9363 31.7856 59.4803 33.5462 58.6886 35.1951C58.6714 35.2315 58.6541 35.268 58.6363 35.3055C58.0284 36.5824 57.2231 37.745 56.2556 38.7774C56.153 38.8873 56.0534 38.9994 55.954 39.1121C55.8222 39.2584 55.6863 39.3899 55.5356 39.5164C55.4414 39.5975 55.3513 39.6823 55.2612 39.7679C54.9254 40.085 54.5641 40.3621 54.1925 40.6358C54.1557 40.6633 54.1557 40.6633 54.1182 40.6913C51.1046 42.9389 47.1695 43.8844 43.4549 43.366C43.231 43.3321 43.0082 43.2934 42.7856 43.2524C42.7202 43.2405 42.7202 43.2405 42.6534 43.2284C40.6366 42.8522 38.5508 41.9974 36.9295 40.7348C36.8957 40.7085 36.8619 40.6822 36.8271 40.6552C36.8014 40.6351 36.7756 40.615 36.7491 40.5943C36.749 40.6169 36.7489 40.6395 36.7488 40.6628C36.7463 41.2155 36.7431 41.7682 36.7393 42.3208C36.7374 42.5881 36.7358 42.8554 36.7347 43.1226C36.7336 43.3809 36.7319 43.6391 36.7298 43.8974C36.7291 43.9956 36.7286 44.0938 36.7284 44.192C36.7258 45.0524 36.6803 45.7891 36.0501 46.4429C36.0198 46.4728 35.9894 46.5026 35.9581 46.5334C35.9346 46.5573 35.9111 46.5812 35.8869 46.6058C35.4455 47.0203 34.84 47.1777 34.2484 47.171C33.6082 47.149 33.0657 46.8933 32.6151 46.4473C32.2734 46.0777 32.0008 45.5733 31.9966 45.0594C31.9961 45.022 31.9957 44.9846 31.9953 44.9461C31.9951 44.9052 31.9948 44.8642 31.9946 44.822C31.9942 44.7783 31.9938 44.7346 31.9933 44.6896C31.992 44.5424 31.991 44.3952 31.99 44.248C31.9891 44.1422 31.9882 44.0364 31.9873 43.9306C31.9847 43.611 31.9825 43.2915 31.9803 42.972C31.9795 42.8513 31.9786 42.7305 31.9778 42.6097C31.9636 40.6292 31.956 38.6486 31.9541 36.6679C31.9538 36.4271 31.9534 36.1862 31.9528 35.9453C31.9522 35.6503 31.9519 35.3553 31.9519 35.0603C31.952 34.9093 31.9519 34.7582 31.9514 34.6072C31.951 34.4424 31.9511 34.2777 31.9514 34.113C31.9512 34.0655 31.9509 34.018 31.9507 33.9691C31.9536 33.2151 32.1517 32.5756 32.6692 32.0153C33.1788 31.5274 33.7773 31.3531 34.4717 31.3599C34.5452 31.3599 34.5452 31.3599 34.6203 31.3598C34.7549 31.3599 34.8895 31.3605 35.0241 31.3614C35.1699 31.3622 35.3156 31.3622 35.4614 31.3624C35.7463 31.3628 36.0312 31.3639 36.3162 31.3653C36.5479 31.3664 36.7796 31.3673 37.0113 31.3679C37.0444 31.368 37.0775 31.3681 37.1115 31.3682C37.1787 31.3684 37.2459 31.3686 37.3131 31.3688C37.9421 31.3706 38.571 31.3732 39.2 31.3761C39.7389 31.3786 40.2778 31.3804 40.8167 31.3817C41.4436 31.3832 42.0704 31.3851 42.6972 31.3877C42.7641 31.388 42.8311 31.3882 42.898 31.3885C42.9309 31.3887 42.9638 31.3888 42.9978 31.3889C43.229 31.3898 43.4603 31.3905 43.6915 31.391C43.9736 31.3916 44.2557 31.3927 44.5378 31.3944C44.6815 31.3952 44.8252 31.3958 44.969 31.3959C45.1252 31.3961 45.2814 31.3971 45.4376 31.3983C45.4825 31.3982 45.5274 31.398 45.5736 31.3979C46.1941 31.4048 46.7859 31.6021 47.244 32.033C47.7204 32.5657 47.9744 33.1662 47.9608 33.8842C47.9049 34.52 47.6696 35.085 47.1985 35.5274C46.7605 35.888 46.2511 36.1179 45.6793 36.1204C45.6497 36.1206 45.6202 36.1209 45.5898 36.1211C45.4919 36.1218 45.394 36.1219 45.296 36.1221C45.2254 36.1224 45.1548 36.1229 45.0843 36.1233C44.8933 36.1244 44.7024 36.1251 44.5115 36.1256C44.3117 36.1263 44.1119 36.1274 43.9121 36.1284C43.534 36.1304 43.156 36.1319 42.778 36.1333C42.3475 36.1349 41.917 36.1369 41.4865 36.139C40.6012 36.1433 39.7159 36.147 38.8306 36.1503C38.8966 36.21 38.9627 36.2696 39.0288 36.3291C39.0656 36.3623 39.1023 36.3955 39.1402 36.4297C39.2753 36.5492 39.4145 36.6606 39.5592 36.7681C39.5872 36.789 39.6151 36.8098 39.644 36.8312C39.97 37.0695 40.3123 37.2785 40.6624 37.4794C40.691 37.4959 40.7195 37.5124 40.749 37.5295C41.6409 38.0401 42.6243 38.3633 43.6286 38.5696C43.659 38.5759 43.6894 38.5822 43.7208 38.5886C44.3033 38.7008 44.8838 38.7413 45.476 38.7383C45.5248 38.7382 45.5248 38.7382 45.5745 38.738C48.2798 38.7262 50.7466 37.5746 52.6521 35.6935C52.7557 35.587 52.8504 35.4768 52.9435 35.3612C52.9814 35.3157 53.0192 35.2701 53.0571 35.2246C54.0819 33.9812 54.7503 32.558 55.127 30.9972C55.15 30.9173 55.15 30.9173 55.1916 30.8757C55.2513 30.8713 55.3112 30.8697 55.371 30.8692C55.4093 30.8688 55.4476 30.8683 55.4871 30.8679C55.529 30.8676 55.5709 30.8673 55.6141 30.867C55.7033 30.8658 55.7926 30.8646 55.8818 30.8634C56.0221 30.8617 56.1623 30.8602 56.3026 30.8591C57.0392 30.8527 57.7525 30.809 58.4623 30.598C58.498 30.5876 58.5338 30.5772 58.5707 30.5665C58.9992 30.4366 59.4198 30.2638 59.8052 30.035C59.9376 29.962 59.9376 29.962 60.0624 29.962Z" fill="#ED1C24"/>
</svg>
