<svg width="18" height="16" viewBox="0 0 18 16" fill="none" xmlns="http://www.w3.org/2000/svg">
<path d="M16.0317 11.28V13.28C16.0325 13.4657 15.9927 13.6494 15.9147 13.8195C15.8368 13.9897 15.7225 14.1424 15.5792 14.2679C15.4359 14.3934 15.2667 14.489 15.0824 14.5485C14.8981 14.6079 14.7029 14.63 14.5092 14.6133C12.36 14.3904 10.2957 13.6894 8.48187 12.5667C6.79439 11.5431 5.3637 10.1774 4.2914 8.56665C3.11106 6.82745 2.37652 4.84731 2.14727 2.78665C2.12982 2.60229 2.15277 2.41649 2.21467 2.24107C2.27656 2.06564 2.37605 1.90444 2.50679 1.76773C2.63753 1.63102 2.79666 1.52179 2.97405 1.447C3.15143 1.37221 3.34319 1.33349 3.53711 1.33332H5.63235C5.97129 1.33013 6.29989 1.4447 6.55688 1.65567C6.81388 1.86664 6.98174 2.15961 7.02918 2.47998C7.11761 3.12003 7.28162 3.74847 7.51806 4.35332C7.61203 4.59193 7.63237 4.85126 7.57667 5.10057C7.52096 5.34988 7.39156 5.57872 7.20378 5.75998L6.31679 6.60665C7.31102 8.27568 8.75876 9.65761 10.5073 10.6066L11.3943 9.75998C11.5841 9.58074 11.8239 9.45722 12.0851 9.40405C12.3463 9.35088 12.6179 9.37029 12.8679 9.45998C13.5016 9.68568 14.1599 9.84224 14.8304 9.92665C15.1697 9.97234 15.4796 10.1355 15.701 10.385C15.9225 10.6345 16.0402 10.953 16.0317 11.28Z" stroke="#57AF31" stroke-width="1.6" stroke-linecap="round" stroke-linejoin="round"/>
</svg>
